<svg width="20" height="20" viewBox="0 0 20 20" fill="none" xmlns="http://www.w3.org/2000/svg">
<g id="checkbox">
<g id="active">
<rect id="base" width="20" height="20" rx="6" transform="matrix(-1 0 0 1 20 0)" fill="#ECF1F6"/>
<path id="mark" d="M13.9998 8.04433C14.0064 8.36721 13.8668 8.6242 13.6441 8.84824C12.7334 9.7477 11.8261 10.6504 10.9187 11.5499C10.5464 11.9189 10.1775 12.2879 9.80193 12.6569C9.33994 13.1116 8.70843 13.1149 8.24976 12.6635C7.60496 12.0309 6.96017 11.3951 6.32201 10.7526C5.89658 10.3243 5.89326 9.67521 6.30872 9.26008C6.71421 8.84494 7.37563 8.84494 7.81436 9.26008C7.95063 9.38857 8.08358 9.52036 8.2132 9.65544C8.44586 9.89596 8.46248 10.1991 8.25309 10.4594C8.12014 10.6274 8.11349 10.7559 8.22982 10.8679C8.34947 10.9799 8.50237 10.9634 8.65193 10.8119C9.8252 9.64885 10.9951 8.48912 12.1684 7.32938C12.6271 6.87471 13.3317 6.89447 13.7438 7.36562C13.9167 7.56001 13.9998 7.78734 13.9998 8.04433Z" fill="#D7171F"/>
</g>
</g>
</svg>
