<svg width="80" height="80" viewBox="0 0 80 80" fill="none" xmlns="http://www.w3.org/2000/svg">
<circle cx="40" cy="40" r="40" fill="#ECF1F6"/>
<path d="M47.9049 33.105C49.743 33.1189 51.2612 32.9329 52.6277 34.3487C53.5235 35.2768 53.7063 36.6493 53.9967 37.8698C54.0027 37.8955 54.0005 37.9205 53.9902 37.9446C53.0177 40.145 51.1772 41.8346 48.7893 42.5806C47.1666 43.0875 45.7234 42.9934 43.7588 42.9795C43.7311 42.9795 43.7113 42.9677 43.6993 42.944C43.6201 42.7851 43.5524 42.603 43.4684 42.4649C41.747 39.6404 37.6654 39.9575 36.356 42.9432C36.3451 42.9674 36.3258 42.9798 36.2981 42.9803C34.5106 42.9949 32.6643 43.1153 30.9519 42.5228C28.6997 41.7441 27.0528 40.3037 26.0112 38.2016C25.9998 38.1784 25.9971 38.1542 26.0031 38.129C26.1516 37.5118 26.303 36.8959 26.4575 36.2813C26.588 35.7628 26.721 35.3807 26.8564 35.1348C27.4055 34.1403 28.391 33.4213 29.5462 33.1922C30.2642 33.0494 31.3052 33.1058 32.1536 33.1088C32.1825 33.1088 32.1969 33.0952 32.1969 33.068C32.1985 31.7878 32.1985 30.5089 32.1969 29.2313C32.1963 28.772 32.2611 28.282 32.391 27.7615C33.3651 23.8616 37.3644 21.375 41.5341 22.1373C44.7974 22.7329 47.3518 25.285 47.789 28.4289C47.8353 28.7617 47.8587 29.275 47.8592 29.9688C47.8603 31.0006 47.8614 32.0323 47.8625 33.0641C47.8625 33.0914 47.8766 33.105 47.9049 33.105ZM34.8777 33.1135H45.1914C45.2109 33.1135 45.2296 33.1062 45.2434 33.0931C45.2571 33.0801 45.2649 33.0625 45.2649 33.044V29.4642C45.2649 28.8081 45.1297 28.1584 44.8672 27.5523C44.6047 26.9461 44.2199 26.3953 43.7349 25.9313C43.2498 25.4674 42.6739 25.0994 42.0401 24.8483C41.4064 24.5972 40.7271 24.468 40.0411 24.468H40.028C38.6426 24.468 37.3139 24.9944 36.3343 25.9313C35.3546 26.8683 34.8043 28.1392 34.8043 29.4642V33.044C34.8043 33.0625 34.812 33.0801 34.8258 33.0931C34.8396 33.1062 34.8582 33.1135 34.8777 33.1135Z" fill="#256AC5"/>
<path d="M55.9522 47.9235C56.4586 52.9423 52.8833 57.3634 48.0038 57.9351C47.6566 57.9753 47.1207 57.996 46.3961 57.9971C42.1921 58.0003 37.9875 58.0009 33.7824 57.9987C33.0262 57.9987 32.49 57.9835 32.1739 57.953C27.2147 57.4784 23.5356 52.9896 24.0476 47.9382C24.0841 47.575 24.1828 47.0414 24.3439 46.3373C24.66 44.9557 24.9804 43.5769 25.3051 42.2008C25.3064 42.1955 25.3092 42.1905 25.313 42.1866C25.3169 42.1826 25.3217 42.1798 25.327 42.1785C25.3322 42.1771 25.3377 42.1773 25.3428 42.1789C25.3479 42.1806 25.3524 42.1836 25.3558 42.1878C27.3041 44.5376 29.7665 45.8738 32.7431 46.1962C33.8251 46.3136 35.1365 46.2524 36.3175 46.2573C36.3449 46.2573 36.364 46.2701 36.3747 46.2957C37.7948 49.703 42.2162 49.7324 43.6243 46.2998C43.6356 46.2731 43.6551 46.2595 43.6831 46.259C44.7337 46.2459 45.9437 46.2998 46.8518 46.2198C50.0178 45.9415 52.608 44.5374 54.6222 42.0076C54.6246 42.0047 54.6278 42.0024 54.6313 42.0012C54.6349 41.9999 54.6386 41.9997 54.6422 42.0004C54.6458 42.0012 54.6491 42.003 54.6517 42.0055C54.6543 42.0081 54.6561 42.0113 54.6569 42.0149C54.9971 43.4524 55.3299 44.8883 55.6551 46.3226C55.8178 47.0375 55.9168 47.5712 55.9522 47.9235Z" fill="#D7171F"/>
<path d="M40 46C40.5523 46 41 45.3284 41 44.5C41 43.6716 40.5523 43 40 43C39.4477 43 39 43.6716 39 44.5C39 45.3284 39.4477 46 40 46Z" fill="#256AC5"/>
</svg>
