<svg width="80" height="80" viewBox="0 0 80 80" fill="none" xmlns="http://www.w3.org/2000/svg">
<circle cx="40" cy="40" r="40" fill="#ECF1F6"/>
<path d="M45.6837 30.9687C45.6777 30.9896 45.6635 31 45.6411 31H34.377C34.3682 31 34.3597 30.9972 34.3526 30.992C34.3455 30.9868 34.3403 30.9794 34.3376 30.9711C33.9804 29.7606 33.6273 28.5469 33.2783 27.3299C33.1025 26.7183 33.0102 26.2523 33.0014 25.932C32.9506 24.1219 34.2713 22.5021 36.0426 22.1101C36.3779 22.0362 36.9214 21.9995 37.6729 22C39.4961 22.0027 41.3189 22.003 43.1415 22.0008C45.6682 21.9976 47.5304 24.4497 46.8635 26.831C46.479 28.2038 46.0857 29.583 45.6837 30.9687Z" fill="#256AC5"/>
<path d="M41.3374 57.6334C40.3073 58.2761 38.9526 58.0428 38.0759 57.1757C36.0875 55.2084 34.0997 53.2412 32.1124 51.274C31.7046 50.8703 31.4357 50.5482 31.3058 50.3076C30.7879 49.3533 31.0244 48.667 31.309 47.4431C32.3497 42.9742 33.3947 38.5061 34.4441 34.0388C34.4501 34.0129 34.4667 34 34.4939 34H45.5017C45.5289 34 45.5455 34.0129 45.5515 34.0388C46.6732 38.8301 47.7916 43.6209 48.9067 48.4111C49.2044 49.6891 48.7714 50.3843 47.8653 51.2869C46.0976 53.0485 44.3227 54.8021 42.5403 56.5475C41.9096 57.1649 41.5086 57.5269 41.3374 57.6334Z" fill="#D7171F"/>
</svg>
