<svg width="80" height="80" viewBox="0 0 80 80" fill="none" xmlns="http://www.w3.org/2000/svg">
<circle cx="40" cy="40" r="40" fill="#ECF1F6"/>
<path d="M22.6311 25.2984C22.9639 23.9844 24.0623 22.9227 25.3834 22.6086C25.6834 22.5372 26.2014 22.5016 26.9373 22.5016C31.6623 22.4995 36.3873 22.4992 41.1123 22.5008C42.9264 22.5008 44.5022 23.6406 44.9014 25.425C44.9654 25.7125 44.9977 26.2031 44.9983 26.8969C44.9998 37.0844 44.9998 47.2721 44.9983 57.4602C44.9983 57.4867 44.985 57.5 44.9584 57.5H40.0389C40.0285 57.5 40.0186 57.4958 40.0113 57.4883C40.0039 57.4809 39.9998 57.4707 39.9998 57.4602C39.9993 54.1727 39.9977 50.8787 39.9951 47.5781C39.9943 46.4156 39.2865 45.4039 38.167 45.0953C37.941 45.0328 37.5803 45.0016 37.085 45.0016C34.7428 45 32.4003 45.0008 30.0576 45.0039C28.8998 45.0063 27.9279 45.707 27.6068 46.8102C27.535 47.0565 27.499 47.4195 27.499 47.8992C27.499 51.0867 27.499 54.2734 27.499 57.4594C27.499 57.4704 27.4947 57.4809 27.4869 57.4887C27.4791 57.4964 27.4686 57.5008 27.4576 57.5008C26.6764 57.5003 25.8899 57.4984 25.0983 57.4953C24.1373 57.4917 23.4032 57.1068 22.8959 56.3406C22.5701 55.8492 22.5045 55.3539 22.5037 54.7086C22.4912 45.4227 22.4941 36.1365 22.5123 26.85C22.5139 26.1219 22.5535 25.6047 22.6311 25.2984ZM28.3436 28.8164C27.0061 29.2766 27.3959 31.2524 28.71 31.2508C29.4548 31.2497 30.1993 31.2497 30.9436 31.2508C31.2878 31.2513 31.5394 31.2208 31.6983 31.1594C32.7787 30.7438 32.7451 29.1758 31.6467 28.8172C31.5113 28.7729 31.2699 28.7505 30.9225 28.75C30.248 28.7484 29.5735 28.7492 28.899 28.7524C28.648 28.7539 28.4628 28.7753 28.3436 28.8164ZM39.1873 31.1633C40.4537 30.6883 40.1186 28.7563 38.8068 28.7516C38.0417 28.7484 37.2766 28.7484 36.5115 28.7516C36.1584 28.7531 35.9003 28.7878 35.7373 28.8555C34.742 29.2711 34.7818 30.7547 35.7678 31.15C35.9345 31.2167 36.2209 31.25 36.6272 31.25C37.236 31.2495 37.8446 31.2497 38.4529 31.2508C38.7863 31.2508 39.0311 31.2216 39.1873 31.1633ZM31.7404 36.1477C32.9811 35.6461 32.5936 33.7492 31.2287 33.7477C30.4897 33.7471 29.7506 33.7484 29.0115 33.7516C28.66 33.7531 28.4022 33.7883 28.2381 33.857C27.2225 34.2852 27.2865 35.8047 28.3108 36.1672C28.468 36.2229 28.7634 36.2505 29.1967 36.25C29.7649 36.2495 30.3329 36.2495 30.9006 36.25C31.2902 36.2505 31.5701 36.2164 31.7404 36.1477ZM35.8436 33.8164C34.5053 34.2781 34.8967 36.2524 36.21 36.2508C36.9548 36.2497 37.6993 36.2497 38.4436 36.2508C38.7878 36.2513 39.0394 36.2208 39.1983 36.1594C40.2795 35.7438 40.2443 34.1774 39.1459 33.818C39.0105 33.7732 38.7693 33.7505 38.4225 33.75C37.748 33.7484 37.0735 33.7492 36.399 33.7524C36.148 33.7539 35.9628 33.7753 35.8436 33.8164ZM31.6608 41.1727C32.9826 40.7 32.6326 38.7492 31.2295 38.7477C30.4899 38.7466 29.7506 38.7479 29.0115 38.7516C28.6584 38.7531 28.4009 38.7878 28.2389 38.8555C27.2162 39.2828 27.2904 40.8149 28.3225 41.1711C28.4746 41.2237 28.7618 41.25 29.1842 41.25C29.7842 41.2495 30.3842 41.2498 30.9842 41.2508C31.2884 41.2508 31.5139 41.2248 31.6608 41.1727ZM39.2404 41.1477C40.4811 40.6461 40.0936 38.7492 38.7287 38.7477C37.9897 38.7471 37.2506 38.7484 36.5115 38.7516C36.16 38.7531 35.9022 38.7883 35.7381 38.857C34.7225 39.2852 34.7865 40.8047 35.8108 41.1672C35.968 41.2229 36.2634 41.2505 36.6967 41.25C37.2649 41.2495 37.8329 41.2495 38.4006 41.25C38.7902 41.2505 39.0701 41.2164 39.2404 41.1477Z" fill="#D7171F"/>
<path d="M53.6898 32.5008C55.4477 32.5047 57.0063 33.6844 57.3961 35.4039C57.4643 35.7034 57.4984 36.2216 57.4984 36.9586C57.5005 42.9461 57.5 48.9338 57.4969 54.9219C57.4961 56.0766 56.7875 57.0906 55.6758 57.4016C55.4461 57.4656 55.0674 57.4979 54.5398 57.4984C52.2049 57.5005 49.8716 57.5008 47.5398 57.4992C47.5293 57.4992 47.5191 57.495 47.5117 57.4875C47.5042 57.4801 47.5 57.4699 47.5 57.4594V32.5398C47.5 32.5148 47.5125 32.5023 47.5375 32.5023C49.5917 32.4977 51.6424 32.4971 53.6898 32.5008ZM50.1289 39.4453C49.7445 40.2672 50.3164 41.2508 51.25 41.25C51.9714 41.2495 52.6922 41.2497 53.4125 41.2508C53.7891 41.2508 54.0609 41.2164 54.2281 41.1477C55.2375 40.7328 55.2492 39.2852 54.2516 38.8594C54.0828 38.787 53.7951 38.7505 53.3883 38.75C52.7659 38.749 52.1432 38.7495 51.5203 38.7516C50.8945 38.7539 50.3914 38.8828 50.1289 39.4453ZM50.8445 43.8164C49.5062 44.2781 49.8977 46.2523 51.2109 46.2508C51.9557 46.2497 52.7003 46.2497 53.4445 46.2508C53.7888 46.2513 54.0404 46.2208 54.1992 46.1594C55.2805 45.7437 55.2453 44.1773 54.1469 43.818C54.0115 43.7732 53.7703 43.7505 53.4234 43.75C52.749 43.7484 52.0745 43.7492 51.4 43.7523C51.149 43.7539 50.9638 43.7753 50.8445 43.8164ZM50.1227 49.457C49.7367 50.2976 50.3312 51.2453 51.2695 51.2469C52.0216 51.2484 52.7737 51.2497 53.5258 51.2508C53.7919 51.2508 53.9909 51.2294 54.1227 51.1867C55.4758 50.7453 55.1477 48.7539 53.7687 48.7508C53.0208 48.7487 52.2727 48.749 51.5242 48.7516C50.8938 48.7539 50.3836 48.8891 50.1227 49.457Z" fill="#256AC5"/>
<path d="M32.4664 47.5H30.0336C30.015 47.5 30 47.515 30 47.5336V57.4664C30 57.485 30.015 57.5 30.0336 57.5H32.4664C32.485 57.5 32.5 57.485 32.5 57.4664V47.5336C32.5 47.515 32.485 47.5 32.4664 47.5Z" fill="#D7171F"/>
<path d="M37.4586 47.5H35.0414C35.0185 47.5 35 47.5185 35 47.5414V57.4586C35 57.4815 35.0185 57.5 35.0414 57.5H37.4586C37.4815 57.5 37.5 57.4815 37.5 57.4586V47.5414C37.5 47.5185 37.4815 47.5 37.4586 47.5Z" fill="#D7171F"/>
</svg>
