<svg width="80" height="80" viewBox="0 0 80 80" fill="none" xmlns="http://www.w3.org/2000/svg">
<circle cx="40" cy="40" r="40" fill="#ECF1F6"/>
<path d="M27.3147 55.9047C26.2519 55.639 25.3915 54.799 25.1105 53.7568C25.0378 53.4875 25.001 53.0361 25.001 52.4025C25.0003 46.4761 24.9996 40.549 25.0003 34.6219C25.0003 34.2511 25.0356 33.984 25.1055 33.8204C25.3368 33.2854 25.7958 33.1426 26.3801 33.1426C35.4192 33.1426 44.4583 33.1426 53.4974 33.1426C53.854 33.1426 54.1134 33.1769 54.2763 33.2447C54.8138 33.4711 54.9737 33.924 54.9737 34.4997C54.9745 40.6304 54.9752 46.7618 54.9752 52.8925C54.9752 54.3018 54.0781 55.5297 52.6933 55.8911C52.4187 55.9632 51.9634 55.999 51.3286 55.999C43.7565 56.0004 36.1837 56.0004 28.6109 55.999C27.9977 55.9982 27.5661 55.9668 27.3147 55.9047ZM45.457 38.7026C45.0988 38.3219 44.6536 38.1961 44.2039 38.5254C43.8732 38.7676 43.6225 38.9069 43.2017 38.7054C42.8198 38.5226 42.4293 38.3604 42.0308 38.2183C41.8111 38.1397 41.659 38.059 41.5747 37.9761C41.2879 37.6933 41.3852 37.4119 41.2735 37.1197C41.0905 36.644 40.7151 36.5697 40.2165 36.5704C39.6667 36.5704 39.001 36.444 38.6998 37.0533C38.6313 37.1919 38.6313 37.349 38.6083 37.5054C38.5607 37.8233 38.39 38.0797 38.083 38.1847C37.5419 38.3697 37.0959 38.5526 36.745 38.7319C36.0871 39.0697 35.8746 38.434 35.3479 38.3626C34.8096 38.2897 34.4674 38.7297 34.0646 39.1483C33.7267 39.5004 33.5638 39.8347 33.8088 40.274C33.9457 40.5183 34.146 40.6304 34.1619 40.9783C34.1676 41.1018 34.123 41.2647 34.0271 41.4676C33.842 41.8633 33.6741 42.2661 33.5235 42.6761C33.3931 43.0311 33.1517 43.2011 32.7828 43.2268C32.1033 43.2747 31.9167 43.7033 31.9167 44.3011C31.9167 45.0454 31.7827 45.8418 32.7792 45.9168C33.2187 45.9497 33.4385 46.1768 33.5854 46.5918C33.7216 46.9768 33.8794 47.3525 34.0603 47.719C34.1799 47.9625 34.2361 48.2125 34.1302 48.4425C34.0264 48.6668 33.7886 48.8525 33.7346 49.1183C33.6164 49.6933 34.1172 50.0661 34.5546 50.4768C34.9905 50.8854 35.3688 50.9261 35.8386 50.549C36.2363 50.2297 36.5548 50.3275 37.0109 50.5483C37.2667 50.6718 37.5289 50.7804 37.7977 50.8733C38.2934 51.0433 38.5932 51.1904 38.6436 51.7125C38.7409 52.7147 39.5385 52.5782 40.3131 52.5704C41.8471 52.5547 40.9082 51.2861 41.9292 50.944C42.3724 50.7954 42.8039 50.6183 43.2226 50.4125C44.1297 49.9683 44.4396 51.379 45.377 50.4997C45.8511 50.0547 46.4318 49.6347 46.2387 49.0247C46.0831 48.5304 45.5881 48.4197 45.9044 47.7568C46.0982 47.3504 46.2726 46.9361 46.4275 46.514C46.5565 46.1618 46.7698 45.9425 47.1365 45.9118C48.2324 45.8218 48.0811 44.9026 48.0516 44.1247C48.03 43.579 47.7742 43.2626 47.2151 43.2283C46.6559 43.1947 46.4996 42.8897 46.3158 42.3754C46.2013 42.0533 46.0665 41.7383 45.9116 41.4311C45.7783 41.1676 45.7423 40.9618 45.8424 40.7011C45.9044 40.5376 46.0644 40.389 46.1436 40.2447C46.5248 39.5483 45.8785 39.1511 45.457 38.7026Z" fill="#D7171F"/>
<path d="M39.9874 46.969C41.3237 46.969 42.4069 45.8951 42.4069 44.5704C42.4069 43.2457 41.3237 42.1718 39.9874 42.1718C38.6511 42.1718 37.5678 43.2457 37.5678 44.5704C37.5678 45.8951 38.6511 46.969 39.9874 46.969Z" fill="#D7171F"/>
<path d="M26.1712 30.8526C25.3872 30.8526 25.0046 30.2611 25.0025 29.5461C25.0003 28.7268 25.0017 27.9076 25.0068 27.0897C25.0161 25.6683 25.9096 24.4497 27.2981 24.0997C27.5596 24.0333 27.9905 24.0004 28.5921 24.0004C36.3472 23.9997 44.1031 23.9997 51.8582 24.0019C53.2661 24.0026 54.496 24.8883 54.8613 26.2469C55.0797 27.0597 54.9745 28.3254 54.9759 29.279C54.9773 29.9726 54.9125 30.4904 54.2633 30.7597C54.1069 30.8247 53.8771 30.8568 53.573 30.8568C44.4388 30.8568 35.3054 30.8554 26.1712 30.8526ZM30.7602 27.4276C30.7602 26.7983 30.2458 26.2883 29.611 26.2883C28.9762 26.2883 28.4617 26.7983 28.4617 27.4276C28.4617 28.0568 28.9762 28.5668 29.611 28.5668C30.2458 28.5668 30.7602 28.0568 30.7602 27.4276ZM45.7432 27.3428C45.7387 26.754 45.2538 26.2797 44.6599 26.2838L43.3673 26.2928C42.773 26.2969 42.2952 26.7776 42.2991 27.3666L42.3001 27.5138C42.3046 28.1026 42.7895 28.5768 43.3834 28.5727L44.676 28.5638C45.2703 28.5597 45.748 28.079 45.7442 27.4899L45.7432 27.3428ZM51.5074 27.3428C51.5029 26.754 51.018 26.2797 50.4242 26.2838L49.1316 26.2928C48.5372 26.2969 48.0595 26.7776 48.0634 27.3666L48.0644 27.5138C48.0689 28.1026 48.5538 28.5768 49.1476 28.5727L50.4402 28.5638C51.0346 28.5597 51.5123 28.079 51.5085 27.4899L51.5074 27.3428Z" fill="#256AC5"/>
</svg>
