<svg width="80" height="80" viewBox="0 0 80 80" fill="none" xmlns="http://www.w3.org/2000/svg">
<circle cx="40" cy="40" r="40" fill="#ECF1F6"/>
<path d="M32.4632 36.7601C32.0345 37.208 31.4393 37.0848 31.4393 36.414C31.4399 33.1943 31.4393 29.9739 31.4386 26.7543C31.4386 26.0212 31.6178 25.4166 32.3254 25.1401C32.5361 25.0577 32.8872 25.0169 33.3781 25.0169C34.2824 25.0169 35.2515 24.9252 35.6247 25.9656C35.6882 26.1417 35.7196 26.4128 35.7196 26.7777C35.7196 29.2502 35.7196 31.7227 35.7196 34.1952C35.719 34.4329 35.5217 34.5788 35.3043 34.69C34.1887 35.257 33.2417 35.9473 32.4632 36.7601Z" fill="#256AC5"/>
<path d="M44.281 26.3787C44.281 25.6489 44.9244 25.114 45.5966 25.0316C45.8996 24.9948 46.363 24.9901 46.987 25.0176C47.6819 25.0491 48.225 25.2928 48.4658 25.9636C48.5293 26.1397 48.5607 26.4122 48.5607 26.7804C48.5614 29.9519 48.5607 33.1227 48.5601 36.2935C48.5601 36.9362 48.0203 37.1565 47.5635 36.7072C46.6694 35.8268 45.6541 35.1165 44.5178 34.5768C44.3479 34.4958 44.281 34.2394 44.281 34.0406C44.2804 31.4864 44.2804 28.9329 44.281 26.3787Z" fill="#256AC5"/>
<path d="M27.8837 25.0275L26.4752 25.0251C25.6818 25.0237 25.0374 25.6664 25.0361 26.4607L25 47.1444C24.9986 47.9387 25.6407 48.5837 26.4341 48.585L27.8426 48.5875C28.636 48.5889 29.2803 47.9462 29.2817 47.1519L29.3178 26.4681C29.3192 25.6739 28.6771 25.0289 27.8837 25.0275Z" fill="#256AC5"/>
<path d="M38.6524 33.6938C38.1661 33.754 37.8598 33.6215 37.8605 33.0818C37.8605 30.9977 37.8598 28.9128 37.8585 26.8279C37.8585 26.4416 37.8899 26.1578 37.9528 25.975C38.334 24.875 39.3693 25.031 40.323 25.0216C41.1102 25.0142 41.7703 25.1729 42.0499 25.987C42.1108 26.1658 42.1415 26.4303 42.1415 26.7818C42.1395 28.8405 42.1395 30.8986 42.1409 32.9573C42.1409 33.4963 41.9643 33.758 41.4078 33.6904C40.4896 33.5786 39.5713 33.5793 38.6524 33.6938Z" fill="#256AC5"/>
<path d="M53.5652 25.0275L52.1581 25.0251C51.3643 25.0237 50.7197 25.6667 50.7183 26.4613L50.6822 47.1438C50.6809 47.9384 51.3232 48.5837 52.117 48.585L53.5242 48.5875C54.3179 48.5889 54.9626 47.9459 54.9639 47.1512L55 26.4688C55.0014 25.6742 54.359 25.0289 53.5652 25.0275Z" fill="#256AC5"/>
<path d="M29.6522 51.8255C30.3892 50.4537 32.3334 49.8551 32.207 48.024C32.1702 47.4958 31.8887 46.9582 31.7602 46.4179C31.2392 44.2185 31.4981 42.1491 32.5367 40.2102C35.3524 34.9545 42.6498 34.194 46.5422 38.6917C48.2444 40.6587 48.9928 43.3 48.4932 45.8869C47.5073 50.9933 42.2645 54.0228 37.3274 52.3999C37.0117 52.2968 36.6927 52.1663 36.377 52.1388C35.0361 52.0203 34.277 53.1042 33.4443 53.9378C33.0016 54.3817 32.6772 54.6582 32.4712 54.768C31.7228 55.1677 30.6815 55.0465 30.0528 54.4406C29.3532 53.7657 29.1954 52.6758 29.6522 51.8255ZM36.8693 41.4387C35.4955 42.9639 35.0668 45.3694 36.5864 46.9863C36.9014 47.3217 37.4317 47.8573 37.8638 48.1278C40.1197 49.5411 43.1367 48.18 44.0208 45.8314C44.604 44.2821 44.2509 42.5474 43.1139 41.3517C41.4125 39.5634 38.5353 39.5882 36.8693 41.4387Z" fill="#D7171F"/>
</svg>
