<svg width="8" height="8" viewBox="0 0 8 8" fill="none" xmlns="http://www.w3.org/2000/svg">
<path d="M4.05725 0.847999C4.40925 0.847999 4.53725 0.999999 4.44125 1.304L4.17725 3.392L6.07325 2.48C6.36125 2.336 6.56125 2.416 6.67325 2.72L6.91325 3.488C7.00925 3.824 6.89725 4 6.57725 4.016L4.51325 4.4L5.95325 5.912C6.19325 6.152 6.17725 6.36 5.90525 6.536L5.25725 7.016C4.96925 7.208 4.76125 7.16 4.63325 6.872L3.64925 5.072L2.66525 6.872C2.53725 7.16 2.32925 7.216 2.04125 7.04L1.39325 6.536C1.10525 6.344 1.08925 6.136 1.34525 5.912L2.80925 4.4L0.74525 4.016C0.42525 3.968 0.31325 3.792 0.40925 3.488L0.64925 2.72C0.77725 2.416 0.97725 2.336 1.24925 2.48L3.12125 3.392L2.85725 1.304C2.79325 0.999999 2.92125 0.847999 3.24125 0.847999H4.05725Z" fill="#D7171F"/>
</svg>
