<svg width="8" height="7" viewBox="0 0 8 7" fill="none" xmlns="http://www.w3.org/2000/svg">
<path d="M3.934 1.452C3.83133 1.34933 3.83133 1.242 3.934 1.13L4.214 0.85C4.31667 0.728666 4.424 0.728666 4.536 0.85L7.35 3.664C7.44333 3.776 7.44333 3.88333 7.35 3.986L4.578 6.758C4.466 6.86067 4.354 6.86067 4.242 6.758L3.948 6.464C3.836 6.352 3.836 6.24467 3.948 6.142L6.286 3.804L3.934 1.452ZM0.728 1.452C0.625333 1.34 0.625333 1.23267 0.728 1.13L1.008 0.85C1.12 0.747333 1.22733 0.747333 1.33 0.85L4.144 3.664C4.23733 3.776 4.23733 3.88333 4.144 3.986L1.372 6.758C1.26 6.86067 1.148 6.86067 1.036 6.758L0.742 6.464C0.639333 6.352 0.639333 6.24467 0.742 6.142L3.08 3.804L0.728 1.452Z" fill="#D7171F"/>
</svg>
