<svg width="140" height="39" viewBox="0 0 140 39" fill="none" xmlns="http://www.w3.org/2000/svg">
<g id="logo" clip-path="url(#clip0_569_105640)">
<path id="Vector" d="M88.5741 8.32275H74.545C73.3414 8.32275 72.3867 9.2475 72.3867 10.4135V36.9094C72.3867 38.0753 73.3414 39.0001 74.545 39.0001H78.8617C80.0653 39.0001 81.02 38.0753 81.02 36.9094V16.6454H88.6156C90.9814 16.6454 92.8907 18.4949 92.8907 20.7867V36.9094C92.8907 38.0753 93.8454 39.0001 95.049 39.0001H99.3657C100.569 39.0001 101.524 38.0753 101.524 36.9094V20.7867C101.441 13.9114 95.6716 8.32275 88.5741 8.32275Z" fill="#081A32"/>
<path id="Vector_2" d="M107.875 14.5546V36.9092C107.875 38.0752 108.83 39 110.033 39H114.35C115.554 39 116.508 38.0752 116.508 36.9092V14.5546C116.508 13.3886 115.554 12.4639 114.35 12.4639H110.033C108.871 12.5041 107.875 13.4288 107.875 14.5546Z" fill="#081A32"/>
<path id="Vector_3" d="M114.35 0H110.033C108.83 0 107.875 0.924742 107.875 2.09072V6.27217C107.875 7.43815 108.83 8.36289 110.033 8.36289H114.35C115.554 8.36289 116.508 7.43815 116.508 6.27217V2.09072C116.508 0.924742 115.512 0 114.35 0Z" fill="#081A32"/>
<path id="Vector_4" d="M131.532 16.6454H137.882C139.086 16.6454 140.04 15.7206 140.04 14.5546V10.4134C140.04 9.24742 139.086 8.32268 137.882 8.32268H131.532V2.09072C131.532 0.924742 130.577 0 129.373 0H125.057C123.853 0 122.898 0.924742 122.898 2.09072V26.5361C122.898 33.4113 128.668 39 135.765 39H137.841C139.044 39 139.999 38.0753 139.999 36.9093V32.7278C139.999 31.5619 139.044 30.6371 137.841 30.6371H135.765C133.399 30.6371 131.49 28.7876 131.49 26.4959V16.6454H131.532Z" fill="#081A32"/>
<path id="Vector_5" d="M56.0342 8.32275H40.2619C39.0582 8.32275 38.1036 9.2475 38.1036 10.4135V14.5949C38.1036 15.7609 39.0582 16.6856 40.2619 16.6856H56.0342C56.7398 16.6856 57.3624 17.2485 57.3624 17.9722V20.063H45.5332C40.8015 20.063 36.9414 23.8021 36.9414 28.3856V30.7176C36.9414 35.3011 40.8015 39.0403 45.5332 39.0403H63.8373C65.041 39.0403 65.9957 38.1155 65.9957 36.9496V17.932C65.9542 12.6248 61.513 8.32275 56.0342 8.32275ZM44.8276 30.2351V28.7073C44.8276 28.1042 45.3256 27.6217 45.9482 27.6217H57.3624V31.3609H45.9482C45.3256 31.3207 44.8276 30.8382 44.8276 30.2351Z" fill="#081A32"/>
<path id="Vector_6" d="M27.145 38.8402H4.52416C2.0338 38.8402 0 36.8701 0 34.4577V12.5453C0 10.1329 2.0338 8.16284 4.52416 8.16284H27.145C29.6353 8.16284 31.6691 10.1329 31.6691 12.5453V34.4577C31.6691 36.8701 29.6353 38.8402 27.145 38.8402Z" fill="#D7171F"/>
<path id="Vector_7" d="M27.1019 23.6412C27.1019 17.6102 22.0382 12.7051 15.8123 12.7051C11.5786 12.7051 7.88459 14.9566 5.97531 18.2937C5.72628 18.736 6.05833 19.2989 6.5564 19.2989H10.2504C10.541 19.2989 10.8315 19.1783 10.9975 19.0174C12.2427 17.8113 13.903 17.0876 15.7707 17.0876C19.5063 17.0876 22.5362 20.0226 22.5362 23.6412V23.6814V23.802C22.4947 27.3401 19.5063 30.1948 15.8123 30.1948C13.986 30.1948 12.2842 29.4711 11.0806 28.3051C10.873 28.104 10.624 28.0236 10.3335 28.0236H6.5979C6.05833 28.0236 5.72628 28.5865 6.01682 29.0288C7.9676 32.3659 11.6201 34.5772 15.8123 34.5772C18.3441 34.5772 20.71 33.7731 22.5777 32.3659V33.4917C22.5777 34.0948 23.0758 34.5772 23.6984 34.5772H25.9397C26.5623 34.5772 27.0604 34.0948 27.0604 33.4917L27.1019 23.6412Z" fill="white"/>
<path id="Vector_8" d="M15.8127 21.4702H4.52301C3.90042 21.4702 3.40234 21.9527 3.40234 22.5558V24.7671C3.40234 25.3702 3.90042 25.8527 4.52301 25.8527H15.8127C16.4353 25.8527 16.9333 25.3702 16.9333 24.7671V22.5558C16.9333 21.9527 16.4353 21.4702 15.8127 21.4702Z" fill="white"/>
</g>
<defs>
<clipPath id="clip0_569_105640">
<rect width="140" height="39" fill="white"/>
</clipPath>
</defs>
</svg>
