<svg width="48" height="48" viewBox="0 0 48 48" fill="none" xmlns="http://www.w3.org/2000/svg">
<path d="M27.9601 10.2255C28.4119 10.6249 28.864 11.0235 29.3165 11.4214C30.1379 12.1438 30.6659 12.7452 30.3253 13.7992C29.9777 14.8741 28.6978 15.3708 27.6749 14.888C27.4989 14.8058 27.2589 14.6294 26.9549 14.3587C25.2265 12.8255 23.5047 11.2857 21.7897 9.73924C20.6041 8.67133 20.7114 7.40333 22.0065 6.50177C23.8237 5.23532 25.6444 3.97352 27.4687 2.71638C28.021 2.33559 28.4358 2.1134 28.7132 2.04981C30.4455 1.65545 31.7018 3.69007 30.6282 5.07556C30.1992 5.62929 29.2293 6.14813 28.633 6.57622C28.5835 6.61112 28.589 6.63167 28.6495 6.63788C33.9255 7.13112 41.8071 9.05871 44.4363 14.2191C45.8386 16.9715 44.461 20.3556 42.0958 22.1377C40.391 23.4228 38.5239 24.4089 36.4946 25.096C35.9211 25.2899 34.8514 25.5931 33.2856 26.0057C32.8786 26.1127 32.4976 26.1651 32.1425 26.1628C30.2381 26.15 29.4827 23.8268 31.0453 22.7717C31.2268 22.6492 31.5104 22.5437 31.8962 22.4553C34.6102 21.8329 37.1156 21.0163 39.3453 19.4051C40.3328 18.692 40.9244 17.958 41.1648 16.8238C41.3711 15.8547 40.4448 14.6914 39.7318 14.1202C36.5712 11.5854 31.8962 10.5861 27.9778 10.186C27.9307 10.1805 27.9248 10.1937 27.9601 10.2255Z" fill="#256AC5"/>
<path d="M8.17434 19.0319C8.94624 19.6775 9.41291 20.0125 9.29506 21.0211C9.12654 22.4461 7.48494 23.122 6.2994 22.3484C4.14163 20.9408 2.74868 18.413 3.04565 15.8444C3.58539 11.1737 9.54254 8.57841 13.4645 7.48607C13.9744 7.34414 14.3684 7.29296 14.6465 7.33251C16.2952 7.5675 16.7701 9.68587 15.4525 10.6596C15.2726 10.7922 14.9639 10.9205 14.5263 11.0446C12.2247 11.6984 7.44015 13.4992 6.83678 16.0771C6.58812 17.138 7.39537 18.3816 8.17434 19.0319Z" fill="#256AC5"/>
<path d="M18.4442 23.5628C17.6994 23.0626 16.5009 22.4006 16.092 21.7352C15.2376 20.3427 16.561 18.6187 18.1378 18.9922C18.4293 19.0612 18.8115 19.2597 19.2844 19.5878C21.1378 20.8728 22.9911 22.1567 24.8444 23.4395C26.0312 24.2608 26.2939 25.5602 25.1544 26.585C22.3567 29.0985 20.5175 30.7435 19.6368 31.5198C17.7571 33.1763 15.1975 30.4623 17.1219 28.7453C17.6271 28.2939 18.1397 27.841 18.6598 27.3866C18.6639 27.3832 18.6668 27.3787 18.6679 27.3735C18.6691 27.3684 18.6684 27.3631 18.6661 27.3584C18.6638 27.3537 18.6599 27.3499 18.6552 27.3476C18.6504 27.3453 18.645 27.3447 18.6398 27.3458C16.1509 27.7611 13.8434 28.252 11.5136 29.2257C9.50551 30.0656 5.29014 32.3329 7.32888 35.1225C8.46257 36.6732 10.5119 37.6969 12.3291 38.3542C16.792 39.9665 21.639 40.4819 26.3552 40.1875C29.8317 39.9712 33.208 39.3535 36.3922 38.0878C38.1364 37.3933 40.1704 36.1869 41.026 34.5444C41.6329 33.3787 40.6159 31.7071 39.6613 31.0335C37.467 29.4828 39.5717 26.4652 41.825 28.0054C44.2255 29.6457 45.7422 32.8785 44.5991 35.7146C43.3098 38.9137 39.7756 40.9239 36.6645 42.0174C30.8252 44.0695 24.5062 44.3685 18.2816 43.6402C13.345 43.0632 4.6243 40.668 3.19364 35.069C1.85726 29.8411 7.73074 26.4594 11.8188 25.1053C13.977 24.391 16.1796 23.9005 18.4265 23.6337C18.4346 23.6326 18.4422 23.6291 18.4482 23.6237C18.4543 23.6184 18.4586 23.6113 18.4606 23.6036C18.4625 23.5959 18.4619 23.5878 18.459 23.5805C18.4561 23.5732 18.4509 23.567 18.4442 23.5628Z" fill="#D7171F"/>
</svg>
