<svg width="80" height="80" viewBox="0 0 80 80" fill="none" xmlns="http://www.w3.org/2000/svg">
<circle cx="40" cy="40" r="40" fill="#ECF1F6"/>
<path d="M41.4337 54.8228C41.1858 54.6489 41.134 54.3985 41.134 54.0852C41.1324 47.158 41.1324 40.2309 41.134 33.3037C41.1347 29.1365 44.3098 25.6042 48.5016 25.0712C48.8402 25.0282 49.3476 25.0057 50.0239 25.0037C51.3561 24.9997 52.6887 24.9989 54.0219 25.0014C55.3734 25.0037 56.5502 25.8268 56.895 27.1109C56.9626 27.3613 56.9964 27.7721 56.9964 28.3433C56.998 34.6508 56.999 40.9583 56.9995 47.2657C56.9995 48.6008 56.1445 49.765 54.8106 50.0956C54.566 50.1561 54.162 50.1866 53.5986 50.1871C52.2721 50.1886 50.9452 50.1898 49.6181 50.1908C46.8053 50.1931 44.2862 51.6519 42.8775 54.038C42.5724 54.5537 42.1971 55.3596 41.4337 54.8228ZM45.4172 31.9566C44.6736 32.3149 44.6408 33.273 45.1007 33.806C45.5316 34.3045 46.0731 34.258 46.6497 34.0114C47.567 33.62 48.5311 33.4154 49.5419 33.3974C50.3496 33.3832 51.8452 33.6823 52.0824 32.4641C52.2395 31.659 51.7262 31.0225 50.8758 30.9986C48.8799 30.9446 47.1852 31.1035 45.4172 31.9566ZM45.4172 36.7535C44.3228 37.279 44.7499 38.9552 45.9511 38.9965C46.2699 39.0069 46.5994 38.833 46.9075 38.7123C48.1858 38.2146 49.3306 38.1801 50.6783 38.1973C50.9549 38.2003 51.1738 38.1718 51.335 38.1119C52.5919 37.6419 52.2738 35.827 50.8758 35.7962C48.8547 35.7528 47.1981 35.8967 45.4172 36.7535ZM45.5072 41.5085C44.409 42.0205 44.624 43.6854 45.8794 43.7919C46.363 43.8331 47.0258 43.4358 47.5154 43.2934C48.5572 42.9905 49.4748 42.9905 50.5074 42.9928C50.9442 42.9938 51.249 42.957 51.4219 42.8826C52.3844 42.4695 52.328 41.0722 51.3723 40.6906C50.8674 40.4897 49.7158 40.5902 49.3176 40.6014C48.0002 40.6359 46.7301 40.9383 45.5072 41.5085Z" fill="#256AC5"/>
<path d="M30.4373 25.0058C34.7713 25.0208 38.2854 28.1824 38.8034 32.3734C38.8456 32.717 38.8667 33.2164 38.8667 33.8716C38.8656 40.5725 38.8654 47.2736 38.8659 53.975C38.8659 54.2831 38.8326 54.5022 38.766 54.6322C38.5684 55.0171 37.9552 55.1304 37.6203 54.825C37.5516 54.763 37.4566 54.6247 37.335 54.4101C36.0452 52.1353 33.9681 50.5605 31.3076 50.2634C31.0015 50.2294 30.494 50.2114 29.7851 50.2094C28.5148 50.2064 27.2448 50.2047 25.975 50.2042C24.6242 50.2034 23.4419 49.3796 23.1001 48.0922C23.0345 47.8436 23.0015 47.4227 23.001 46.8295C22.9995 40.5217 22.9997 34.214 23.0017 27.9063C23.0025 26.2602 24.274 25.0028 25.9758 25.0005C27.4627 24.999 28.9498 25.0008 30.4373 25.0058ZM33.1695 31.4085C31.9071 31.0409 30.75 30.9734 29.4121 30.9944C29.0287 31.0004 28.7421 31.0459 28.5524 31.1309C27.6486 31.5376 27.6569 32.9091 28.5921 33.2984C28.7609 33.3685 29.0421 33.4025 29.4357 33.4005C30.6051 33.3937 31.7919 33.4162 32.7774 33.8011C33.181 33.9587 33.6974 34.2303 34.0963 34.21C35.3282 34.1477 35.5822 32.5204 34.5707 31.9435C34.2677 31.7709 33.8006 31.5926 33.1695 31.4085ZM34.1993 36.5779C32.6051 35.9056 31.0665 35.7668 29.3084 35.8021C28.9992 35.8086 28.7787 35.8343 28.647 35.8794C27.6051 36.2395 27.6417 37.7903 28.6836 38.1362C29.197 38.3072 30.242 38.1969 30.6607 38.2097C31.6394 38.2389 32.5639 38.4948 33.515 38.8902C34.3884 39.254 35.2054 38.6883 35.2023 37.7858C35.2 37.1375 34.7942 36.8277 34.1993 36.5779ZM34.1993 41.3795C32.5921 40.7051 31.1161 40.5865 29.3183 40.5985C29.0299 40.6005 28.8011 40.6355 28.6318 40.7036C27.6661 41.0929 27.6112 42.4794 28.5845 42.8996C29.0864 43.1157 30.2328 42.9949 30.6989 43.0106C31.6508 43.0436 32.5768 43.3002 33.5143 43.6919C34.3884 44.0565 35.2046 43.49 35.2023 42.5875C35.2008 41.9392 34.795 41.6294 34.1993 41.3795Z" fill="#D7171F"/>
</svg>
