<svg width="80" height="80" viewBox="0 0 80 80" fill="none" xmlns="http://www.w3.org/2000/svg">
<circle cx="40" cy="40" r="40" fill="#ECF1F6"/>
<path d="M32.2402 28.8297C33.308 29.861 34.3639 30.9049 35.4079 31.9614C36.7218 33.2919 36.838 35.2555 35.7388 36.7781C35.5635 37.0202 35.2105 37.2972 35.0678 37.6092C34.7702 38.2604 35.0298 38.6991 35.4997 39.2152C36.7881 40.629 38.1363 41.9833 39.5441 43.2782C39.954 43.6552 40.2106 43.8715 40.3138 43.9271C41.0858 44.3438 41.5382 43.8436 42.1083 43.3784C43.606 42.1549 45.6547 42.2247 47.0294 43.5856C47.9919 44.5379 48.9486 45.4957 49.8995 46.4592C50.2669 46.8311 50.5242 47.1418 50.6715 47.3912C51.5224 48.8349 51.2621 50.6664 50.0695 51.8671C49.4304 52.5112 48.7887 53.1534 48.1445 53.7935C45.7906 56.1335 42.2092 56.7012 39.3057 55.0678C38.9986 54.8953 38.5816 54.6099 38.0548 54.2117C32.9694 50.3691 28.5116 45.9008 24.6812 40.8069C24.2977 40.2973 24.0181 39.8763 23.8425 39.5439C22.5323 37.065 22.7699 34.0244 24.4186 31.7823C24.6241 31.5025 24.9588 31.124 25.4229 30.6468C26.3889 29.654 27.0192 29.0288 27.3137 28.7713C28.7416 27.5227 30.8511 27.4886 32.2402 28.8297Z" fill="#256AC5"/>
<path fill-rule="evenodd" clip-rule="evenodd" d="M40.8126 36.4597C41.1964 38.015 42.6425 39.0976 44.2915 39.0976L51.8227 39.0947C52.501 39.0942 52.9884 39.0597 53.2849 38.9912C54.9141 38.6148 55.9985 37.1996 55.9992 35.5746C56.0002 32.7178 55.9997 29.8608 55.9978 27.0036C55.9973 26.3738 55.9607 25.9152 55.8882 25.6279C55.4927 24.0575 54.0628 23.0022 52.4145 23.0036C49.9521 23.0051 47.4895 23.0039 45.0267 23C44.342 22.9991 43.8536 23.0271 43.5614 23.0841C41.811 23.4253 40.7119 24.842 40.7097 26.5769C40.7067 29.3953 40.7062 32.2133 40.7082 35.0308C40.7087 35.7018 40.7435 36.1781 40.8126 36.4597ZM50.6587 27.0392C51.7645 28.4218 51.4075 30.6919 49.4782 31.5373C49.4755 31.5384 49.4731 31.5397 49.4707 31.541C49.4545 31.5504 49.4459 31.5647 49.4451 31.584C49.4451 31.584 49.4451 31.584 49.4451 31.584C49.4351 31.7844 49.3895 31.9581 49.3178 32.1052C48.8156 33.1355 47.0286 32.8687 47.1418 31.4123C47.2051 30.592 47.593 29.9764 48.3055 29.5654C48.3318 29.5503 48.3585 29.5354 48.3857 29.5208C48.411 29.5071 48.4352 29.4938 48.4584 29.4806C48.6205 29.3887 48.7301 29.3094 48.7871 29.2428C48.7871 29.2428 48.7871 29.2428 48.7871 29.2428C48.8529 29.1661 48.8957 29.0872 48.9191 29.0088C48.9426 28.9305 48.9467 28.8528 48.9352 28.7785C48.8662 28.3329 48.2352 28.0118 47.8431 28.431C47.8345 28.4402 47.826 28.45 47.8178 28.4602C47.7598 28.5315 47.7104 28.6255 47.6593 28.7226C47.6512 28.7381 47.643 28.7536 47.6348 28.7691C47.577 28.8779 47.5151 28.9868 47.4351 29.0689C47.4351 29.0689 47.4351 29.0689 47.4351 29.0689C46.7486 29.7747 45.7499 29.3875 45.4957 28.637C45.411 28.3868 45.409 28.0962 45.5288 27.7924C45.8327 27.0213 46.4445 26.449 47.1779 26.1577C47.2202 26.1409 47.263 26.125 47.3061 26.11C47.309 26.109 47.3119 26.1081 47.3147 26.1071C47.8647 25.9185 48.4742 25.8846 49.0694 26.0381C49.759 26.216 50.2901 26.5783 50.6587 27.0392ZM49.5207 34.996C49.5208 35.0014 49.5208 35.0067 49.5208 35.0121C49.5208 35.0175 49.5208 35.0229 49.5207 35.0283C49.5165 35.3251 49.3963 35.5945 49.2026 35.7952C49.1947 35.8034 49.1868 35.8114 49.1787 35.8193C49.1705 35.8272 49.1623 35.8351 49.1539 35.8428C48.9473 36.0331 48.6698 36.1507 48.3642 36.1536C48.3603 36.1536 48.3565 36.1536 48.3526 36.1536C48.3488 36.1536 48.3449 36.1536 48.3411 36.1536C47.7012 36.1475 47.1844 35.6388 47.1844 35.0121C47.1844 34.3817 47.7074 33.8706 48.3526 33.8706C48.6544 33.8706 48.9294 33.9824 49.1367 34.1659C49.151 34.1785 49.165 34.1916 49.1787 34.2049C49.3864 34.408 49.5163 34.6872 49.5207 34.996Z" fill="#D7171F"/>
</svg>
