<svg width="80" height="80" viewBox="0 0 80 80" fill="none" xmlns="http://www.w3.org/2000/svg">
<circle cx="40" cy="40" r="40" fill="#ECF1F6"/>
<path d="M51.0833 27.1171C51.1136 27.143 51.1146 27.1698 51.0863 27.1976L45.121 33.1633C45.0993 33.1851 45.076 33.1868 45.0512 33.1686C41.993 30.9391 37.9885 30.9581 34.9364 33.1823C34.9307 33.1865 34.9236 33.1885 34.9165 33.188C34.9093 33.1874 34.9027 33.1843 34.8977 33.1792L28.9096 27.1916C28.8914 27.1733 28.8921 27.1561 28.9119 27.1399C35.3875 21.6109 44.5666 21.6367 51.0833 27.1171Z" fill="#D7171F"/>
<path d="M27.1425 51.092C21.6534 44.7421 21.585 35.2773 27.1425 28.9122C27.1582 28.894 27.1747 28.8932 27.1919 28.9099L33.1731 34.8915C33.18 34.8983 33.1843 34.9073 33.185 34.917C33.1857 34.9267 33.1828 34.9362 33.1769 34.9439C30.9457 37.9928 30.9457 42.0038 33.1754 45.0565C33.1895 45.0763 33.188 45.095 33.1708 45.1127L27.1888 51.0935C27.1859 51.0967 27.1822 51.0991 27.1782 51.1007C27.1742 51.1023 27.1699 51.1031 27.1656 51.1029C27.1612 51.1028 27.1569 51.1018 27.153 51.0999C27.149 51.098 27.1454 51.0953 27.1425 51.092Z" fill="#256AC5"/>
<path d="M46.8251 45.0564C49.0586 42.0128 49.0517 37.9783 46.819 34.9362C46.8094 34.9225 46.8104 34.9096 46.8221 34.8975L52.8101 28.9106C52.813 28.9076 52.8165 28.9053 52.8204 28.9037C52.8243 28.9022 52.8284 28.9015 52.8326 28.9016C52.8368 28.9018 52.841 28.9028 52.8448 28.9046C52.8486 28.9064 52.8521 28.9089 52.8549 28.9121C58.3919 35.281 58.3706 44.7314 52.8564 51.0889C52.8418 51.1061 52.8263 51.1066 52.8101 51.0904L46.8289 45.1103C46.8219 45.1034 46.8177 45.0941 46.817 45.0842C46.8163 45.0743 46.8192 45.0645 46.8251 45.0564Z" fill="#256AC5"/>
<path d="M51.0928 52.8584C44.703 58.4125 35.2755 58.351 28.9116 52.8509C28.8959 52.8372 28.8954 52.823 28.9101 52.8083L34.8898 46.829C34.909 46.8103 34.9295 46.8088 34.9513 46.8245C38.0133 49.0449 41.9889 49.0638 45.0508 46.8252C45.0726 46.809 45.0929 46.8105 45.1116 46.8298L51.0943 52.8121C51.0974 52.8153 51.0999 52.819 51.1015 52.8231C51.1031 52.8272 51.1039 52.8315 51.1037 52.8359C51.1036 52.8402 51.1025 52.8445 51.1007 52.8484C51.0988 52.8522 51.0961 52.8557 51.0928 52.8584Z" fill="#D7171F"/>
</svg>
