<svg width="80" height="80" viewBox="0 0 80 80" fill="none" xmlns="http://www.w3.org/2000/svg">
<circle cx="40" cy="40" r="40" fill="#ECF1F6"/>
<path d="M51.1597 52.4068C47.5093 52.4017 43.859 52.4003 40.2095 52.4032C39.4627 52.4039 38.9573 52.3827 38.6939 52.3409C36.9932 52.07 35.5893 50.7857 35.2394 49.1507C35.1772 48.86 35.1453 48.3745 35.1446 47.6935C35.1423 46.5974 35.1423 45.502 35.143 44.4059C35.1438 44.0076 35.1825 43.73 35.2607 43.5741C35.4876 43.1201 35.9065 43.03 36.4316 43.0308C37.6451 43.0315 38.8594 43.0308 40.0729 43.0279C40.7566 43.0264 41.2613 43.003 41.5854 42.9583C44.8813 42.5007 47.1762 39.8281 47.2915 36.6414C47.3075 36.2028 47.5518 36.0015 47.989 36.0015C49.3421 36.0015 50.6945 36.0007 52.0468 36C52.7435 35.9993 53.2474 36.0278 53.5593 36.0857C55.2464 36.3976 56.626 37.7024 56.9281 39.3741C56.9744 39.6311 56.9979 40.0711 56.9979 40.695C57.0002 45.5372 57.0002 50.3793 56.9987 55.2215C56.9987 55.9991 56.1145 56.2437 55.5697 55.7282C54.6309 54.8407 53.6921 53.9526 52.7541 53.0636C52.2532 52.5899 51.8374 52.4076 51.1597 52.4068Z" fill="#256AC5"/>
<path fill-rule="evenodd" clip-rule="evenodd" d="M26.4363 24.0912C24.794 24.4144 23.4618 25.6717 23.1164 27.2395C23.0511 27.5376 23.0164 28.0279 23.0141 28.7105C22.998 33.5583 22.9957 38.4068 23.0072 43.2546C23.008 43.4749 23.0295 43.6369 23.0734 43.7397C23.3026 44.2825 24.0072 44.3543 24.421 43.9638C25.4032 43.0356 26.3832 42.1038 27.3608 41.1698C27.8793 40.6735 28.3892 40.5678 29.1669 40.5678C31.0072 40.5674 32.8473 40.5672 34.6873 40.567C36.5274 40.5668 38.3675 40.5666 40.2078 40.5663C40.9086 40.5663 41.4193 40.5337 41.74 40.4679C43.7599 40.0545 45.1437 38.3691 45.1483 36.3885C45.1537 33.863 45.156 31.3374 45.1552 28.8118C45.1552 28.1351 45.1237 27.6441 45.0606 27.3394C44.6483 25.3492 42.8684 24.001 40.7709 24.0003C36.5026 23.9995 32.2352 24.0003 27.9685 24.0025C27.2454 24.0032 26.7347 24.0328 26.4363 24.0912ZM30.6693 32.421C30.6693 33.3512 29.9062 34.1052 28.965 34.1052C28.0238 34.1052 27.2607 33.3512 27.2607 32.421C27.2607 31.4909 28.0238 30.7368 28.965 30.7368C29.9062 30.7368 30.6693 31.4909 30.6693 32.421ZM35.782 32.421C35.782 33.3512 35.019 34.1052 34.0778 34.1052C33.1365 34.1052 32.3735 33.3512 32.3735 32.421C32.3735 31.4909 33.1365 30.7368 34.0778 30.7368C35.019 30.7368 35.782 31.4909 35.782 32.421ZM39.1906 34.1052C40.1318 34.1052 40.8948 33.3512 40.8948 32.421C40.8948 31.4909 40.1318 30.7368 39.1906 30.7368C38.2493 30.7368 37.4863 31.4909 37.4863 32.421C37.4863 33.3512 38.2493 34.1052 39.1906 34.1052Z" fill="#D7171F"/>
</svg>
