<svg width="80" height="80" viewBox="0 0 80 80" fill="none" xmlns="http://www.w3.org/2000/svg">
<circle cx="40" cy="40" r="40" fill="white"/>
<path d="M24.4656 48.3654C24.6916 48.0702 25.1012 47.7271 25.4027 47.3986C27.3385 45.292 28.4268 42.8284 28.667 40.0091C28.6945 39.6841 28.7086 39.2215 28.7086 38.6221C28.7093 37.4719 28.7108 36.3217 28.7129 35.1715C28.7185 31.7202 30.4665 28.3843 33.3147 26.3228C37.668 23.1737 43.7331 23.4904 47.6393 27.1646C49.8166 29.2129 51.0271 31.7313 51.2715 34.72C51.412 36.4398 51.2129 38.1901 51.3435 39.9105C51.5519 42.6519 52.5745 45.0732 54.4114 47.1749C54.5477 47.3312 54.8542 47.6472 55.3302 48.1223C55.7759 48.5668 55.874 48.9537 55.8204 49.5684C55.7737 50.1011 55.4588 50.5428 54.9538 50.7345C54.7808 50.8005 54.5096 50.8332 54.1402 50.8332C44.7416 50.8332 35.343 50.8332 25.9437 50.8332C25.5376 50.8332 25.2438 50.7991 25.0623 50.7318C24.1456 50.3887 23.9076 49.0975 24.4656 48.3654Z" fill="#D7171F"/>
<path d="M44.0246 54.2099C44.2516 54.4107 44.1812 54.609 43.999 54.8113C41.741 57.3123 38.198 57.2723 35.9648 54.7658C35.7123 54.482 35.8453 54.1676 36.1925 54.1676C38.7828 54.1668 41.3575 54.166 43.9151 54.1668C43.9563 54.1676 43.9926 54.1817 44.0246 54.2099Z" fill="#256AC5"/>
</svg>
