<svg width="48" height="48" viewBox="0 0 48 48" fill="none" xmlns="http://www.w3.org/2000/svg">
<path fill-rule="evenodd" clip-rule="evenodd" d="M44.9901 7.57319C44.9873 5.01768 43.0046 3.00141 40.452 3.00141C29.736 2.99953 19.02 2.99953 8.30396 3.00141C7.43153 3.00141 6.81033 3.0458 6.44036 3.13457C4.83736 3.51907 3.52122 4.82637 3.13406 6.43939C3.04719 6.80138 3.00376 7.42314 3.00376 8.30468C3.00126 14.0303 3.00094 19.7487 3.00282 25.4599C3.00282 25.4726 3.00786 25.4847 3.01682 25.4937C3.02579 25.5027 3.03795 25.5077 3.05063 25.5077H44.9498C44.963 25.5077 44.9756 25.5026 44.9849 25.4934C44.9942 25.4843 44.9995 25.4719 44.9995 25.459C44.9995 19.4983 44.9963 13.5364 44.9901 7.57319ZM3.01687 32.9614C3.03562 35.5272 5.00515 37.5097 7.57182 37.5106C18.3078 37.5125 29.0435 37.5125 39.7789 37.5106C40.6001 37.5106 41.1973 37.4644 41.5704 37.3718C43.6364 36.8617 44.9976 35.0292 44.9995 32.9154C45.0007 31.4543 44.9998 30.001 44.9967 28.5556C44.9967 28.5431 44.9917 28.5312 44.9829 28.5224C44.9741 28.5136 44.9622 28.5087 44.9498 28.5087H3.04968C3.03651 28.5087 3.02387 28.5139 3.01455 28.5232C3.00523 28.5325 3 28.5452 3 28.5584C3 30.0257 3.00562 31.4934 3.01687 32.9614ZM21.1615 11.9829C21.7043 10.6211 22.7939 9.94019 24.4303 9.94019C25.3701 9.94019 26.1154 10.2117 26.6662 10.7548C27.2252 11.2898 27.5047 11.9464 27.5047 12.7246C27.5047 13.6082 27.2738 14.2891 26.812 14.7673C26.3503 15.2375 25.4997 15.7158 24.2602 16.2021C24.2035 16.2264 24.1103 16.2589 23.9807 16.2994C23.8511 16.3399 23.7458 16.3764 23.6648 16.4088C23.5919 16.4412 23.5068 16.4818 23.4096 16.5304C23.3205 16.5709 23.2516 16.6196 23.203 16.6763C23.1625 16.7331 23.1422 16.7979 23.1422 16.8709V16.9681H26.8364C27.0227 16.9681 27.1523 17.0046 27.2252 17.0776C27.2981 17.1505 27.3346 17.2802 27.3346 17.4667V18.257C27.3346 18.4434 27.2981 18.5731 27.2252 18.6461C27.1523 18.719 27.0227 18.7555 26.8364 18.7555H21.5747C21.3884 18.7555 21.2587 18.719 21.1858 18.6461C21.121 18.5731 21.0886 18.4434 21.0886 18.257V17.3329C21.0886 16.9357 21.1494 16.5872 21.2709 16.2872C21.4005 15.9873 21.5909 15.732 21.842 15.5212C22.1013 15.3104 22.3402 15.1443 22.559 15.0227C22.7777 14.9011 23.0653 14.7673 23.4217 14.6214C24.1832 14.3215 24.6855 14.0743 24.9285 13.8797C25.2769 13.5879 25.4551 13.2312 25.4632 12.8097C25.4632 12.5098 25.362 12.2585 25.1594 12.0559C24.9569 11.8532 24.6896 11.7519 24.3574 11.7519C23.7336 11.7519 23.2921 12.0478 23.0329 12.6395C22.9438 12.8259 22.8587 12.9394 22.7777 12.98C22.6967 13.0205 22.5711 13.0124 22.401 12.9556L21.4653 12.6152C21.1413 12.5017 21.04 12.2909 21.1615 11.9829ZM19.2331 10.1226C19.4194 10.1226 19.5491 10.159 19.622 10.232C19.6949 10.305 19.7313 10.4347 19.7313 10.6211V11.3871C19.7313 11.5654 19.6949 11.6951 19.622 11.7762C19.5491 11.8492 19.4194 11.8856 19.2331 11.8856H15.5755V13.2961H17.544C18.3865 13.2961 19.0589 13.5433 19.5612 14.0378C20.0635 14.5242 20.3146 15.1889 20.3146 16.0319C20.3146 16.8668 20.0635 17.5315 19.5612 18.026C19.0589 18.5123 18.3865 18.7555 17.544 18.7555H14.0808C13.9026 18.7555 13.777 18.7231 13.7041 18.6583C13.6312 18.5853 13.5947 18.4597 13.5947 18.2813V10.6211C13.5947 10.4347 13.6312 10.305 13.7041 10.232C13.777 10.159 13.9066 10.1226 14.093 10.1226H19.2331ZM18.2731 16.0319C18.2731 15.732 18.184 15.4969 18.0058 15.3267C17.8276 15.1483 17.5805 15.0592 17.2645 15.0592H15.5755V16.9925H17.2645C17.5805 16.9925 17.8276 16.9073 18.0058 16.7371C18.184 16.5588 18.2731 16.3237 18.2731 16.0319ZM35.4211 15.3753C35.3482 15.3023 35.2186 15.2659 35.0323 15.2659H34.3518V10.6211C34.3518 10.4347 34.3153 10.305 34.2424 10.232C34.1695 10.159 34.0399 10.1226 33.8536 10.1226H32.9543C32.7842 10.1226 32.6505 10.1469 32.5533 10.1955C32.4561 10.2442 32.3508 10.3374 32.2374 10.4752L28.3975 15.1929C28.3083 15.2983 28.2516 15.3915 28.2273 15.4726C28.203 15.5455 28.1909 15.6671 28.1909 15.8373V16.4453C28.1909 16.6317 28.2273 16.7614 28.3002 16.8344C28.3732 16.9073 28.5028 16.9438 28.6891 16.9438H32.5047V18.257C32.5047 18.4434 32.5412 18.5731 32.6141 18.6461C32.687 18.719 32.8166 18.7555 33.0029 18.7555H33.8536C34.0399 18.7555 34.1695 18.719 34.2424 18.6461C34.3153 18.5731 34.3518 18.4434 34.3518 18.257V16.9438H35.0323C35.2186 16.9438 35.3482 16.9073 35.4211 16.8344C35.494 16.7614 35.5305 16.6317 35.5305 16.4453V15.7644C35.5305 15.5779 35.494 15.4483 35.4211 15.3753ZM30.4025 15.2659L32.5047 12.7003V15.2659H30.4025Z" fill="#D7171F"/>
<path d="M14.5925 45.003C13.4174 45.003 12.7203 43.7738 13.1372 42.6737C13.2041 42.498 13.3345 42.3005 13.5286 42.081C14.0733 41.465 14.5499 40.7882 14.9583 40.0507C14.9754 40.0202 15.0006 40.0049 15.034 40.0049H33.0024C33.0152 40.0049 33.0278 40.0086 33.0389 40.0155C33.0499 40.0225 33.0591 40.0325 33.0654 40.0445C33.422 40.7195 33.8448 41.3386 34.3339 41.9018C34.623 42.2352 34.8042 42.488 34.8776 42.6602C35.2326 43.4915 34.8295 44.5832 33.9907 44.8978C33.8019 44.9686 33.4974 45.004 33.0772 45.004C26.9156 45.0054 20.7541 45.0051 14.5925 45.003Z" fill="#256AC5"/>
</svg>
