<svg width="80" height="80" viewBox="0 0 80 80" fill="none" xmlns="http://www.w3.org/2000/svg">
<circle cx="40" cy="40" r="40" fill="#ECF1F6"/>
<path d="M34.6356 24.0071L28.0193 24.0186C25.7995 24.0225 24.0031 25.8251 24.007 28.0449L24.0186 34.6613C24.0224 36.8811 25.8251 38.6774 28.0449 38.6736L34.6612 38.662C36.881 38.6581 38.6773 36.8555 38.6735 34.6357L38.6619 28.0193C38.658 25.7996 36.8554 24.0032 34.6356 24.0071Z" fill="#256AC5"/>
<path d="M54.6728 30.0112H42.6458C41.9256 30.0112 41.3418 30.595 41.3418 31.3152V31.3652C41.3418 32.0853 41.9256 32.6691 42.6458 32.6691H54.6728C55.3929 32.6691 55.9767 32.0853 55.9767 31.3652V31.3152C55.9767 30.595 55.3929 30.0112 54.6728 30.0112Z" fill="#256AC5"/>
<path d="M34.6602 41.3378L28.0455 41.3263C25.8253 41.3225 24.0222 43.1192 24.0183 45.3395L24.0068 51.9542C24.0029 54.1744 25.7996 55.9774 28.0198 55.9813L34.6345 55.9928C36.8548 55.9966 38.6578 54.1999 38.6617 51.9797L38.6732 45.3649C38.6771 43.1447 36.8804 41.3417 34.6602 41.3378Z" fill="#D7171F"/>
<path d="M51.9795 41.3379L45.3648 41.3264C43.1446 41.3225 41.3416 43.1192 41.3377 45.3395L41.3262 51.9542C41.3223 54.1744 43.119 55.9774 45.3393 55.9813L51.9539 55.9928C54.1742 55.9967 55.9772 54.2 55.9811 51.9797L55.9926 45.365C55.9965 43.1448 54.1998 41.3418 51.9795 41.3379Z" fill="#D7171F"/>
</svg>
