<svg width="80" height="80" viewBox="0 0 80 80" fill="none" xmlns="http://www.w3.org/2000/svg">
<circle cx="40" cy="40" r="40" fill="#ECF1F6"/>
<path fill-rule="evenodd" clip-rule="evenodd" d="M54.7936 54.7364C54.7826 54.1116 54.7741 53.6224 55.2331 53.0472C55.8101 52.8077 56.4297 52.7143 57.0917 52.7678C57.48 52.7984 57.7239 52.6676 57.8183 52.2923C57.8321 52.2364 57.8504 52.1734 57.87 52.1059C57.9813 51.7217 58.1356 51.1892 57.7707 50.9661C57.6604 50.8986 57.5362 50.8291 57.4072 50.757C57.0105 50.5353 56.5689 50.2884 56.3489 49.9955C55.8383 49.3164 56.2237 48.6732 56.5602 48.1117C56.8241 47.6714 57.0578 47.2813 56.8061 46.9634C56.6939 46.8216 56.456 46.6102 56.0931 46.3283C55.7072 46.0287 55.2875 46.2881 54.8361 46.5672C54.1552 46.9881 53.402 47.4537 52.5834 46.1135C52.5397 46.0418 52.4957 45.9589 52.4495 45.8719C52.2379 45.4735 51.98 44.9878 51.4897 45.0861C51.4448 45.095 51.3949 45.1035 51.3417 45.1126L51.3415 45.1127C50.9065 45.1873 50.2493 45.3001 50.2659 45.9386C50.2812 46.5253 50.2234 47.1027 50.0934 47.6707C49.7934 48.0689 49.4076 48.2719 48.9351 48.2795C48.8341 48.2811 48.7181 48.2751 48.5951 48.2687C48.0611 48.2409 47.3949 48.2063 47.2457 48.7584C47.223 48.8427 47.1964 48.9267 47.17 49.0099C47.0276 49.4593 46.893 49.8838 47.4301 50.1976C47.532 50.2573 47.6361 50.3143 47.7398 50.3709L47.7398 50.371C48.2891 50.6712 48.8268 50.9652 48.964 51.6394C49.0281 52.1306 48.7164 52.6486 48.4444 53.1003C48.3775 53.2116 48.3129 53.3189 48.257 53.4208C48.0128 53.8665 48.2161 54.0794 48.5285 54.4065C48.5434 54.4221 48.5586 54.438 48.5739 54.4541C48.9615 54.8608 49.2249 55.0918 49.773 54.7564C50.1784 54.5076 50.6016 54.2953 51.0427 54.1196C51.9538 53.9872 52.3039 54.6274 52.615 55.1963C52.8766 55.6747 53.1107 56.1028 53.6278 55.9782C53.6956 55.9619 53.7673 55.9473 53.8405 55.9324C54.2877 55.8412 54.789 55.7389 54.7963 55.1631C54.7984 55.0131 54.7959 54.8716 54.7936 54.7364ZM50.2172 52.9625C50.2175 52.9625 50.2179 52.9627 50.2183 52.9631L50.2172 52.9625ZM51.301 49.92C51.4387 49.678 51.629 49.4878 51.8712 49.3502C52.4916 49.0327 53.2794 49.2254 53.6414 49.807C54.4487 51.1028 52.8723 52.5454 51.6537 51.585C51.1497 51.1885 51.0316 50.6332 51.301 49.92Z" fill="#256AC5"/>
<path d="M31.4634 38.5254C32.2211 42.3595 37.3783 42.5192 38.3097 38.6788C38.3484 40.0917 38.3608 41.5054 38.3476 42.9208C38.3458 43.0997 38.3097 43.2444 38.2383 43.354C37.8665 43.9258 37.2655 43.6013 36.6681 43.8092C36.2716 43.9478 36.0496 43.789 35.735 43.7653C35.417 43.7417 35.0689 43.7925 34.6892 43.9171C34.4618 43.9916 34.2213 43.8022 34.0222 43.7767C33.6847 43.7338 33.3437 43.7671 32.9983 43.8776C32.7904 43.9434 32.5991 43.9127 32.4238 43.7855C32.3983 43.7671 32.3701 43.7592 32.3392 43.761C32.0573 43.7776 31.7779 43.7575 31.5022 43.7004C31.4669 43.6934 31.4484 43.6715 31.4475 43.6355C31.4202 42.8164 31.4449 41.9386 31.4343 41.1861C31.4229 40.2978 31.4325 39.4111 31.4634 38.5254Z" fill="#D7171F"/>
<path d="M44.355 38.0202C44.2696 38.0641 44.177 38.0781 44.0766 38.0632C44.0475 38.0588 44.022 38.0658 43.9982 38.0834L43.6757 38.3298C43.6369 38.3596 43.6122 38.3508 43.6025 38.3026C43.5946 38.2623 43.6078 38.2298 43.6413 38.2061C43.829 38.0737 43.9409 37.9036 43.977 37.6957C43.9832 37.6633 43.9982 37.6352 44.0237 37.6133L44.2343 37.4353C44.2872 37.3897 44.2625 37.3037 44.1929 37.2932C43.7779 37.2301 43.3347 37.2151 43.0272 37.5195C42.8386 37.7063 42.6201 37.8527 42.3725 37.9597C42.3461 37.9711 42.324 37.9878 42.3073 38.0097C42.1963 38.1535 42.0544 38.2623 41.8808 38.3368C41.8341 38.357 41.7927 38.2991 41.8271 38.2614L42.1064 37.9553C42.1258 37.9343 42.1346 37.9097 42.132 37.8817C42.1135 37.6738 42.2016 37.5274 42.3945 37.4423C42.4368 37.4239 42.4324 37.3625 42.3884 37.3502C42.0377 37.2493 41.702 37.273 41.3812 37.4212C41.3504 37.4361 41.3301 37.4589 41.3196 37.4905C41.2729 37.6335 41.1865 37.7352 41.0588 37.7957C40.7239 37.9544 40.449 38.1772 40.1265 38.371C40.042 38.4219 39.945 38.3254 39.9961 38.2412L40.1926 37.9194C40.2041 37.9001 40.1979 37.8746 40.1785 37.8632C40.0296 37.7755 39.634 37.7905 39.6102 37.6668C39.6058 37.6396 39.5908 37.6194 39.5653 37.6063C39.3529 37.4932 38.7899 38.129 38.544 38.0579C38.4965 38.0439 38.4929 38.0229 38.5344 37.9957L38.6066 37.9483C38.6313 37.9316 38.6445 37.908 38.6471 37.8781C38.6604 37.6896 38.7493 37.5537 38.9141 37.4704C38.9397 37.4572 38.9547 37.437 38.9608 37.4098C38.9873 37.2827 38.8753 37.2643 38.7731 37.2792C38.5731 37.3081 38.3872 37.2625 38.2163 37.1432C37.1589 33.7528 32.5163 33.8449 31.5568 37.2309C31.5321 37.2336 31.5092 37.2406 31.4881 37.2537C31.4651 37.2686 31.4546 37.2888 31.4572 37.3151C31.4731 37.5274 30.9471 37.4756 30.7832 37.4695C30.755 37.4686 30.7303 37.4774 30.71 37.4967C30.4184 37.7694 30.0703 37.8931 29.7946 38.1921C29.7205 38.271 29.4218 38.4947 29.3857 38.2903C29.3813 38.264 29.3875 38.2403 29.4042 38.2193L29.6668 37.8931C29.6985 37.8536 29.6721 37.7948 29.621 37.7931C29.5355 37.7896 29.1875 37.7036 29.2791 37.551C29.2897 37.5326 29.2844 37.5221 29.2641 37.5195C29.1249 37.501 29.0033 37.5344 28.8985 37.6186C28.8711 37.6405 28.8429 37.6422 28.813 37.6247L28.7434 37.5852C28.7187 37.5712 28.6958 37.573 28.6746 37.5914C28.5839 37.6685 28.2288 38.0071 28.1698 37.7229C28.1671 37.7106 28.1707 37.7001 28.1795 37.6905C28.1847 37.6852 28.19 37.6799 28.1962 37.6738C28.2024 37.6677 28.1953 37.6501 28.1733 37.6203C28.1671 37.6115 28.1601 37.6063 28.153 37.6045C28.1363 37.6001 28.124 37.6054 28.1169 37.6221L28.0543 37.7755C28.0332 37.8273 28.0112 37.8282 27.9891 37.7764C27.8869 37.5352 27.642 37.594 27.4402 37.5414C27.4094 37.5335 27.3812 37.5379 27.3547 37.5563C27.2798 37.6072 27.2032 37.6168 27.1248 37.5852C27.093 37.5721 27.0613 37.5721 27.0287 37.5844L26.6252 37.7352C26.5749 37.7545 26.5582 37.7387 26.5767 37.6878C26.5996 37.6221 26.6366 37.5642 26.6877 37.5142C26.7168 37.4861 26.7115 37.4721 26.671 37.4721H26.582C26.5529 37.4721 26.5432 37.4581 26.5547 37.4309C26.5785 37.3704 26.5608 37.3327 26.5009 37.3169C26.1529 37.2248 25.811 37.2511 25.4753 37.3941C25.4665 37.3976 25.4612 37.3949 25.4595 37.3862C25.4498 37.3441 25.3987 37.3949 25.389 37.4063C25.2542 36.7863 24.9625 36.2522 24.514 35.8032C23.8576 35.1481 23.2029 34.4912 22.55 33.8344C21.8557 33.1372 21.8707 32.4935 22.3253 31.6717C22.661 31.0657 23.1148 30.0739 23.6206 29.7143C23.9977 29.4468 24.4488 29.3819 24.9731 29.5187C25.9855 29.7836 26.9979 30.0476 28.012 30.3107C28.1539 30.3466 28.3698 30.3624 28.6597 30.358C29.7575 30.3405 30.7391 29.7687 31.2889 28.8628C31.4502 28.5953 31.6185 28.1489 31.792 27.5218C31.9744 26.8597 32.1586 26.1985 32.3427 25.5372C32.652 24.4261 33.0626 24.0393 34.2169 24.0341C35.5509 24.0279 36.9765 23.6842 37.4435 25.3215C37.8198 26.6414 38.055 27.4833 38.1475 27.8463C38.5167 29.2863 39.6032 30.2993 41.1328 30.3554C41.4279 30.3659 41.8394 30.3045 42.369 30.1703C43.1426 29.9748 43.9153 29.7766 44.6872 29.5757C46.1869 29.1846 46.5631 30.0502 47.1852 31.1526C47.6619 31.9953 48.054 32.5084 47.6724 33.3091C47.5764 33.5099 47.3473 33.7888 46.9834 34.1457C45.6397 35.4629 44.4546 36.3329 44.355 38.0202Z" fill="#D7171F"/>
<path d="M38.2163 37.1432C38.3872 37.2625 38.5731 37.3081 38.7731 37.2792C38.8753 37.2643 38.9873 37.2827 38.9608 37.4098C38.9547 37.437 38.9397 37.4572 38.9141 37.4704C38.7493 37.5537 38.6604 37.6896 38.6471 37.8781C38.6445 37.908 38.6313 37.9316 38.6066 37.9483L38.5344 37.9957C38.4929 38.0229 38.4965 38.0439 38.544 38.0579C38.7899 38.129 39.3529 37.4932 39.5653 37.6063C39.5908 37.6194 39.6058 37.6396 39.6102 37.6668C39.634 37.7905 40.0296 37.7755 40.1785 37.8632C40.1979 37.8746 40.2041 37.9001 40.1926 37.9194L39.9961 38.2412C39.945 38.3254 40.042 38.4219 40.1265 38.371C40.449 38.1772 40.7239 37.9544 41.0588 37.7957C41.1865 37.7352 41.2729 37.6335 41.3196 37.4905C41.3301 37.4589 41.3504 37.4361 41.3812 37.4212C41.702 37.273 42.0377 37.2493 42.3884 37.3502C42.4324 37.3625 42.4368 37.4239 42.3945 37.4423C42.2016 37.5274 42.1135 37.6738 42.132 37.8817C42.1346 37.9097 42.1258 37.9343 42.1064 37.9553L41.8271 38.2614C41.7927 38.2991 41.8341 38.357 41.8808 38.3368C42.0544 38.2623 42.1963 38.1535 42.3073 38.0097C42.324 37.9878 42.3461 37.9711 42.3725 37.9597C42.6201 37.8527 42.8386 37.7063 43.0272 37.5195C43.3347 37.2151 43.7779 37.2301 44.1929 37.2932C44.2625 37.3037 44.2872 37.3897 44.2343 37.4353L44.0237 37.6133C43.9982 37.6352 43.9832 37.6633 43.977 37.6957C43.9409 37.9036 43.829 38.0737 43.6413 38.2061C43.6078 38.2298 43.5946 38.2623 43.6025 38.3026C43.6122 38.3508 43.6369 38.3596 43.6757 38.3298L43.9982 38.0834C44.022 38.0658 44.0475 38.0588 44.0766 38.0632C44.177 38.0781 44.2696 38.0641 44.355 38.0202C44.3577 38.9209 44.674 39.6882 45.3049 40.3241C45.9833 41.0072 46.6644 41.6878 47.3473 42.3674C48.409 43.4242 47.3587 44.6879 46.7948 45.6359C46.2503 46.5515 45.7357 46.84 44.6934 46.5673C43.8898 46.3568 43.0862 46.149 42.2817 45.9429C41.7311 45.8017 41.3143 45.7386 41.0314 45.7552C39.6243 45.8341 38.5247 46.8286 38.159 48.1511C37.9026 49.0764 37.648 50.0025 37.3933 50.9285C37.1774 51.7117 36.5783 52.0905 35.7923 52.0932C35.2125 52.0958 34.6328 52.0967 34.0521 52.0976C33.1736 52.0976 32.5895 51.7003 32.3612 50.8172C31.9128 49.0886 31.5982 47.9854 31.4167 47.5074C31.2334 47.0225 30.8818 46.6182 30.362 46.2928C29.5646 45.7938 28.7046 45.6596 27.783 45.892C27.0314 46.0823 26.2807 46.2744 25.5317 46.4691C24.9361 46.6243 24.5255 46.6892 24.3008 46.6638C23.8347 46.612 23.4628 46.363 23.1844 45.9175C22.943 45.5316 22.6469 45.0186 22.2954 44.3775C21.7764 43.4321 21.9649 42.8866 22.676 42.1605C23.2743 41.5492 23.8752 40.9397 24.4788 40.3319C25.2779 39.5269 25.581 38.5517 25.389 37.4063C25.3987 37.3949 25.4498 37.3441 25.4595 37.3862C25.4612 37.3949 25.4665 37.3976 25.4753 37.3941C25.811 37.2511 26.1529 37.2248 26.5009 37.3169C26.5608 37.3327 26.5785 37.3704 26.5547 37.4309C26.5432 37.4581 26.5529 37.4721 26.582 37.4721H26.671C26.7115 37.4721 26.7168 37.4861 26.6877 37.5142C26.6366 37.5642 26.5996 37.6221 26.5767 37.6878C26.5582 37.7387 26.5749 37.7545 26.6252 37.7352L27.0287 37.5844C27.0613 37.5721 27.093 37.5721 27.1248 37.5852C27.2032 37.6168 27.2798 37.6072 27.3547 37.5563C27.3812 37.5379 27.4094 37.5335 27.4402 37.5414C27.642 37.594 27.8869 37.5352 27.9891 37.7764C28.0112 37.8282 28.0332 37.8273 28.0543 37.7755L28.1169 37.6221C28.124 37.6054 28.1363 37.6001 28.153 37.6045C28.1601 37.6063 28.1671 37.6115 28.1733 37.6203C28.1953 37.6501 28.2024 37.6677 28.1962 37.6738C28.19 37.6799 28.1847 37.6852 28.1795 37.6905C28.1707 37.7001 28.1671 37.7106 28.1698 37.7229C28.2288 38.0071 28.5839 37.6685 28.6746 37.5914C28.6958 37.573 28.7187 37.5712 28.7434 37.5852L28.813 37.6247C28.8429 37.6422 28.8711 37.6405 28.8985 37.6186C29.0033 37.5344 29.1249 37.501 29.2641 37.5195C29.2844 37.5221 29.2897 37.5326 29.2791 37.551C29.1875 37.7036 29.5355 37.7896 29.621 37.7931C29.6721 37.7948 29.6985 37.8536 29.6668 37.8931L29.4042 38.2193C29.3875 38.2403 29.3813 38.264 29.3857 38.2903C29.4218 38.4947 29.7205 38.271 29.7946 38.1921C30.0703 37.8931 30.4184 37.7694 30.71 37.4967C30.7303 37.4774 30.755 37.4686 30.7832 37.4695C30.9471 37.4756 31.4731 37.5274 31.4572 37.3151C31.4546 37.2888 31.4651 37.2686 31.4881 37.2537C31.5092 37.2406 31.5321 37.2336 31.5568 37.2309C31.4784 37.658 31.4475 38.0895 31.4634 38.5254C31.4325 39.4111 31.4229 40.2978 31.4343 41.1861C31.4449 41.9386 31.4202 42.8164 31.4475 43.6355C31.4484 43.6715 31.4669 43.6934 31.5022 43.7004C31.7779 43.7575 32.0573 43.7776 32.3392 43.761C32.3701 43.7592 32.3983 43.7671 32.4238 43.7855C32.5991 43.9127 32.7904 43.9434 32.9983 43.8776C33.3437 43.7671 33.6847 43.7338 34.0222 43.7767C34.2213 43.8022 34.4618 43.9916 34.6892 43.9171C35.0689 43.7925 35.417 43.7417 35.735 43.7653C36.0496 43.789 36.2716 43.9478 36.6681 43.8092C37.2655 43.6013 37.8665 43.9258 38.2383 43.354C38.3097 43.2444 38.3458 43.0997 38.3476 42.9208C38.3608 41.5054 38.3484 40.0917 38.3097 38.6788C38.3749 38.1614 38.344 37.6493 38.2163 37.1432Z" fill="#D7171F"/>
<path d="M31.4722 44.7291L30.8995 41.7036V40.8704C33.2197 41.4843 37.8955 42.7209 38.0365 42.7559C38.1775 42.791 37.4491 43.9399 37.0673 44.5099L31.4722 44.7291Z" fill="#D7171F"/>
</svg>
