<svg width="40" height="40" viewBox="0 0 40 40" fill="none" xmlns="http://www.w3.org/2000/svg">
<g id="Group 16">
<g id="Vector">
<path d="M29.2303 5.05314C29.2158 5.02427 29.1779 5.01775 29.1554 5.04103C24.2471 10.1142 19.3462 15.1688 14.4506 20.2066C13.9685 20.7021 13.4431 21.0243 12.8067 20.8073C11.9906 20.5288 11.5374 19.6263 11.8832 18.7993C11.9545 18.6298 12.1152 18.4156 12.3652 18.1557C17.2744 13.0713 22.1889 7.99255 27.1079 2.91936C27.1341 2.89328 27.1305 2.87186 27.0989 2.85417C26.3126 2.4276 26.0274 1.46176 26.5031 0.701762C26.8877 0.0870551 27.4158 0.0199959 28.1488 0.0218586C28.9324 0.0246527 29.9796 -0.0777984 30.6304 0.13828C32.2662 0.681271 31.98 2.4248 31.9818 3.82838C31.9827 4.40863 31.9448 4.79981 31.8663 5.00284C31.3924 6.23785 29.8017 6.20525 29.2303 5.05314Z" fill="#256AC5"/>
<path d="M8.10889 22.4988C7.49517 23.1386 7.46364 24.1331 8.03845 24.7199C8.61326 25.3068 9.57675 25.2639 10.1905 24.624C10.8042 23.9842 10.8357 22.9897 10.2609 22.4029C9.68609 21.816 8.7226 21.859 8.10889 22.4988Z" fill="#256AC5"/>
<path d="M4.31285 26.4254C3.69592 27.0642 3.66016 28.0594 4.23299 28.6483C4.80581 29.2372 5.77029 29.1969 6.38722 28.5582C7.00415 27.9194 7.0399 26.9242 6.46708 26.3353C5.89426 25.7464 4.92978 25.7867 4.31285 26.4254Z" fill="#256AC5"/>
<path d="M2.55261 32.5028C3.17279 31.8696 3.2147 30.8759 2.64623 30.2832C2.07775 29.6905 1.11417 29.7233 0.493995 30.3565C-0.126177 30.9897 -0.168088 31.9834 0.400384 32.5761C0.968856 33.1688 1.93244 33.136 2.55261 32.5028Z" fill="#256AC5"/>
</g>
<g id="Vector_2">
<path d="M29.8436 40C28.8756 40.0009 28.4963 39.2689 28.4963 38.4134C28.4954 30.4329 28.4954 22.4524 28.4954 14.4728C28.4954 13.6505 28.5296 13.0554 28.597 12.6885C29.3169 8.81545 33.7334 6.76261 37.1667 8.80113C38.6092 9.65663 39.5979 11.067 39.899 12.7171C39.9655 13.0813 39.9987 13.6764 39.9987 14.5006C39.9996 22.6251 40.0005 30.7488 39.9996 38.8734C39.9987 39.6957 39.7695 40 38.9481 39.9991C35.9129 39.9991 32.8787 39.9991 29.8436 40Z" fill="#D7171F"/>
<path d="M20.7193 22.3943C23.1495 22.7433 25.0837 24.6476 25.5178 27.0369C25.5834 27.3939 25.6158 27.989 25.6167 28.8203C25.6202 32.1716 25.6211 35.5229 25.6185 38.8751C25.6176 39.6966 25.3893 40 24.5669 40C21.4455 39.9991 18.3241 39.9982 15.2026 39.9991C14.4719 39.9991 14.1151 39.7736 14.1151 39.0309C14.116 35.6026 14.1151 32.1752 14.1142 28.747C14.1133 27.9461 14.1511 27.3519 14.2275 26.9644C14.8207 23.9487 17.6581 21.9558 20.7193 22.3943Z" fill="#D7171F"/>
<path d="M3.1205 36.6353C3.41979 36.3453 3.72986 35.9945 4.03814 35.7619C6.87375 33.6124 10.7924 35.2625 11.2121 38.7883C11.3137 39.6412 11.0198 40 10.1731 40C6.97082 39.9991 3.76851 39.9982 0.566202 39.9973C0.37836 39.9973 0.203999 39.94 0.041322 39.8246C-0.00990769 39.7888 -0.0135027 39.7485 0.0305369 39.7047C1.03806 38.6774 2.06804 37.6545 3.1205 36.6353Z" fill="#D7171F"/>
</g>
</g>
</svg>
