<svg width="42" height="42" viewBox="0 0 42 42" fill="none" xmlns="http://www.w3.org/2000/svg">
<g id="Group 17">
<path id="Vector" d="M29.5256 0.0820308C32.8864 0.55734 35.5328 3.2667 35.9377 6.63605C35.9781 6.97074 35.9977 7.59511 35.9987 8.50916C35.9996 12.8048 36.0005 17.1004 35.9996 21.3969C35.9996 22.5247 35.8787 23.3328 34.8503 23.8138C34.4491 24.0013 34.015 23.9937 33.5473 24.0284C31.0096 24.2206 29.3372 26.3703 29.251 28.8284C29.2425 29.075 28.9932 29.2231 28.7485 29.2447C28.2995 29.2831 27.8176 29.3187 27.3995 29.4603C25.6578 30.0481 24.5619 31.235 24.1129 33.0209C24.0276 33.3603 24.0182 33.7634 23.9929 34.1346C23.9376 34.9437 23.451 35.5999 22.717 35.8671C22.4742 35.9552 22.1011 35.9993 21.5996 35.9993C16.9236 36.0002 12.2477 36.0002 7.57173 35.9993C3.77228 35.9993 0.616859 33.2215 0.0843925 29.4809C0.0272086 29.0843 -0.000914761 28.4609 2.26799e-05 27.6106C0.002835 21.1878 0.00283504 14.7651 0.0018976 8.34323C0.000960163 7.47042 0.0272085 6.84699 0.0806426 6.47199C0.538114 3.21795 3.09639 0.642652 6.31931 0.107343C6.73928 0.0370311 7.36174 0.00234373 8.18669 0.00140624C14.6757 -0.000468747 21.1656 -0.000468747 27.6555 0.00140624C28.5263 0.00234373 29.1497 0.0285936 29.5256 0.0820308ZM19.4978 9.4476C19.4978 8.37229 18.627 7.50136 17.5517 7.50136H10.9484C9.87315 7.50136 9.00226 8.37229 9.00226 9.4476V10.0532C9.00226 11.1285 9.87315 11.9995 10.9484 11.9995H17.5517C18.627 11.9995 19.4978 11.1285 19.4978 10.0532V9.4476ZM26.9992 17.6985C26.9992 16.6222 26.1274 15.7504 25.0512 15.7504H10.9503C9.87408 15.7504 9.00226 16.6222 9.00226 17.6985V18.3022C9.00226 19.3785 9.87408 20.2503 10.9503 20.2503H25.0512C26.1274 20.2503 26.9992 19.3785 26.9992 18.3022V17.6985ZM20.9987 25.9531C20.9987 24.875 20.1241 24.0003 19.046 24.0003H10.954C9.87596 24.0003 9.00133 24.875 9.00133 25.9531V26.5475C9.00133 27.6256 9.87596 28.5003 10.954 28.5003H19.046C20.1241 28.5003 20.9987 27.6256 20.9987 26.5475V25.9531Z" fill="#D7171F"/>
<path id="Vector_2" d="M31.1206 36.8581C29.8744 36.3707 27.8757 37.3841 27.1428 35.699C26.9539 35.2652 26.9642 33.9856 27.1045 33.5152C27.8888 30.8911 31.2337 33.4936 32.1377 31.0473C32.6145 29.7555 31.6058 27.8785 33.3614 27.1521C33.8616 26.9451 34.5627 27.0091 35.1423 27.0101C36.0398 27.0101 36.6867 27.79 36.7475 28.6434C36.8382 29.9239 36.3661 31.5102 37.9132 32.0879C38.7845 32.4135 39.8259 32.023 40.7197 32.3015C41.906 32.6713 42.0621 33.7467 41.9826 34.8663C41.9555 35.253 41.8817 35.5578 41.763 35.7808C40.672 37.8234 37.7805 35.5757 36.8868 37.862C36.3576 39.2159 37.4944 41.347 35.4097 41.9294C35.0703 42.0244 34.6412 41.9943 34.2495 41.999C33.0819 42.0122 32.291 41.3159 32.2742 40.1314C32.2583 38.9374 32.5397 37.4132 31.1206 36.8581Z" fill="#256AC5"/>
</g>
</svg>
