<svg width="48" height="48" viewBox="0 0 48 48" fill="none" xmlns="http://www.w3.org/2000/svg">
<path d="M37.7858 39.5086C33.2766 39.5021 28.7674 39.5003 24.2591 39.504C23.3366 39.5049 22.7123 39.4783 22.387 39.4262C20.2861 39.0875 18.5518 37.4821 18.1196 35.4383C18.0427 35.075 18.0034 34.4681 18.0024 33.6169C17.9996 32.2468 17.9996 30.8775 18.0006 29.5074C18.0015 29.0094 18.0493 28.6626 18.1459 28.4676C18.4262 27.9001 18.9437 27.7876 19.5924 27.7885C21.0914 27.7894 22.5913 27.7885 24.0904 27.7848C24.935 27.783 25.5584 27.7537 25.9587 27.6979C30.0301 27.1258 32.865 23.7851 33.0075 19.8018C33.0272 19.2535 33.3291 19.0018 33.8691 19.0018C35.5406 19.0018 37.2111 19.0009 38.8817 19C39.7423 18.9991 40.3648 19.0348 40.7501 19.1071C42.8341 19.497 44.5384 21.128 44.9115 23.2176C44.9687 23.5389 44.9978 24.0889 44.9978 24.8688C45.0006 30.9215 45.0006 36.9742 44.9987 43.0269C44.9987 43.9989 43.9065 44.3046 43.2334 43.6602C42.0738 42.5509 40.9141 41.4407 39.7554 40.3296C39.1367 39.7374 38.623 39.5095 37.7858 39.5086Z" fill="#256AC5"/>
<path fill-rule="evenodd" clip-rule="evenodd" d="M7.24479 4.11405C5.21616 4.51803 3.57046 6.08959 3.14383 8.0494C3.06307 8.42195 3.02031 9.03486 3.01746 9.88812C2.99751 15.9478 2.99466 22.0085 3.00891 28.0682C3.00986 28.3437 3.03646 28.5461 3.09062 28.6746C3.37377 29.3532 4.24414 29.4428 4.75533 28.9547C5.9687 27.7946 7.17923 26.6298 8.3869 25.4622C9.02732 24.8419 9.65728 24.7097 10.6179 24.7097C12.8727 24.7092 15.1273 24.709 17.3819 24.7088L17.4373 24.7088C19.7104 24.7085 21.9834 24.7083 24.2567 24.7078C25.1223 24.7078 25.7532 24.6672 26.1495 24.5849C28.6446 24.0681 30.354 21.9613 30.3597 19.4857C30.3663 16.3287 30.3692 13.1717 30.3682 10.0148C30.3682 9.1689 30.3293 8.55507 30.2514 8.1742C29.7421 5.68653 27.5434 4.00127 24.9522 4.00035C19.6797 3.99942 14.4082 4.00035 9.13754 4.00312C8.24437 4.00404 7.61346 4.04102 7.24479 4.11405ZM12.4737 14.5263C12.4737 15.689 11.5311 16.6316 10.3684 16.6316C9.20572 16.6316 8.26316 15.689 8.26316 14.5263C8.26316 13.3636 9.20572 12.4211 10.3684 12.4211C11.5311 12.4211 12.4737 13.3636 12.4737 14.5263ZM18.7895 14.5263C18.7895 15.689 17.8469 16.6316 16.6842 16.6316C15.5215 16.6316 14.5789 15.689 14.5789 14.5263C14.5789 13.3636 15.5215 12.4211 16.6842 12.4211C17.8469 12.4211 18.7895 13.3636 18.7895 14.5263ZM23 16.6316C24.1627 16.6316 25.1053 15.689 25.1053 14.5263C25.1053 13.3636 24.1627 12.4211 23 12.4211C21.8373 12.4211 20.8947 13.3636 20.8947 14.5263C20.8947 15.689 21.8373 16.6316 23 16.6316Z" fill="#D7171F"/>
</svg>
