<svg width="119" height="22" viewBox="0 0 119 22" fill="none" xmlns="http://www.w3.org/2000/svg">
<g id="Bitrix24-logo-ru 1" clip-path="url(#clip0_1016_1897)">
<g id="Canvas">
<g id="bitrix24-logo-ru">
<g id="Group">
<g id="Vector">
<path id="Vector_2" d="M80.859 15.74H91.5995V13.4H84.5205C85.4969 9.56 91.4774 8.72 91.4774 4.46C91.4774 2.18 89.8908 0.5 86.5344 0.5C84.4595 0.5 82.6287 1.1 81.4082 1.7L82.1405 3.86C83.239 3.32 84.5205 2.84 86.1072 2.84C87.3277 2.84 88.4872 3.38 88.4872 4.76C88.4872 7.88 81.4692 8.12 80.859 15.74ZM91.9046 12.02H98.8005V15.74H101.547V12.02H103.866V9.74H101.547V0.5H99.5328L91.9046 10.22V12.02ZM95.0169 9.86L98.9226 4.7C98.9226 5.12 98.8005 6.44 98.8005 7.64V9.8H96.9697C96.4205 9.8 95.3831 9.86 95.0169 9.86Z" fill="#005893"/>
</g>
<g id="Vector_2_2">
<path id="Vector_3" d="M2.8682 13.4596V8.71957H4.02769C5.06513 8.71957 5.91949 8.83957 6.52974 9.19957C7.14 9.55957 7.50615 10.1596 7.50615 11.1196C7.50615 12.7396 6.52974 13.4596 4.21077 13.4596H2.8682ZM0.0610256 15.7396H4.14974C8.72667 15.7396 10.3744 13.7596 10.3744 10.9996C10.3744 9.13957 9.58103 7.87957 8.17743 7.15957C7.07897 6.55957 5.67538 6.37957 3.96667 6.37957H2.8682V2.77957H9.03179L9.7641 0.55957H0V15.7396H0.0610256ZM12.2662 15.7396H14.9513L18.4297 10.8196C19.101 9.91957 19.5892 9.01957 19.8944 8.53957H19.9554C19.8944 9.19957 19.8333 10.0396 19.8333 10.8796V15.6796H22.5795V4.87957H19.8944L16.4159 9.79957C15.8056 10.6996 15.2564 11.5996 14.9513 12.0796H14.8903C14.9513 11.4196 15.0123 10.5796 15.0123 9.73957V4.93957H12.2662V15.7396ZM27.2785 15.7396H30.0856V7.15957H33.381L34.1133 4.87957H23.9221V7.15957H27.2785V15.7396ZM35.0897 21.1996H37.8359V15.7396C38.3851 15.9196 38.9344 15.9796 39.5446 15.9796C43.0231 15.9796 45.281 13.6396 45.281 10.2796C45.281 6.79957 43.2062 4.57957 39.2395 4.57957C37.7138 4.57957 36.2492 4.87957 35.0287 5.23957V21.1996H35.0897ZM37.8359 13.3996V7.03957C38.2631 6.91957 38.6292 6.85957 39.1174 6.85957C41.1313 6.85957 42.4128 7.93957 42.4128 10.2796C42.4128 12.3796 41.3754 13.6996 39.3005 13.6996C38.7513 13.6996 38.3241 13.5796 37.8359 13.3996ZM46.9287 15.7396H49.6138L53.0923 10.8196C53.7636 9.91957 54.2518 9.01957 54.5569 8.53957H54.6179C54.5569 9.19957 54.4959 10.0396 54.4959 10.8796V15.6796H57.2421V4.87957H54.5569L51.0785 9.79957C50.4682 10.6996 49.919 11.5996 49.6138 12.0796H49.5528C49.6138 11.4196 49.6749 10.5796 49.6749 9.73957V4.93957H46.9287V15.7396ZM59.439 15.7396H62.2462V11.2396H63.8938C64.199 11.2396 64.5041 11.5396 64.8703 12.2596L66.2738 15.7396H69.2641L67.2503 11.5996C66.8841 10.8796 66.5179 10.4596 65.9687 10.2796V10.2196C66.8841 9.67957 67.0061 8.11957 67.5554 7.33957C67.7385 7.09957 67.9826 6.97957 68.3487 6.97957C68.5318 6.97957 68.7759 6.97957 68.959 7.09957V4.75957C68.6538 4.63957 68.1046 4.57957 67.7995 4.57957C66.8231 4.57957 66.2128 4.93957 65.7856 5.53957C64.8703 6.85957 64.8703 9.13957 63.5277 9.13957H62.2462V4.87957H59.439V15.7396ZM75.4887 15.9796C77.0144 15.9796 78.4179 15.4996 79.2723 14.8996L78.479 13.0396C77.6856 13.4596 76.9533 13.7596 75.9159 13.7596C74.0241 13.7596 72.8036 12.5596 72.8036 10.3396C72.8036 8.35957 74.0241 6.79957 76.099 6.79957C77.1974 6.79957 77.9908 7.09957 78.7841 7.63957V5.29957C78.1738 4.93957 77.1974 4.57957 75.7938 4.57957C72.4985 4.57957 69.9354 6.97957 69.9354 10.3996C69.9354 13.5196 71.8882 15.9796 75.4887 15.9796Z" fill="#0BBBEF"/>
</g>
<g id="Vector_3_2">
<path id="Vector_4" d="M112.958 12.0198C115.949 12.0198 118.39 9.61984 118.39 6.67984C118.39 3.73984 115.949 1.33984 112.958 1.33984C109.968 1.33984 107.527 3.73984 107.527 6.67984C107.588 9.61984 109.968 12.0198 112.958 12.0198Z" stroke="#005893" stroke-width="1.7688"/>
</g>
<g id="Vector_4_2">
<path id="Vector_5" d="M116.376 6.68023H113.386V3.74023H112.592V7.46023H116.376V6.68023Z" fill="#005893"/>
</g>
</g>
</g>
</g>
</g>
<defs>
<clipPath id="clip0_1016_1897">
<rect width="119" height="21" fill="white" transform="translate(0 0.5)"/>
</clipPath>
</defs>
</svg>
