<svg width="80" height="80" viewBox="0 0 80 80" fill="none" xmlns="http://www.w3.org/2000/svg">
<circle cx="40" cy="40" r="40" fill="#ECF1F6"/>
<path d="M32.005 57.0001H50.1045C50.8725 57.0001 51.6089 56.6845 52.1519 56.1228C52.6949 55.5611 53 54.7992 53 54.0047V30.6531C53 29.8587 52.6949 29.0968 52.1519 28.535C51.6089 27.9733 50.8725 27.6577 50.1045 27.6577H29.9545C29.171 27.6577 28.4195 27.9797 27.8654 28.5529C27.3113 29.1261 27 29.9036 27 30.7142V51.8224C27 53.1956 27.5273 54.5126 28.4659 55.4836C29.4046 56.4546 30.6776 57.0001 32.005 57.0001ZM34.0318 39.3274L36.3127 38.9851C36.573 38.9429 36.8193 38.8357 37.0304 38.6727C37.2415 38.5097 37.4109 38.2959 37.5241 38.0498L38.5464 35.9103C38.6797 35.629 38.8866 35.3921 39.1435 35.2264C39.4005 35.0608 39.6972 34.9729 40 34.9729C40.3028 34.9729 40.5995 35.0608 40.8565 35.2264C41.1134 35.3921 41.3203 35.629 41.4536 35.9103L42.4759 38.0498C42.5918 38.2932 42.7632 38.5039 42.9752 38.6636C43.1873 38.8233 43.4337 38.9274 43.6932 38.9668L45.9741 39.3091C46.2739 39.3533 46.5557 39.4837 46.7875 39.6854C47.0193 39.887 47.1918 40.1519 47.2853 40.4499C47.3789 40.7478 47.3898 41.067 47.3167 41.3711C47.2437 41.6751 47.0897 41.9519 46.8723 42.17L45.2236 43.8327C45.0279 44.0207 44.8802 44.2557 44.7936 44.5171C44.707 44.7784 44.6842 45.0578 44.7273 45.3304L45.1173 47.6778C45.1705 47.9879 45.1382 48.3073 45.0239 48.5993C44.9097 48.8912 44.7181 49.144 44.4713 49.3284C44.2245 49.5129 43.9325 49.6216 43.6286 49.6422C43.3248 49.6627 43.0215 49.5942 42.7536 49.4444L40.715 48.338C40.4827 48.2116 40.2241 48.1456 39.9616 48.1456C39.6991 48.1456 39.4405 48.2116 39.2082 48.338L37.1695 49.4444C36.9017 49.5942 36.5984 49.6627 36.2946 49.6422C35.9907 49.6216 35.6986 49.5129 35.4518 49.3284C35.205 49.144 35.0135 48.8912 34.8993 48.5993C34.785 48.3073 34.7527 47.9879 34.8059 47.6778L35.2727 45.3304C35.3174 45.0622 35.2983 44.7868 35.2169 44.5279C35.1356 44.2691 34.9945 44.0347 34.8059 43.8449L33.1573 42.1822C32.942 41.9659 32.7891 41.692 32.7156 41.3911C32.6421 41.0901 32.6509 40.7739 32.741 40.4778C32.8311 40.1817 32.999 39.9174 33.2258 39.7142C33.4527 39.5111 33.7297 39.3772 34.0259 39.3274H34.0318Z" fill="#D7171F"/>
<path d="M48.8636 23.0117L31.8868 24.7906C31.8387 24.7991 31.7951 24.8249 31.7636 24.8635C31.7321 24.9021 31.7148 24.951 31.7148 25.0015C31.7148 25.052 31.7321 25.1009 31.7636 25.1395C31.7951 25.1781 31.8387 25.2039 31.8868 25.2124H50.0809C50.2282 25.2124 50.3695 25.1519 50.4737 25.0441C50.5779 24.9363 50.6364 24.7902 50.6364 24.6378C50.6363 24.4062 50.5888 24.1772 50.4969 23.966C50.405 23.7548 50.2709 23.5661 50.1034 23.4125C49.9359 23.2588 49.7387 23.1436 49.525 23.0746C49.3114 23.0055 49.0859 22.9841 48.8636 23.0117Z" fill="#256AC5"/>
</svg>
