<svg width="48" height="48" viewBox="0 0 48 48" fill="none" xmlns="http://www.w3.org/2000/svg">
<path d="M13.7368 13.5509C14.4275 11.8425 16.9756 12.3557 16.9905 14.2012C17 15.3157 17.0022 16.4302 16.9979 17.5468C16.9915 19.0162 16.0703 20.3941 14.6506 20.8329C14.2979 20.9424 13.6954 20.9965 12.8432 20.9976C9.92209 21.0008 7.00208 21.0008 4.081 20.9976C3.28937 20.9965 2.72194 20.9434 2.37979 20.8361C1.31082 20.5025 0.432049 19.6079 0.129209 18.5211C0.0452644 18.2204 0.00382333 17.7402 0.00276074 17.0793C-0.000427049 14.1321 -0.000427097 11.1849 0.000635498 8.2366C0.00169809 7.35796 0.0505776 6.75236 0.149399 6.41769C0.46924 5.33294 1.38201 4.43836 2.47967 4.13025C2.77932 4.04632 3.25962 4.00382 3.92161 4.00276C5.27323 3.99957 6.62486 3.99957 7.97648 4.00064C8.52584 4.00064 8.90625 4.03995 9.11771 4.11963C10.515 4.64235 10.5543 6.68862 9.16552 7.26234C8.94663 7.35264 8.59916 7.39727 8.12312 7.39833C6.56854 7.40152 5.01184 7.40152 3.45301 7.39939C3.42432 7.39939 3.40094 7.42277 3.40094 7.45145V17.5468C3.40094 17.5765 3.42432 17.5999 3.45407 17.5999H13.5509C13.5795 17.5999 13.6019 17.5776 13.6019 17.5489C13.6019 16.5693 13.6019 15.5876 13.6019 14.6038C13.6029 14.1236 13.6475 13.773 13.7368 13.5509Z" fill="#D7171F"/>
<path d="M8.35798 11.9438C8.38046 11.9687 8.42005 11.9708 8.44467 11.9469C10.2158 10.2267 11.9902 8.5065 13.7667 6.78527C14.1445 6.42088 14.4527 6.19353 14.6925 6.10425C16.0623 5.5966 17.4824 7.03961 16.8414 8.34455C16.7462 8.53764 16.5214 8.80756 16.165 9.15326C14.1263 11.132 12.0876 13.1106 10.0489 15.0883C9.33721 15.7787 8.72292 16.2469 7.77366 15.8607C7.11442 15.5928 6.34709 14.6793 5.78738 14.1353C5.23516 13.5996 4.87879 13.1044 5.03825 12.3829C5.24907 11.4278 6.1994 10.8309 7.17007 11.0925C7.64309 11.2202 8.03478 11.5763 8.35798 11.9438Z" fill="#D7171F"/>
<path d="M46.3357 7H22.6643C21.7451 7 21 7.88366 21 8.97372V9.02628C21 10.1163 21.7451 11 22.6643 11H46.3357C47.2549 11 48 10.1163 48 9.02628V8.97372C48 7.88366 47.2549 7 46.3357 7Z" fill="#D7171F"/>
<path d="M37.3956 14H22.6044C21.7183 14 21 14.8786 21 15.9624V16.0376C21 17.1214 21.7183 18 22.6044 18H37.3956C38.2817 18 39 17.1214 39 16.0376V15.9624C39 14.8786 38.2817 14 37.3956 14Z" fill="#D7171F"/>
<path d="M3.42476 44.9922C1.9138 44.989 0.598352 44.0285 0.15739 42.6058C0.0521969 42.269 0.000131619 41.7303 0.000131619 40.9908C-0.00093094 37.8033 0.00438166 34.6158 0.0181949 31.4272C0.0256328 29.8738 0.982998 28.5521 2.47164 28.1324C2.7766 28.0463 3.26112 28.0038 3.92522 28.0028C6.82813 27.9996 9.73104 27.9996 12.635 28.0006C13.6019 28.0017 14.2575 28.0527 14.6007 28.1558C15.6941 28.4819 16.5899 29.4201 16.8842 30.5379C16.9586 30.8195 16.9957 31.2604 16.9968 31.8607C17.0011 34.8772 17.0011 37.8947 16.9968 40.9111C16.9957 41.7133 16.9416 42.2871 16.8342 42.6302C16.4995 43.7055 15.591 44.581 14.4955 44.8764C14.197 44.9571 13.7146 44.9975 13.0483 44.9986C9.84048 45.0018 6.63262 44.9996 3.42476 44.9922ZM13.5988 31.4644C13.5988 31.4293 13.5701 31.4006 13.535 31.4006H3.46195C3.42688 31.4006 3.39819 31.4293 3.39819 31.4644V41.5369C3.39819 41.572 3.42688 41.6007 3.46195 41.6007H13.535C13.5701 41.6007 13.5988 41.572 13.5988 41.5369V31.4644Z" fill="#256AC5"/>
<path d="M46.3357 31H22.6643C21.7451 31 21 31.8837 21 32.9737V33.0263C21 34.1163 21.7451 35 22.6643 35H46.3357C47.2549 35 48 34.1163 48 33.0263V32.9737C48 31.8837 47.2549 31 46.3357 31Z" fill="#256AC5"/>
<path d="M37.3956 38H22.6044C21.7183 38 21 38.8786 21 39.9624V40.0376C21 41.1214 21.7183 42 22.6044 42H37.3956C38.2817 42 39 41.1214 39 40.0376V39.9624C39 38.8786 38.2817 38 37.3956 38Z" fill="#256AC5"/>
</svg>
