<svg width="48" height="48" viewBox="0 0 48 48" fill="none" xmlns="http://www.w3.org/2000/svg">
<path d="M12.8777 15.9788C11.7839 15.9752 10.957 15.1203 11.0017 14.0412C11.009 13.8756 11.0502 13.6227 11.1251 13.2816C12.2636 8.12203 16.3619 4.17653 21.6252 3.21716C28.8887 1.89239 35.8032 6.77477 36.9783 13.8846C37.1135 14.7027 36.6055 15.59 35.7895 15.8654C35.582 15.9356 35.2375 15.9725 34.7578 15.9752C33.1907 15.9851 31.5971 16.3001 31.132 14.3679C30.4046 11.3413 27.8772 9.11561 24.7219 8.79072C20.9947 8.40823 17.7024 10.8778 16.8462 14.4318C16.5565 15.6368 15.7999 15.9689 14.5956 15.9761C14.0217 15.9788 13.4488 15.9797 12.8777 15.9788Z" fill="#256AC5"/>
<path d="M42 41.0446C42 43.2288 40.2628 45 38.1206 45H9.87937C7.73719 45 6 43.2288 6 41.0446V22.9554C6 20.7713 7.73719 19 9.87937 19H38.1206C40.2628 19 42 20.7713 42 22.9554V41.0446ZM26.7159 31.349C28.515 28.7175 26.2144 25.2018 23.1328 26.0037C20.7525 26.6232 19.8281 29.4784 21.345 31.4571C21.825 32.0822 22.3312 32.2256 22.1962 33.1949C21.9872 34.6889 21.78 36.1839 21.5728 37.6799C21.4613 38.4885 21.6178 39.1873 22.3913 39.5151C22.6022 39.605 22.9312 39.649 23.3784 39.648C24.0291 39.6471 25.05 39.7637 25.6144 39.5142C26.3625 39.1854 26.5378 38.5124 26.4291 37.7181C26.2172 36.1705 26.0025 34.622 25.785 33.0744C25.6659 32.2285 26.3137 31.9379 26.7159 31.349Z" fill="#D7171F"/>
</svg>
