<svg width="65" height="32" viewBox="0 0 65 32" fill="none" xmlns="http://www.w3.org/2000/svg">
<g id="g10">
<g id="g12">
<g id="Clip path group">
<g id="g14">
<g id="g20">
<path id="path22" d="M33.9785 27.3759C32.7323 27.294 31.2954 27.0787 30.1621 26.7551C29.9498 26.6945 29.0708 26.376 28.8472 26.2749C24.9016 24.4732 22.1529 20.5402 22.1529 15.9773C22.1529 9.71884 27.318 4.6211 33.6708 4.6211C39.9672 4.6211 45.0975 9.63189 45.1857 15.8195H49.3467C49.2585 7.37117 42.2626 0.524303 33.6708 0.524303C25.0277 0.524303 17.9929 7.45509 17.9929 15.9773C17.9929 21.8525 21.3447 26.9624 26.2524 29.5729C27.1385 30.035 28.4103 30.5112 28.8421 30.6416C30.2411 31.0521 31.958 31.3251 33.4862 31.4393C34.0052 31.4778 35.8175 31.498 36.3457 31.5H65V27.4143H36.3939C36.0134 27.4143 34.3508 27.4002 33.9785 27.3759ZM36.3939 20.9608C36.0913 20.9608 34.5088 20.9507 34.2164 20.9264C33.7211 20.8849 33.0031 20.8121 32.5416 20.708C32.0206 20.5705 31.5313 20.3885 31.3108 20.2692C29.7652 19.4452 28.7118 17.8336 28.7118 15.9773C28.7118 13.2767 30.9303 11.0868 33.6708 11.0868C36.3539 11.0868 38.5354 13.1908 38.6226 15.8195H42.6205C42.5364 11.017 38.5652 7.14672 33.6708 7.14672C28.7221 7.14672 24.7108 11.0999 24.7108 15.9773C24.7108 19.4169 26.7108 22.3874 29.6236 23.8423C30.0718 24.1011 30.9149 24.3721 31.1549 24.4337C31.9775 24.6471 33.0821 24.7927 33.9785 24.8574C34.3098 24.8847 35.9323 24.8968 36.2749 24.8988V24.9049H64.999V20.9608H36.3939ZM15.4288 31.4848H11.2401V4.6302H5.11905L5.11905 0.500038H15.4288V31.4848ZM0.520081 6.69376V10.6652H5.11905V31.4848H9.14366V6.69376H0.520081Z" fill="#D7171F"/>
<g id="g24">
<path id="path26" d="M58.4777 0.499982C56.5618 0.499982 54.9728 2.02776 54.9728 3.94497C54.9728 5.86218 56.5618 7.45117 58.4777 7.45117C60.4522 7.45117 61.98 5.86218 61.98 3.94497C61.98 2.02776 60.4522 0.499982 58.4777 0.499982ZM58.4777 6.88591C56.8952 6.88591 55.5316 5.64207 55.5316 3.94497C55.5316 2.33384 56.8952 1.05873 58.4777 1.05873C60.0589 1.05873 61.416 2.33384 61.416 3.94497C61.416 5.64207 60.0589 6.88591 58.4777 6.88591Z" fill="#D91920"/>
</g>
<g id="g28">
<path id="path30" d="M59.8124 4.88943C59.8124 4.5026 59.755 4.14312 59.3122 4.00116C59.8671 3.80839 59.9218 3.44501 59.9218 3.22489C59.9218 2.33532 59.1142 2.222 58.7821 2.222H57.2543V5.66699H57.8912V4.25383H58.3927C59.1142 4.25383 59.1741 4.58596 59.1741 4.88943C59.1741 5.47683 59.1741 5.58754 59.3122 5.66699H59.9504C59.8124 5.52763 59.8671 5.41953 59.8124 4.88943ZM58.6427 3.75108H57.8912V2.66614H58.5346C58.9801 2.66614 59.2823 2.80681 59.2823 3.22489C59.2823 3.44501 59.1741 3.75108 58.6427 3.75108Z" fill="#D91920"/>
</g>
</g>
</g>
</g>
</g>
</g>
</svg>
