<svg width="131" height="28" viewBox="0 0 131 28" fill="none" xmlns="http://www.w3.org/2000/svg">
<g id="Mintsifry_logo 1" clip-path="url(#clip0_1016_4169)">
<g id="Clip path group">
<mask id="mask0_1016_4169" style="mask-type:luminance" maskUnits="userSpaceOnUse" x="0" y="0" width="131" height="28">
<g id="clip0">
<path id="Vector" d="M130.771 0.223633H0.228882V27.4547H130.771V0.223633Z" fill="white"/>
</g>
</mask>
<g mask="url(#mask0_1016_4169)">
<g id="Group">
<path id="Vector_2" d="M34.4751 1.18945H32.7497V7.72163H34.4751V1.18945Z" fill="#5EC5EE"/>
<path id="Vector_3" d="M34.4751 7.72168H32.7497V14.2538H34.4751V7.72168Z" fill="#2588C3"/>
<path id="Vector_4" d="M34.4751 14.2539H32.7497V20.7861H34.4751V14.2539Z" fill="#045D89"/>
<path id="Vector_5" d="M34.4751 20.7861H32.7497V27.3183H34.4751V20.7861Z" fill="#E3EBF1"/>
<path id="Vector_6" d="M15.6188 13.4274C15.6123 13.4211 15.4572 13.2627 15.1891 13.2627C15.0469 13.2627 14.9015 13.307 14.7561 13.3894C14.7302 13.4021 14.7141 13.4306 14.7205 13.4591C14.7205 13.4654 14.8272 14.175 14.7464 14.4792C14.685 14.7072 14.4879 14.9765 14.1292 14.9765C14.0517 14.9765 13.9742 14.9638 13.8902 14.9416H13.8869L14.1584 14.7611C14.1777 14.7484 14.1906 14.7262 14.1906 14.7009C14.1906 14.6755 14.1777 14.6565 14.1584 14.6407L13.6187 14.2764C13.79 14.1497 13.8966 14.061 13.9095 14.0483C13.9257 14.0357 13.9354 14.0166 13.9354 13.9976C13.9354 13.9786 13.929 13.9596 13.9128 13.9437L13.8158 13.8487C13.8029 13.8361 13.7836 13.8266 13.7641 13.8266C13.748 13.8266 13.7318 13.8329 13.7189 13.8424C13.7125 13.8456 13.5703 13.9532 13.3538 14.099L13.1373 13.9532L13.9838 13.3831L14.0485 13.5478C14.0582 13.5731 14.084 13.5921 14.1131 13.5921C14.1131 13.5921 14.1131 13.5921 14.1163 13.5921C14.1422 13.5921 14.168 13.5763 14.181 13.5541L14.5848 12.8255C14.5978 12.8001 14.5946 12.7716 14.5816 12.7495C14.5687 12.7304 14.5461 12.7178 14.5203 12.7178C14.517 12.7178 14.5137 12.7178 14.5105 12.7178L13.6769 12.8413C13.6478 12.8445 13.6252 12.8635 13.6155 12.892C13.609 12.9174 13.6155 12.9459 13.6382 12.9649L13.7738 13.0821L12.8109 13.7315L11.8513 13.0821L11.987 12.9649C12.0064 12.9459 12.0161 12.9174 12.0064 12.892C11.9999 12.8635 11.9773 12.8445 11.9483 12.8413L11.1146 12.7178C11.1113 12.7178 11.1081 12.7178 11.1049 12.7178C11.0791 12.7178 11.0565 12.7273 11.0435 12.7495C11.0273 12.7716 11.0273 12.8001 11.0403 12.8255L11.441 13.5541C11.4539 13.5763 11.4797 13.5921 11.5056 13.5921C11.5088 13.5921 11.5088 13.5921 11.5088 13.5921C11.5379 13.5921 11.5605 13.5731 11.5734 13.5478L11.6413 13.3831L12.4878 13.9532L12.2713 14.099C12.0549 13.9532 11.9127 13.8456 11.9094 13.8424C11.8965 13.8329 11.8804 13.8266 11.8642 13.8266C11.8448 13.8266 11.8254 13.8329 11.8125 13.8487L11.7156 13.9437C11.7026 13.9564 11.693 13.9755 11.693 13.9976C11.693 14.0166 11.7026 14.0357 11.7188 14.0483C11.735 14.061 11.8416 14.1497 12.0129 14.2764L11.4732 14.6407C11.4539 14.6534 11.441 14.6755 11.441 14.7009C11.441 14.7262 11.4539 14.7452 11.4732 14.7611L11.7447 14.9416C11.7447 14.9416 11.7447 14.9416 11.7414 14.9416C11.6574 14.9638 11.5799 14.9765 11.5024 14.9765C11.1437 14.9765 10.9433 14.7072 10.8819 14.4792C10.8012 14.175 10.9078 13.4654 10.9078 13.4591C10.9111 13.4306 10.8981 13.4021 10.8723 13.3894C10.7236 13.307 10.5782 13.2627 10.4393 13.2627C10.1679 13.2627 10.0127 13.4179 10.0063 13.4274C9.99337 13.4369 9.98691 13.4559 9.98691 13.4686C9.98369 13.5129 9.89968 14.5361 10.3844 15.0557C10.5621 15.2457 10.7979 15.344 11.0791 15.344C11.1275 15.344 11.1824 15.344 11.2341 15.3345C11.5088 15.3028 11.777 15.2299 12.0387 15.1412L12.4878 15.439L11.4959 16.0979C11.4765 16.1137 11.4636 16.1328 11.4636 16.1581C11.4636 16.1803 11.4732 16.2025 11.4959 16.2183L12.4911 16.8931L11.6413 17.4696L11.5767 17.3081C11.567 17.2827 11.5411 17.2669 11.512 17.2637C11.512 17.2637 11.512 17.2637 11.5088 17.2637C11.4829 17.2637 11.4571 17.2795 11.4442 17.3017L11.0435 18.0303C11.0306 18.0525 11.0338 18.0842 11.0467 18.1032C11.0597 18.1222 11.0823 18.1349 11.1081 18.1349C11.1113 18.1349 11.1146 18.1349 11.1178 18.1349L11.9515 18.0145C11.9805 18.0114 12.0031 17.9891 12.0097 17.9638C12.0193 17.9353 12.0097 17.9068 11.9902 17.8878L11.8513 17.7674L12.8142 17.1148L13.777 17.7674L13.6382 17.8878C13.6155 17.9068 13.609 17.9353 13.6155 17.9638C13.6219 17.9891 13.6478 18.0081 13.6769 18.0145L14.5105 18.1349C14.5137 18.1349 14.517 18.1349 14.5203 18.1349C14.5429 18.1349 14.5655 18.1254 14.5816 18.1032C14.5978 18.081 14.5978 18.0525 14.5848 18.0303L14.181 17.3017C14.168 17.2795 14.1454 17.2637 14.1163 17.2637H14.1131C14.0808 17.2637 14.0582 17.2827 14.0485 17.3081L13.9838 17.4696L13.1341 16.8931L14.1292 16.2183C14.1487 16.2057 14.1616 16.1834 14.1616 16.1581C14.1616 16.1328 14.1487 16.1137 14.1292 16.0979L13.1373 15.439L13.5864 15.1412C13.8449 15.2331 14.1131 15.3028 14.3878 15.3345C14.4427 15.3408 14.4944 15.344 14.5429 15.344C14.8272 15.344 15.0598 15.2457 15.2375 15.0557C15.7222 14.5361 15.6382 13.5129 15.635 13.4686C15.635 13.4559 15.6285 13.4401 15.6188 13.4274ZM12.8077 14.1814L13.021 14.3239C12.9531 14.3651 12.882 14.4095 12.8077 14.4538C12.7334 14.4095 12.6623 14.3683 12.5944 14.3239L12.8077 14.1814ZM12.0323 14.7041L12.3263 14.5045C12.3845 14.5394 12.4426 14.5773 12.5072 14.6185C12.3909 14.6787 12.2746 14.7357 12.1583 14.7896L12.0323 14.7041ZM13.5671 16.1581L12.8077 16.6713L12.0516 16.1581L12.8077 15.6544L13.5671 16.1581ZM12.8077 15.2204L12.4426 14.9765C12.5718 14.9163 12.6914 14.8561 12.8077 14.7928C12.924 14.8561 13.0469 14.9163 13.1761 14.9765L12.8077 15.2204ZM13.4604 14.7896C13.3441 14.7389 13.2245 14.6819 13.1082 14.6185C13.1728 14.5805 13.231 14.5425 13.2892 14.5045L13.5864 14.7041L13.4604 14.7896Z" fill="#706F6F"/>
<path id="Vector_7" d="M15.8742 14.029C15.9031 13.972 15.9159 13.8642 15.9159 13.8642L15.8742 13.8516V14.029Z" fill="#706F6F"/>
<path id="Vector_8" d="M25.4217 11.4918C25.1115 11.3081 24.5978 11.2447 24.0743 11.2922C24.8918 11.0135 25.4508 10.4179 25.4799 9.88566C25.0533 9.76532 24.6107 9.82863 24.2262 9.91421C24.6236 9.62277 25.2763 9.09052 25.1955 8.30805C24.811 8.21619 24.1067 8.47915 23.8126 8.60905C24.7561 8.08946 25.0954 6.86032 24.5945 6.16343C24.2973 6.33447 22.9499 7.68401 22.7302 7.83923C23.4281 7.05675 23.7545 6.49602 23.9418 5.97017C24.1648 5.39679 24.181 4.39573 23.4572 4.05994C23.1147 4.82657 21.9192 6.79379 21.2536 7.61115C21.1793 7.54778 21.1211 7.46226 21.0274 7.44638C20.8691 7.94374 20.3973 8.60588 19.9676 8.92265C19.945 8.88144 19.903 8.76743 19.8287 8.64386C19.3731 9.31227 18.1905 10.2278 17.8092 10.7917C17.512 11.2099 17.512 11.5868 17.9256 11.9765C18.0936 12.1412 18.4102 12.4295 18.1356 12.835C17.7608 13.3703 17.008 13.4337 16.6008 13.1169C16.6008 13.0219 16.5976 12.93 16.5944 12.8445C17.0758 12.6608 17.1889 12.0177 16.8334 11.6185C16.7559 11.7642 16.6267 11.872 16.4716 11.9258C16.4296 11.7579 16.394 11.6787 16.3908 11.6692L16.3714 11.6312H16.3294C16.3262 11.6312 16.1678 11.6217 15.932 11.5963C16.2002 11.5108 16.3714 11.2669 16.3327 10.9406C15.919 11.2891 15.5055 10.9564 15.4117 10.8646C15.1533 10.5668 15.079 10.231 15.1823 9.71778C15.2696 9.27112 15.7414 8.56151 16.0515 8.33343C16.0968 8.37458 16.1678 8.46016 16.3197 8.44744C16.407 8.41895 16.5524 8.34609 16.6622 8.30488C16.9756 8.21303 17.2793 8.28272 17.4732 8.40629C17.8286 8.61854 17.7963 8.85295 17.7866 9.02399C18.3262 8.72622 18.1388 8.22885 17.4312 8.04515C17.9159 8.04515 18.3133 8.47915 18.4167 8.53302C18.6849 8.72622 19.0694 8.68191 19.2923 8.57733C19.7221 8.37774 19.8093 7.88038 19.693 7.77903C19.651 7.95646 19.512 8.11485 19.2632 8.14333C18.8949 8.18454 18.5395 8.02932 18.2584 7.90576C18.0193 7.80752 17.6348 7.73465 17.373 7.75054C17.8577 7.48758 18.6106 7.51607 18.8787 7.92158C19.0403 7.79485 19.1405 7.68085 19.1857 7.41789C19.3246 6.70827 18.7592 6.34397 18.155 6.34397C18.1711 6.17292 18.0483 6.0874 17.8868 6.14438C17.8868 6.07155 17.8674 6.01452 17.8254 5.98601C17.8384 5.98601 17.8577 5.97968 17.8706 5.97968C18.4781 5.93849 19.0532 5.75476 19.3634 5.4348C19.9062 4.86458 19.0403 4.1423 19.3505 3.58159C19.6478 3.7083 19.8674 3.87303 20.2778 3.93006C20.3198 4.01559 20.3586 4.18665 20.3715 4.27852C20.504 4.9121 19.8674 5.01664 20.0323 5.6914C20.1033 5.99868 20.3392 6.10323 20.4168 6.46753C20.4168 6.46753 20.4458 6.72093 20.2196 6.94274C20.7431 6.9554 21.0177 6.5214 20.8562 6.11905C20.7851 5.95434 20.6041 5.79911 20.6041 5.60586C20.8723 5.95434 21.1114 5.94166 21.525 5.81178C21.7124 5.75476 21.7286 6.01136 21.6123 6.2173C21.8966 6.05254 21.9676 5.78327 21.9676 5.66289C21.9676 5.37778 21.7415 5.24473 21.525 5.30175C21.4022 5.31442 21.1567 5.47915 21.1405 5.24473C21.0888 4.83924 21.7415 4.85508 21.609 4.20249C21.538 3.8762 21.1664 3.69563 20.588 3.62594C20.5298 3.56892 20.3844 3.4327 20.3069 3.31865C19.9902 2.80229 19.6607 2.66607 19.4636 2.77061C19.2309 2.88465 19.1114 2.98286 18.9207 3.08423C18.7689 3.16343 18.6073 3.20461 18.5071 3.31865C18.2551 3.62594 18.4942 4.10112 18.6235 4.39257C18.7107 4.56363 18.9207 4.95328 18.8271 5.24473C18.7236 5.5932 18.1388 5.81178 17.7834 5.88464C17.7608 5.88464 17.7446 5.89098 17.722 5.89098V5.75476C17.8254 5.57735 17.9127 5.36511 17.9838 5.17187C18.2228 4.54463 17.8674 4.2912 17.3407 4.17081C17.2729 4.12963 17.2018 4.11379 17.1146 4.1423H17.0984L17.0855 4.24685L17.0144 4.22467L17.0306 4.09795H16.9982C17.0596 4.05677 17.0855 3.98391 17.0855 3.91422C17.0855 3.83819 17.0564 3.778 17.0273 3.73681H17.0984L17.0693 3.7083C17.0564 3.67979 17.0273 3.65128 16.9821 3.60693C16.9692 3.59426 16.953 3.56575 16.953 3.54991C16.9659 3.56258 16.9821 3.57842 17.0112 3.59109C17.0402 3.6196 17.0823 3.64812 17.0984 3.67663L17.1404 3.70514V3.13175L17.0984 3.16659C17.0855 3.17927 17.0402 3.20778 17.0112 3.23946C16.9821 3.26797 16.9692 3.26797 16.953 3.28064C16.953 3.26797 16.9659 3.25213 16.9821 3.22362C17.0273 3.19511 17.0564 3.15393 17.0693 3.13175L17.0984 3.0874H16.5039L16.5329 3.13175C16.5621 3.15076 16.5976 3.19511 16.6267 3.22362C16.6396 3.25213 16.6558 3.26797 16.6687 3.28064C16.6525 3.26797 16.6267 3.26797 16.6105 3.23946C16.5588 3.21094 16.5329 3.18243 16.5039 3.16659L16.4813 3.13175V3.71464L16.5103 3.68613C16.5394 3.65762 16.5685 3.62911 16.6169 3.60059C16.6332 3.58793 16.659 3.57208 16.6751 3.55942C16.659 3.57208 16.6461 3.60059 16.6332 3.61643C16.604 3.66079 16.5653 3.68613 16.5394 3.71781L16.5103 3.74632H16.604C16.5524 3.7875 16.5394 3.84769 16.5394 3.92372C16.5394 3.99342 16.5685 4.06628 16.6169 4.10746H16.604L16.6169 4.23417L16.5394 4.25635L16.5233 4.1518H16.5103C16.4231 4.1233 16.352 4.13914 16.2939 4.18032C15.7575 4.3007 15.4021 4.5573 15.6412 5.18137C15.7155 5.37461 15.8028 5.58686 15.9094 5.76426V5.85613C15.373 5.68507 14.4069 5.10851 14.1484 4.76004C14.1193 4.7252 14.0967 4.69668 14.0838 4.67451H14.0806L14.0903 4.29753C14.2776 3.99024 14.4457 3.61327 14.5749 3.26797C14.9142 2.36512 14.4134 1.98814 13.6185 1.83292C13.5378 1.7759 13.4376 1.74738 13.3051 1.79173L13.276 1.93429L13.108 1.92162L13.1209 1.73788C13.0983 1.74422 13.0692 1.74422 13.0402 1.74422C13.1533 1.6872 13.234 1.55098 13.234 1.41159C13.234 1.31022 13.1823 1.18984 13.0951 1.13281H13.234C13.1533 1.06312 13.024 0.914232 12.9982 0.81286C13.0983 0.841371 13.2502 0.97442 13.3213 1.04728V0.309166C13.2502 0.366188 13.0983 0.508742 12.9982 0.521414C13.024 0.439049 13.1533 0.296494 13.234 0.223633H12.4812C12.5393 0.296494 12.6847 0.439049 12.6977 0.521414C12.6104 0.508742 12.465 0.366188 12.3842 0.309166V1.04728C12.465 0.97442 12.6072 0.841371 12.6977 0.81286C12.6847 0.911061 12.5393 1.05995 12.4812 1.13281H12.6104C12.5232 1.18984 12.4812 1.31022 12.4812 1.41159C12.4812 1.55098 12.5523 1.69036 12.6686 1.74422C12.6395 1.74422 12.6104 1.74422 12.5652 1.73155L12.5813 1.91528L12.4133 1.92795L12.3972 1.7854C12.2679 1.74422 12.1678 1.77273 12.0805 1.82658C11.2921 1.98498 10.7913 2.35879 11.1306 3.26163C11.2469 3.60693 11.4149 3.98708 11.6152 4.2912V4.68085C11.6023 4.69351 11.5862 4.72202 11.5571 4.75054C11.3051 5.099 10.3325 5.67556 9.79613 5.84663V5.75476C9.9028 5.57735 9.99325 5.36511 10.0643 5.17187C10.3034 4.54463 9.94799 4.2912 9.41164 4.17081C9.35024 4.12963 9.28238 4.11379 9.19515 4.1423H9.18223L9.16609 4.24685L9.095 4.22467L9.10792 4.09795H9.095C9.13697 4.05677 9.16609 3.98391 9.16609 3.91422C9.16609 3.83819 9.15318 3.778 9.10792 3.73681H9.19515L9.16609 3.7083C9.13697 3.67979 9.10792 3.65128 9.07886 3.60693C9.06589 3.59426 9.04329 3.56575 9.02714 3.54991C9.04329 3.56258 9.07886 3.57842 9.09177 3.59109C9.13375 3.6196 9.16286 3.64812 9.19515 3.67663L9.22427 3.70514V3.13175L9.19515 3.16659C9.16609 3.17927 9.13697 3.20778 9.09177 3.23946C9.07886 3.26797 9.04329 3.26797 9.02714 3.28064C9.04329 3.26797 9.06266 3.25213 9.07886 3.22362C9.10792 3.19511 9.13697 3.15393 9.16609 3.13175L9.19515 3.0874H8.60062L8.62974 3.13175C8.64265 3.15076 8.68139 3.19511 8.71051 3.22362C8.73956 3.25213 8.75248 3.26797 8.75248 3.28064C8.74279 3.2648 8.72665 3.2648 8.70082 3.23629C8.66525 3.20778 8.62005 3.17927 8.60708 3.16343L8.56188 3.12858V3.71147L8.60708 3.68296C8.62005 3.65445 8.66525 3.62594 8.70082 3.59743C8.72988 3.58476 8.74279 3.56892 8.75571 3.55625C8.75571 3.56892 8.74279 3.59743 8.71374 3.61327C8.68462 3.65762 8.64588 3.68296 8.63297 3.71464L8.60385 3.74315H8.68139C8.64588 3.78434 8.61353 3.84452 8.61353 3.92056C8.61353 3.99024 8.64265 4.06311 8.71051 4.10429H8.68139L8.6976 4.231L8.61682 4.25318L8.60385 4.14864H8.5877C8.50047 4.12013 8.42939 4.13597 8.37121 4.17715C7.83486 4.29753 7.47942 4.55413 7.71857 5.1782C7.79289 5.37144 7.88012 5.58369 7.98672 5.76109V5.89731C7.96412 5.89731 7.94475 5.89098 7.92854 5.89098C7.57317 5.81812 6.97864 5.59953 6.8785 5.25106C6.78475 4.95962 6.99478 4.56997 7.08201 4.3989C7.22096 4.10746 7.45359 3.63228 7.20805 3.32499C7.09815 3.21094 6.93984 3.16977 6.78475 3.09057C6.59737 2.99236 6.48103 2.89099 6.24194 2.77694C6.05131 2.67241 5.7282 2.80546 5.39862 3.32499C5.32754 3.43903 5.17568 3.57208 5.11429 3.63228C4.54239 3.70197 4.17404 3.87937 4.09327 4.20883C3.96079 4.86142 4.61348 4.84874 4.57147 5.25106C4.55531 5.48549 4.30328 5.32076 4.18697 5.30808C3.96079 5.25106 3.73785 5.38412 3.73785 5.66922C3.73785 5.7896 3.81862 6.05887 4.09327 6.22363C3.97695 6.01769 3.98987 5.76109 4.18697 5.81812C4.60055 5.948 4.82995 5.96067 5.10137 5.6122C5.10137 5.80228 4.92689 5.96067 4.84934 6.12538C4.68779 6.5309 4.95597 6.96173 5.48587 6.94907C5.24676 6.72732 5.29523 6.47386 5.29523 6.47386C5.36955 6.10956 5.60218 6.00502 5.67973 5.69773C5.84129 5.02298 5.20153 4.91843 5.34047 4.28486C5.35339 4.19299 5.38247 4.02193 5.4277 3.93639C5.84129 3.87937 6.06746 3.7178 6.35505 3.58793C6.65232 4.14864 5.79605 4.87092 6.34208 5.44114C6.65555 5.76109 7.23387 5.94483 7.83486 5.98601C7.84777 5.98601 7.8672 5.99235 7.88335 5.99551C7.84132 6.02402 7.81872 6.07788 7.81872 6.15077C7.6604 6.09373 7.53759 6.17925 7.56026 6.3503C6.93661 6.3503 6.38734 6.7146 6.52306 7.42422C6.56503 7.68718 6.66846 7.80118 6.83646 7.92792C7.09815 7.52246 7.851 7.49392 8.34216 7.75687C8.07395 7.74105 7.68945 7.81391 7.45359 7.91209C7.1757 8.03249 6.82355 8.19087 6.4552 8.14966C6.19994 8.12118 6.07069 7.96596 6.019 7.78536C5.90268 7.88677 5.98992 8.38091 6.42291 8.58366C6.63934 8.68824 7.02384 8.73255 7.29205 8.53935C7.39542 8.48232 7.79289 8.05148 8.28076 8.05148C7.5764 8.23518 7.37928 8.73255 7.93177 9.03032C7.90917 8.85928 7.88335 8.62487 8.23549 8.41262C8.43262 8.29222 8.74279 8.21936 9.04974 8.31121C9.15641 8.35242 9.30181 8.42528 9.38904 8.45377C9.5409 8.46649 9.61199 8.38091 9.65719 8.33976C9.97059 8.56784 10.4262 9.27745 10.5264 9.72412C10.6362 10.2373 10.5554 10.57 10.2937 10.8709C10.2065 10.9627 9.78645 11.2954 9.37613 10.9469C9.33732 11.2732 9.50855 11.514 9.77676 11.6027C9.53767 11.628 9.37613 11.6375 9.3729 11.6375H9.33087L9.31472 11.6755C9.3115 11.6819 9.27592 11.7642 9.23072 11.9289C9.08209 11.872 8.95283 11.7674 8.87528 11.6217C8.51985 12.0208 8.62974 12.6608 9.10792 12.8445C9.10469 12.9332 9.10146 13.0251 9.10146 13.1233C8.69114 13.4337 7.94798 13.3672 7.57963 12.835C7.29527 12.4295 7.62159 12.138 7.7832 11.9765C8.19675 11.5868 8.19675 11.2099 7.89626 10.7917C7.51177 10.231 6.33239 9.31227 5.87683 8.64386C5.80251 8.76426 5.76051 8.87827 5.74435 8.92265C5.31785 8.60588 4.83965 7.94374 4.68132 7.44638C4.59409 7.4591 4.52946 7.54778 4.45515 7.61115C3.796 6.79379 2.59404 4.82657 2.25477 4.05994C1.53747 4.39573 1.5504 5.39679 1.77011 5.97017C1.96398 6.49602 2.29032 7.05675 2.97854 7.83923C2.76206 7.68085 1.41469 6.33447 1.11743 6.16343C0.619844 6.86032 0.959109 8.08946 1.89935 8.60905C1.61179 8.47915 0.900948 8.21619 0.516449 8.30805C0.445365 9.09052 1.08835 9.62277 1.48578 9.91421C1.09804 9.82863 0.655388 9.76532 0.228882 9.88566C0.257962 10.4179 0.823403 11.0166 1.61825 11.2922C1.11097 11.2415 0.597227 11.3081 0.283811 11.4918C0.34197 12.0462 0.981727 12.5245 1.74749 12.6385C1.23375 12.6956 0.778168 12.9173 0.539067 13.2214C0.820169 13.5826 1.23375 13.8614 1.86382 13.8487C1.71841 13.8994 1.5504 13.9976 1.40823 14.1306C1.39207 14.118 1.36299 14.1022 1.33715 14.1022C1.30484 14.1148 1.29514 14.1591 1.30484 14.1877C1.30484 14.1877 1.30484 14.1877 1.30484 14.2098C1.24345 14.251 1.21113 14.3017 1.20467 14.3524C1.14651 14.4347 1.08512 14.5298 1.05281 14.6153C1.06896 14.6217 1.08189 14.6375 1.09482 14.6438C1.09158 14.6882 1.10451 14.742 1.14005 14.7959C1.11097 14.8244 1.09804 14.8656 1.08189 14.91L0.713543 14.7642C0.69416 15.0937 0.768476 15.3629 0.936492 15.5308C1.06896 15.6797 1.22083 15.6576 1.17559 15.7083L1.57625 15.949C1.64733 16.0979 1.79273 16.0979 1.89289 16.0567C1.89289 16.0567 1.89289 16.0694 1.89289 16.0852C1.89289 16.2404 2.00275 16.3672 2.14492 16.4179C2.11584 16.5477 2.174 16.6301 2.35494 16.6903L3.86063 20.27C3.80247 20.4411 3.86063 20.5899 3.9931 20.647C3.96079 20.6882 3.93494 20.7325 3.93494 20.818C3.9931 20.7769 4.08034 20.761 4.12235 20.8814C4.15142 20.9669 3.9931 21.2425 4.2322 21.4295C4.19989 21.5942 4.29037 21.762 4.46161 21.8349C4.46161 21.9205 4.54239 22.196 4.55531 22.2943C4.44869 22.4432 4.19989 22.6713 4.2322 22.9215C4.26128 23.0989 4.33237 23.156 4.47777 23.2003C4.41961 23.5203 4.60055 23.6628 4.87519 23.6786C4.87519 23.9131 5.09814 23.9954 5.24354 24.0112C5.38247 24.1126 5.44063 24.1538 5.59896 24.233C5.45356 24.4009 5.55695 24.6227 5.8219 24.6955C5.85098 24.7937 5.92529 24.8793 6.07393 24.9141C6.16116 25.0567 6.31948 25.0567 6.41317 25.0155C6.47134 24.987 6.57478 24.8223 6.48425 24.6797C6.54243 24.61 6.51337 24.4738 6.47134 24.3883C6.55857 24.233 6.48425 24.0398 6.36474 23.9827C6.38088 23.8972 6.33562 23.761 6.30657 23.6786C6.5166 23.5487 6.77829 23.3872 6.87198 23.3302C7.38573 22.969 7.96735 22.6459 8.62651 22.6047C8.79451 22.5889 9.10469 22.5762 9.27915 22.5889C9.54736 22.6174 9.91571 22.6966 10.1322 22.5319C10.2 22.4907 10.242 22.4178 10.2291 22.3481C10.2001 22.1834 10.0191 22.0408 9.96091 21.8951C9.94477 21.8508 9.91894 21.7843 9.88982 21.7241C10.0773 21.7557 10.2517 21.7304 10.3584 21.6797C10.4747 21.6385 10.7558 21.4326 10.7429 21.1253C10.5167 21.2299 9.97382 21.3724 9.91571 20.8339C9.85754 20.3587 10.2841 19.9532 10.9528 20.1306C11.4084 20.2446 12.074 21.195 11.4666 21.61C11.1693 21.8096 10.7138 21.9997 10.7719 22.5192C10.9658 22.2848 11.2275 22.1707 11.5668 22.1992C11.0692 22.5604 10.6847 22.6047 10.1613 22.8803C9.70568 23.1432 9.36638 23.5773 9.00777 23.59C8.73311 23.6026 8.58125 23.2826 8.84946 23.0356C8.58125 22.9785 8.22581 23.1844 8.12567 23.4601C7.9964 23.837 8.09661 24.1063 8.3357 24.2584C8.01261 24.4294 7.77023 24.7621 7.88658 25.2372C7.9964 25.6269 8.39387 25.6269 8.24201 26.1243C8.46496 26.0672 8.6103 25.9183 8.67493 25.7061C8.70405 25.5572 8.73311 25.402 8.80742 25.3291C8.77514 25.6269 8.9496 26.0672 9.36638 26.2668C9.6475 26.403 10.0902 26.4569 10.4295 26.1116C10.5683 26.5012 11.0369 26.837 11.5248 26.8212C11.7477 26.8212 11.9674 26.7261 12.1322 26.6311C12.2486 26.9194 12.5458 27.214 12.8398 27.3534C13.1435 27.214 13.4408 26.9194 13.5636 26.6311C13.7251 26.7293 13.9481 26.8212 14.1646 26.8212C14.6331 26.8339 15.1275 26.5012 15.2599 26.1116C15.5992 26.4569 16.0419 26.403 16.323 26.2668C16.7365 26.0672 16.911 25.6269 16.8819 25.3291C16.9595 25.402 16.9885 25.5572 17.0209 25.7061C17.0791 25.9183 17.2212 26.0672 17.4473 26.1243C17.2955 25.6269 17.7026 25.6269 17.8028 25.2372C17.9191 24.7621 17.68 24.4262 17.3601 24.2584C17.5927 24.1095 17.7026 23.8402 17.5637 23.4601C17.4635 23.1844 17.1081 22.9785 16.8399 23.0356C17.1081 23.2826 16.9627 23.6026 16.6816 23.59C16.3262 23.5773 15.9869 23.1401 15.5281 22.8803C15.0079 22.6016 14.6234 22.5604 14.1225 22.1992C14.4618 22.1707 14.73 22.2848 14.9174 22.5192C14.9756 21.9997 14.52 21.8096 14.2228 21.61C13.6218 21.195 14.2809 20.2446 14.7462 20.1306C15.4053 19.9532 15.8415 20.3587 15.7736 20.8339C15.7026 21.3756 15.1727 21.233 14.9336 21.1253C14.9336 21.4295 15.2147 21.6354 15.331 21.6797C15.4667 21.7431 15.7188 21.7779 15.9416 21.6829C15.9352 21.7367 15.9255 21.7938 15.9255 21.8096C15.8803 22.2721 15.6282 22.3133 15.7155 22.5034C15.8383 22.6459 16.6493 22.6174 16.869 22.6618C17.2535 22.7125 17.5798 22.8518 17.9482 22.9247C18.3618 23.0102 18.8012 23.0102 19.1728 23.1591C19.4118 23.2605 19.6801 23.4506 19.9127 23.5646C20.2681 23.6216 20.2099 23.7642 20.4361 23.7642C20.6397 23.7642 20.7172 23.5931 20.9789 23.5234C21.1599 23.4822 21.3634 23.5519 21.5444 23.4949C21.6768 23.4664 21.735 23.3333 21.8578 23.2605C22.0032 23.1749 22.2067 23.1749 22.3425 23.0514C22.4135 22.988 22.4297 22.8677 22.4168 22.7822L22.42 22.8011C22.6979 22.6111 22.9079 22.3323 23.0242 22.0123C23.0953 21.9997 23.1535 21.9363 23.1535 21.8635C23.1535 21.8508 23.1535 21.8349 23.1535 21.8349C23.2246 21.7779 23.2698 21.6923 23.2698 21.6068C23.2698 21.4991 23.2278 21.4136 23.1535 21.3439C23.1535 21.3439 23.1535 21.328 23.1535 21.3154C23.1535 21.2584 23.1244 21.2172 23.0953 21.1792C22.979 20.5615 22.5008 20.0641 21.8836 19.9089C21.8836 19.893 21.8836 19.893 21.8836 19.8803H21.8707C21.8707 19.8518 21.8578 19.836 21.8352 19.836C21.7479 19.7505 21.6446 19.6174 21.6316 19.5319C21.7318 19.5604 21.8998 19.7156 21.987 19.779V18.9617C21.8998 19.025 21.735 19.1803 21.6316 19.2087C21.6446 19.1074 21.8029 18.93 21.8836 18.8603H21.0371C21.1147 18.93 21.2762 19.1074 21.2891 19.2087C21.189 19.1803 21.021 19.025 20.937 18.9617V19.779C21.0242 19.7156 21.189 19.5604 21.2891 19.5319C21.2762 19.6333 21.1147 19.8106 21.0371 19.8803L21.0662 19.893C20.4361 20.0356 19.9288 20.5488 19.8125 21.1792C19.7705 21.214 19.7415 21.2584 19.7415 21.3154C19.7415 21.328 19.7415 21.3439 19.7415 21.3439C19.6671 21.4136 19.6251 21.4991 19.6251 21.6068C19.6251 21.6892 19.6671 21.7779 19.7415 21.8349C19.7415 21.8349 19.7415 21.8476 19.7415 21.8635C19.7415 21.9553 19.7996 21.9997 19.8707 22.0123C19.8998 22.0915 19.9353 22.1707 19.9741 22.2404C19.9741 22.2341 19.9741 22.2341 19.9838 22.2246C19.9321 22.459 19.6412 22.6016 19.5767 22.6016C19.0597 22.6744 18.4878 22.459 17.9676 22.2689C17.7381 22.1834 17.4247 22.0852 17.2729 21.8635C17.1792 21.7019 17.1372 21.6005 17.1856 21.4579C17.2438 21.5276 17.3375 21.6068 17.47 21.6765C17.4829 21.6068 17.4829 21.5276 17.512 21.4706C17.6445 21.6639 17.8545 21.762 18.1065 21.7494C17.9546 21.6227 17.8836 21.2869 17.9546 20.9955C18.1647 21.3439 18.9627 21.4136 19.1081 20.7895C18.8109 20.9258 18.6203 20.7769 18.5653 20.6185C18.4781 20.3682 18.7689 19.7631 18.5071 19.2974C18.2972 18.949 18.058 18.7368 17.5023 18.6512C17.5443 18.5847 17.5605 18.5277 17.5734 18.4294C17.0596 18.6132 16.6169 18.4706 16.407 18.0683C16.5103 18.1095 16.659 18.1253 16.8044 18.1253C16.3488 17.761 16.3779 16.7315 16.7042 16.1992C16.7462 16.1707 16.7624 16.1423 16.8044 16.1296C16.9045 16.3291 17.2018 16.3291 17.3537 16.4907C17.4118 16.4337 17.4409 16.4179 17.4991 16.3703C17.4991 16.3703 17.512 17.2162 17.5701 17.5646C17.6283 17.9543 18.0128 17.9131 18.2099 18.0842C18.4426 17.8339 18.8626 17.8465 18.7979 17.4157C18.7398 16.9849 18.6525 16.5921 18.6396 16.3006C18.7689 16.5636 19.0241 17.5519 19.1243 17.8339C19.2891 18.2521 19.7027 18.1253 19.9353 18.29C20.0871 17.9986 20.4716 17.9131 20.3198 17.4727C20.2778 17.3587 19.6478 16.0599 19.554 15.8096C19.777 16.1296 20.3876 17.2732 20.5751 17.5931C20.7851 17.9257 21.1696 17.7642 21.4442 17.8465C21.4959 17.6058 21.8675 17.327 21.5961 16.9089C21.2568 16.3545 20.4587 15.3883 20.4168 15.252C20.5751 15.4009 21.8126 16.9089 21.9095 16.9912C22.1971 17.2383 22.6171 17.0482 22.8659 17.0482C22.8659 16.7726 23.0888 16.459 22.7658 16.1391C22.4685 15.8603 21.7867 15.3851 21.6413 15.2236C22.0969 15.5308 22.6333 16.0187 22.9531 16.0979C23.5186 16.2404 23.7221 16.0187 23.9321 15.9332C23.7577 15.4295 23.9903 15.1951 22.7948 14.704C23.8288 15.0652 24.2876 14.8877 24.6559 14.6026C24.5105 14.2415 24.1422 13.9374 23.8417 13.836C24.475 13.8487 24.895 13.5731 25.1697 13.2088C24.9371 12.9047 24.475 12.6829 23.9451 12.6259C24.727 12.5214 25.3506 12.0462 25.4217 11.4918ZM1.43731 15.2141C1.42438 15.2141 1.42438 15.2267 1.40823 15.2425C1.32099 15.2299 1.32099 15.1285 1.33715 15.043C1.37915 15.043 1.40823 15.0303 1.43731 15.0018L1.45024 15.0176L1.40823 15.0462C1.42438 15.1 1.42438 15.157 1.43731 15.2141ZM1.72165 15.8096L1.57948 15.7273C1.63764 15.6607 1.69257 15.6607 1.75073 15.6988C1.75073 15.7399 1.75073 15.7811 1.72165 15.8096ZM2.14815 14.9226C2.12877 14.9226 2.10938 14.9226 2.08999 14.9226C2.08676 14.9195 2.08353 14.9131 2.0803 14.91C2.10615 14.9036 2.13523 14.9036 2.15785 14.8972C2.15785 14.9036 2.15138 14.9131 2.14815 14.9226ZM10.3648 25.3006C10.0094 25.3006 9.75739 25.082 9.93831 24.7747C10.032 24.9141 10.2194 24.9775 10.381 24.9933C10.3648 25.139 10.3648 25.1802 10.3648 25.3006ZM15.7704 24.7747C15.9514 25.082 15.6993 25.3006 15.344 25.3006C15.344 25.1802 15.344 25.139 15.3148 24.9933C15.4796 24.9806 15.6735 24.9204 15.7704 24.7747ZM10.3519 5.97017C11.1629 5.79911 11.99 5.35243 12.3616 4.97546C12.6686 4.99446 13.066 4.99763 13.3665 4.97863C13.7316 5.35877 14.5458 5.79594 15.3601 5.967C14.8884 5.967 14.0644 5.92582 13.961 5.81178C13.9901 6.10323 14.6202 6.43265 15.0337 6.5214C14.6912 6.56255 14.3746 6.5214 14.1064 6.401C14.2518 6.60692 14.4198 6.76214 14.6945 6.85399C14.4069 7.20247 13.8124 7.42738 13.2244 7.37352C13.3697 7.54462 13.6379 7.6523 13.8705 7.62065C13.3406 8.44744 12.9497 9.29645 12.856 10.2785H12.8528V10.2817C12.7655 9.29644 12.3745 8.44744 11.8479 7.62065C12.087 7.64913 12.3487 7.54462 12.4844 7.37352C11.8899 7.43055 11.318 7.20247 11.0207 6.85399C11.2986 6.76214 11.4634 6.60692 11.6088 6.401C11.3471 6.5214 11.0207 6.56255 10.6815 6.5214C11.095 6.42949 11.7316 6.10323 11.7606 5.81178C11.6476 5.92899 10.8236 5.97017 10.3519 5.97017ZM2.91715 14.7104C2.84283 14.742 2.75236 14.7801 2.68451 14.8085C2.68451 14.8022 2.68451 14.7959 2.68451 14.7896C2.7556 14.7611 2.84607 14.7357 2.91715 14.7104ZM8.13212 18.4326C8.14826 18.5308 8.16124 18.5879 8.20321 18.6544C7.64426 18.7399 7.40839 18.9522 7.20482 19.3006C6.92047 19.7695 7.21773 20.3745 7.13696 20.6217C7.07878 20.7769 6.89464 20.9289 6.59737 20.7927C6.74278 21.42 7.53759 21.3471 7.74763 20.9986C7.81872 21.2901 7.74763 21.6259 7.60222 21.7525C7.851 21.7652 8.06104 21.667 8.1903 21.4738C8.21935 21.5308 8.21935 21.61 8.23227 21.6797C8.37121 21.61 8.45844 21.5308 8.51662 21.4611C8.53928 21.5308 8.56511 21.6955 8.53276 21.8286C8.42616 21.8983 8.30658 21.9648 8.11921 22.0599C7.82194 22.2024 7.27913 22.4083 6.96895 22.4495C6.71366 22.4907 6.27099 22.3481 6.15793 21.9997C6.05454 21.667 5.77343 21.5593 5.55049 21.7652C5.49233 21.7241 5.33401 21.6924 5.26615 21.7969C5.26615 21.7969 5.19507 21.6385 5.10783 21.5625C5.16599 21.3914 5.12076 21.1855 4.96243 21.1158C4.94951 20.78 4.73948 20.78 4.66517 20.666C4.62317 20.5963 4.62317 20.5076 4.72333 20.4949C4.68133 20.4316 4.59086 20.4189 4.57793 20.4189C4.60701 20.2763 4.56178 20.0989 4.36791 20.0419L2.64897 16.5636C2.75883 16.4495 2.70066 16.2848 2.57788 16.2278C2.57788 16.2278 2.57788 16.2151 2.57788 16.1992C2.58758 16.1707 2.59081 16.1518 2.59404 16.1296C2.63927 16.1232 2.69744 16.1105 2.7459 16.0979C3.08517 16.0187 3.61506 15.5308 4.07388 15.2236C3.91233 15.3883 3.24672 15.8635 2.94946 16.1391C2.67159 16.4083 2.78791 16.6776 2.83314 16.9215L2.89776 17.0577C3.14979 17.0736 3.52783 17.2225 3.80893 16.9944C3.89617 16.9089 5.13691 15.4009 5.3017 15.2552C5.23707 15.3914 4.45515 16.3577 4.09973 16.912C3.83801 17.3302 4.22251 17.6058 4.26775 17.8497C4.54885 17.7642 4.93335 17.9289 5.13691 17.5963C5.33401 17.2763 5.93499 16.1328 6.15793 15.8128C6.07069 16.0631 5.43417 17.3619 5.38893 17.4759C5.23707 17.9162 5.62157 18.0018 5.77343 18.2932C6.00607 18.1285 6.42291 18.2584 6.58446 17.8371C6.6846 17.5551 6.93984 16.5668 7.07233 16.3038C7.05618 16.5953 6.96895 16.988 6.91078 17.4189C6.85261 17.8529 7.26622 17.8371 7.48271 18.0873C7.69268 17.9162 8.07718 17.9575 8.13535 17.5678C8.19353 17.2194 8.20644 16.3735 8.20644 16.3735C8.26461 16.4242 8.29367 16.4369 8.3583 16.4939C8.50047 16.3291 8.80097 16.3291 8.90111 16.1328C8.94637 16.1454 8.95928 16.1739 9.00455 16.2025C9.33087 16.7346 9.35669 17.7642 8.90111 18.1285C9.0336 18.1285 9.19838 18.1127 9.29858 18.0715C9.09823 18.4738 8.64911 18.6164 8.13212 18.4326ZM11.3439 23.2985C11.0756 23.6597 10.8656 23.9225 10.6912 24.3724C10.3777 24.3439 10.4392 23.9669 10.5393 23.7768C10.7493 23.3999 11.6023 22.9088 12.0321 22.4178C11.8414 22.7315 11.5765 23.0166 11.3439 23.2985ZM12.2712 23.9669C12.0967 24.6322 11.9739 25.6142 12.0321 26.0546C11.4311 25.7473 11.7703 24.5625 12.003 24.0524C12.3261 23.3428 12.5523 22.4748 12.6266 21.9205C12.814 22.3418 12.3972 23.5171 12.2712 23.9669ZM13.6767 26.0546C13.7348 25.6142 13.6185 24.6322 13.4376 23.9669C13.3116 23.5171 12.898 22.3418 13.0822 21.9205C13.1533 22.4748 13.3794 23.3397 13.7058 24.0524C13.9384 24.5625 14.2776 25.7473 13.6767 26.0546ZM15.1694 23.7737C15.2729 23.9669 15.331 24.3407 15.0176 24.3692C14.8431 23.9194 14.6331 23.6597 14.3746 23.2954C14.1323 23.0166 13.8673 22.7283 13.6767 22.4146C14.1032 22.9088 14.9594 23.3967 15.1694 23.7737ZM15.0951 18.6892C14.31 20.1845 12.8722 21.4009 12.856 21.3851C12.8398 21.4041 11.402 20.1845 10.6168 18.6892C9.83171 17.1971 9.32764 14.8498 9.30181 13.7283C9.27269 12.6069 9.49887 12.1285 9.49887 12.1285C9.49887 12.1285 10.4811 12.0747 11.2663 11.8086C11.9319 11.5837 12.6557 11.0103 12.8592 10.8424C13.0628 11.0103 13.7865 11.5805 14.4554 11.8086C15.2373 12.0779 16.2195 12.1285 16.2195 12.1285C16.2195 12.1285 16.4425 12.6101 16.4134 13.7283C16.3811 14.8498 15.8771 17.1971 15.0951 18.6892Z" fill="#706F6F"/>
<path id="Vector_9" d="M41.9876 15.1985C42.482 15.0939 43.0216 15.021 43.6064 14.9831C44.1913 14.9418 44.7632 14.9229 45.3318 14.9229C45.9328 14.9229 46.5436 14.9736 47.1607 15.0781C47.7811 15.1826 48.3433 15.3727 48.8506 15.6515C49.3579 15.9302 49.7714 16.3135 50.0978 16.8046C50.4209 17.2956 50.5857 17.9292 50.5857 18.7021C50.5857 19.4307 50.437 20.0517 50.1431 20.5649C49.849 21.078 49.4548 21.4994 48.9669 21.8225C48.479 22.1456 47.9168 22.3832 47.2867 22.5321C46.6566 22.681 46.0039 22.757 45.3318 22.757C45.2608 22.757 45.1509 22.7538 45.0055 22.7475C44.8569 22.7412 44.705 22.7349 44.5467 22.7317C44.3884 22.7254 44.2332 22.7159 44.0879 22.7064C43.9393 22.6936 43.8326 22.6841 43.7615 22.6715V27.2142H41.9941V15.1985H41.9876ZM45.3836 16.4466C45.0637 16.4466 44.7567 16.4529 44.4562 16.4624C44.1557 16.4751 43.9231 16.5036 43.7583 16.5479V21.1446C43.8165 21.1667 43.9134 21.1826 44.0491 21.1889C44.1848 21.1953 44.327 21.2016 44.4724 21.2143C44.621 21.2269 44.76 21.2301 44.8956 21.2301C45.0313 21.2301 45.1348 21.2301 45.2059 21.2301C45.6291 21.2301 46.0492 21.1984 46.4628 21.1351C46.8763 21.0717 47.2479 20.9513 47.5872 20.7676C47.9232 20.5838 48.1947 20.3304 48.4015 19.9978C48.6083 19.6684 48.7116 19.2407 48.7116 18.7148C48.7116 18.2586 48.6115 17.8848 48.4111 17.5871C48.2108 17.2924 47.9523 17.058 47.6325 16.8869C47.3158 16.7159 46.9571 16.5987 46.5629 16.5353C46.1655 16.4783 45.7713 16.4466 45.3836 16.4466Z" fill="#706F6F"/>
<path id="Vector_10" d="M50.9894 22.6711C50.9894 21.9203 51.0896 21.2456 51.2899 20.65C51.4902 20.0544 51.7842 19.5476 52.1752 19.1326C52.563 18.7176 53.0379 18.3977 53.6002 18.1791C54.1591 17.9605 54.7989 17.8496 55.5195 17.8496C56.2723 17.8496 56.9347 17.97 57.5001 18.2139C58.0656 18.4578 58.5374 18.7936 58.9154 19.2276C59.2935 19.6616 59.5714 20.1685 59.7555 20.7545C59.9397 21.3374 60.0302 21.9774 60.0302 22.6711C60.0302 23.4093 59.9267 24.0745 59.72 24.6637C59.5132 25.2529 59.2191 25.7566 58.8347 26.1716C58.4501 26.5866 57.9784 26.9066 57.4194 27.1252C56.8604 27.3437 56.2271 27.4546 55.5195 27.4546C54.7407 27.4546 54.0687 27.3342 53.5032 27.0903C52.9378 26.8464 52.4692 26.5138 52.0977 26.0861C51.7261 25.6584 51.4482 25.1516 51.2673 24.5687C51.0799 23.9858 50.9894 23.3522 50.9894 22.6711ZM52.7568 22.6711C52.7568 23.0988 52.8053 23.5169 52.9054 23.9288C53.0057 24.3406 53.164 24.7049 53.3869 25.0312C53.6099 25.3575 53.8942 25.6141 54.2431 25.8105C54.5921 26.0069 55.0219 26.1051 55.5356 26.1051C57.3515 26.1051 58.2595 24.9615 58.2595 22.6743C58.2595 22.2244 58.211 21.7904 58.1109 21.3723C58.0107 20.9573 57.8556 20.5898 57.6391 20.273C57.4226 19.9562 57.1415 19.6997 56.7925 19.5001C56.4436 19.3037 56.0235 19.2055 55.5356 19.2055C54.6277 19.2055 53.9394 19.4906 53.4677 20.064C52.9927 20.631 52.7568 21.5021 52.7568 22.6711Z" fill="#706F6F"/>
<path id="Vector_11" d="M68.9383 26.5866C68.5248 26.8749 68.043 27.0935 67.4873 27.2361C66.9317 27.3818 66.3499 27.4546 65.7359 27.4546C64.9574 27.4546 64.2949 27.3374 63.7455 27.1062C63.1966 26.8749 62.754 26.5518 62.4113 26.1368C62.0687 25.7218 61.8232 25.2181 61.6681 24.6289C61.5162 24.0397 61.4387 23.3871 61.4387 22.6711C61.4387 21.1347 61.82 19.9467 62.5795 19.1072C63.3388 18.2709 64.434 17.8496 65.8589 17.8496C66.4828 17.8496 67.0254 17.9035 67.4873 18.0143C67.9462 18.1252 68.3596 18.2615 68.7247 18.423L68.305 19.7218C67.9884 19.5603 67.6457 19.4336 67.2775 19.3417C66.9093 19.2498 66.5083 19.2023 66.0755 19.2023C64.1658 19.2023 63.2128 20.3586 63.2128 22.6711C63.2128 23.1115 63.2643 23.536 63.3711 23.9446C63.4773 24.3564 63.6455 24.7207 63.8814 25.0375C64.1174 25.3543 64.4241 25.6141 64.8022 25.8105C65.1834 26.0069 65.649 26.1051 66.1985 26.1051C66.6896 26.1051 67.1223 26.0386 67.4905 25.9055C67.8592 25.7725 68.1659 25.6141 68.4149 25.4304L68.9383 26.5866Z" fill="#706F6F"/>
<path id="Vector_12" d="M77.1776 26.5866C76.7641 26.8749 76.2824 27.0935 75.7267 27.2361C75.171 27.3818 74.5893 27.4546 73.9753 27.4546C73.1967 27.4546 72.5343 27.3374 71.9848 27.1062C71.436 26.8749 70.9933 26.5518 70.6506 26.1368C70.3079 25.7218 70.0626 25.2181 69.9074 24.6289C69.7553 24.0397 69.6777 23.3871 69.6777 22.6711C69.6777 21.1347 70.0595 19.9467 70.8189 19.1072C71.5782 18.2709 72.6733 17.8496 74.0982 17.8496C74.7222 17.8496 75.2648 17.9035 75.7267 18.0143C76.1855 18.1252 76.599 18.2615 76.9641 18.423L76.5444 19.7218C76.2277 19.5603 75.885 19.4336 75.5168 19.3417C75.1481 19.2498 74.7476 19.2023 74.3149 19.2023C72.4051 19.2023 71.4521 20.3586 71.4521 22.6711C71.4521 23.1115 71.5037 23.536 71.6104 23.9446C71.7166 24.3564 71.8849 24.7207 72.1208 25.0375C72.3536 25.3543 72.6634 25.6141 73.0446 25.8105C73.4264 26.0069 73.8915 26.1051 74.4409 26.1051C74.932 26.1051 75.3647 26.0386 75.7329 25.9055C76.1017 25.7725 76.4084 25.6141 76.6543 25.4304L77.1776 26.5866Z" fill="#706F6F"/>
<path id="Vector_13" d="M85.2394 22.0121L85.4878 20.2097H85.2941L84.428 21.9076L80.0789 27.2138H78.8254V18.1094H80.4539V23.4821L80.3309 25.0787H80.5247L81.3392 23.536L85.6008 18.1094H86.8741V27.2107H85.2456V22.0121H85.2394Z" fill="#706F6F"/>
<path id="Vector_14" d="M95.6915 22.0121L95.9404 20.2097H95.7461L94.8806 21.9076L90.5316 27.2138H89.2774V18.1094H90.9028V23.4821L90.7799 25.0787H90.9742L91.7882 23.536L96.0503 18.1094H97.3231V27.2107H95.6946V22.0121H95.6915Z" fill="#706F6F"/>
<path id="Vector_15" d="M51.9751 4.9311L52.1657 3.13808H52.072L51.3514 4.77587L47.9038 10.1708H47.4288L43.7744 4.76004L43.0926 3.13808H42.9989L43.2639 4.91209V12.9522H41.7873V1.00293H42.9601L47.109 7.11378L47.7326 8.44427H47.7714L48.3594 7.0789L52.3176 1.00293H53.5486V12.949H51.9751V4.9311Z" fill="#706F6F" stroke="#706F6F" stroke-width="0.559211" stroke-miterlimit="10"/>
<path id="Vector_16" d="M62.5249 7.89947L62.5826 6.84137H62.5249L61.7492 7.93435L57.4874 12.9523H56.615V4.41797H58.1304V9.62281L58.0722 10.6302H58.1465L58.8864 9.57211L63.1482 4.41797H64.0366V12.9523H62.5218V7.89947H62.5249Z" fill="#706F6F" stroke="#706F6F" stroke-width="0.559211" stroke-miterlimit="10"/>
<path id="Vector_17" d="M72.7509 9.17931H68.4695V12.9523H66.954V4.41797H68.4695V7.98499H72.7509V4.41797H74.2664V12.9523H72.7509V9.17931Z" fill="#706F6F" stroke="#706F6F" stroke-width="0.559211" stroke-miterlimit="10"/>
<path id="Vector_18" d="M85.6883 15.1191H84.6639L84.3795 12.9523H77.1838V4.41797H78.6993V11.7579H82.8094V4.41797H84.3249V11.7579H85.6883V15.1191Z" fill="#706F6F" stroke="#706F6F" stroke-width="0.559211" stroke-miterlimit="10"/>
<path id="Vector_19" d="M93.4719 7.89947L93.5303 6.84137H93.4719L92.6965 7.93435L88.4343 12.9523H87.562V4.41797H89.0775V9.62281L89.0192 10.6302H89.0968L89.8368 9.57211L94.099 4.41797H94.9874V12.9523H93.4719V7.89947Z" fill="#706F6F" stroke="#706F6F" stroke-width="0.559211" stroke-miterlimit="10"/>
<path id="Vector_20" d="M102.163 13.0187C101.947 13.0884 101.724 13.1264 101.491 13.1391C101.259 13.1517 101.045 13.1549 100.858 13.1549C99.7078 13.1549 98.8255 12.7906 98.2053 12.062C97.5851 11.3334 97.2777 10.2088 97.2777 8.68191C97.2777 7.22463 97.6173 6.12855 98.3021 5.38728C98.9838 4.64916 99.9691 4.27852 101.256 4.27852C101.608 4.27852 101.911 4.3007 102.163 4.34821V1.00293H103.604V4.36405C103.831 4.32921 104.034 4.30703 104.212 4.29436C104.39 4.28169 104.558 4.27852 104.722 4.27852C105.973 4.27852 106.913 4.60481 107.543 5.26056C108.173 5.91632 108.49 6.99971 108.49 8.5108C108.49 9.22675 108.406 9.873 108.235 10.4464C108.063 11.0198 107.815 11.5077 107.485 11.9068C107.156 12.306 106.755 12.6132 106.283 12.8286C105.808 13.0441 105.262 13.1517 104.645 13.1517C104.532 13.1517 104.364 13.1422 104.144 13.1264C103.924 13.1106 103.743 13.0789 103.604 13.0314V16.3608H102.163V13.0187ZM101.236 12.0303C101.388 12.0303 101.54 12.024 101.691 12.0145C101.843 12.0018 102.008 11.9796 102.182 11.9448V5.47598C102.031 5.4538 101.889 5.43479 101.756 5.42529C101.624 5.41262 101.462 5.40945 101.275 5.40945C100.493 5.40945 99.8822 5.67239 99.4458 6.20458C99.0099 6.73365 98.7932 7.56044 98.7932 8.68824C98.7932 9.16655 98.8417 9.61004 98.9354 10.0187C99.0292 10.4274 99.1776 10.7854 99.3812 11.0863C99.5817 11.3873 99.84 11.6217 100.147 11.7864C100.454 11.948 100.819 12.0303 101.236 12.0303ZM104.435 5.40629C104.283 5.40629 104.147 5.40945 104.028 5.41579C103.908 5.42213 103.759 5.44747 103.582 5.49182V11.9765C103.708 11.9986 103.85 12.0145 104.008 12.0177C104.167 12.024 104.341 12.0272 104.529 12.0272C105.336 12.0272 105.947 11.7262 106.357 11.1211C106.767 10.5193 106.974 9.64809 106.974 8.5108C106.974 7.54462 106.787 6.7843 106.415 6.23312C106.044 5.68506 105.385 5.40629 104.435 5.40629Z" fill="#706F6F" stroke="#706F6F" stroke-width="0.559211" stroke-miterlimit="10"/>
<path id="Vector_21" d="M110.781 4.41782H111.821L112.106 5.44105H112.18C112.471 5.0419 112.846 4.73778 113.308 4.5287C113.769 4.31962 114.296 4.21191 114.888 4.21191C116.151 4.21191 117.091 4.54771 117.708 5.2193C118.325 5.89089 118.636 6.99018 118.636 8.51393C118.636 9.22981 118.532 9.87607 118.322 10.4495C118.112 11.0228 117.821 11.5107 117.44 11.9099C117.062 12.309 116.603 12.6163 116.067 12.8317C115.531 13.0471 114.933 13.1549 114.277 13.1549C113.809 13.1549 113.44 13.1295 113.168 13.0788C112.897 13.0281 112.603 12.9394 112.286 12.8127V16.3639H110.771V4.41782H110.781ZM114.606 5.40621C113.963 5.40621 113.453 5.55826 113.082 5.85921C112.71 6.16016 112.448 6.61948 112.296 7.23408V11.4663C112.522 11.6248 112.781 11.7483 113.072 11.8338C113.362 11.9194 113.747 11.9605 114.228 11.9605C115.101 11.9605 115.792 11.6691 116.303 11.083C116.814 10.497 117.069 9.63533 117.069 8.49804C117.069 8.03239 117.023 7.60788 116.936 7.22775C116.849 6.84762 116.707 6.5213 116.509 6.25518C116.312 5.9891 116.06 5.78002 115.754 5.63112C115.443 5.48224 115.062 5.40621 114.606 5.40621Z" fill="#706F6F" stroke="#706F6F" stroke-width="0.559211" stroke-miterlimit="10"/>
<path id="Vector_22" d="M122.542 7.67772C122.846 7.63335 123.136 7.6017 123.414 7.58271C123.692 7.56682 123.957 7.55732 124.209 7.55732C124.852 7.55732 125.392 7.62385 125.828 7.75375C126.264 7.88364 126.613 8.06418 126.878 8.29226C127.143 8.5204 127.33 8.78963 127.437 9.10329C127.544 9.41689 127.598 9.74954 127.598 10.1011C127.598 11.1371 127.279 11.8878 126.642 12.3535C126.006 12.8192 124.972 13.0536 123.547 13.0536C122.739 13.0536 121.899 13.0188 121.027 12.9523V4.41797H122.542V7.67772ZM122.542 11.7579C123.007 11.8276 123.456 11.8593 123.886 11.8593C124.681 11.8593 125.237 11.7199 125.553 11.4412C125.87 11.1624 126.028 10.7664 126.028 10.2564C126.028 9.80018 125.873 9.42638 125.563 9.12861C125.253 8.834 124.713 8.68511 123.944 8.68511C123.727 8.68511 123.495 8.69144 123.243 8.70094C122.991 8.7136 122.758 8.74531 122.542 8.80235V11.7579ZM129.095 4.41797H130.61V12.9523H129.095V4.41797Z" fill="#706F6F" stroke="#706F6F" stroke-width="0.559211" stroke-miterlimit="10"/>
</g>
</g>
</g>
</g>
<defs>
<clipPath id="clip0_1016_4169">
<rect width="131" height="28" fill="white"/>
</clipPath>
</defs>
</svg>
