<svg width="44" height="44" viewBox="0 0 44 44" fill="none" xmlns="http://www.w3.org/2000/svg">
<g id="Group 20">
<path id="Vector" opacity="0.5" d="M39.3486 10.1571C35.8811 3.67675 27.8793 1.17856 21.3356 4.50492C17.4457 6.48231 14.6908 10.334 14.0783 14.6573C14.0664 14.7375 14.0209 14.7759 13.9399 14.7713C12.9679 14.7175 12.0014 14.764 11.0403 14.9127C11.0175 14.9163 10.9975 14.8963 11.0003 14.8734C11.6473 9.2377 14.9793 4.28875 20.0668 1.75317C26.6388 -1.52394 34.4576 -0.114772 39.497 5.21087C45.5702 11.6292 45.4828 21.7432 39.3404 28.0722C36.6301 30.8659 33.3018 32.5076 29.3555 32.9992C29.3191 33.0038 29.3027 32.9883 29.3073 32.9518C29.4301 31.9631 29.4684 30.9717 29.4229 29.9775C29.422 29.9602 29.4301 29.951 29.4465 29.9483C38.6069 28.4288 43.8246 18.5227 39.3486 10.1571Z" fill="white"/>
<path id="Vector_2" opacity="0.5" d="M30.5637 17.9978C29.9502 19.249 28.5399 19.9712 26.9585 19.7652C24.323 19.4208 23.2596 16.6281 25.1814 15.081C26.4291 14.0771 28.2525 14.0445 29.6137 14.9632C29.6714 15.0022 29.7281 15.0189 29.7848 15.0134C31.8351 14.8328 33.8854 14.6578 35.9366 14.4876C36.3497 14.4534 36.5908 14.4391 36.6607 14.4446C37.5899 14.5194 37.6485 15.4787 36.8063 15.7793C34.7513 16.5135 32.6906 17.2358 30.6252 17.9461C30.5959 17.9564 30.576 17.9731 30.5637 17.9978Z" fill="white"/>
<path id="Vector_3" d="M8.016 20.06C8.67513 20.3409 9.45671 20.2968 9.98347 19.7997C10.1591 19.6349 10.3355 19.3477 10.5129 18.9398C10.8254 18.2195 11.1171 17.4883 11.3882 16.7464C11.3981 16.7203 11.417 16.704 11.4449 16.6995C12.9387 16.442 14.4344 16.4339 15.9318 16.6743C15.9651 16.6797 15.9885 16.6977 16.002 16.7284C16.02 16.7689 16.0281 16.8103 16.0272 16.8544C16.0263 16.8841 16.0308 16.9129 16.0426 16.94C16.2821 17.5225 16.5279 18.1015 16.7809 18.6778C17.0438 19.2775 17.1393 19.5881 17.5769 19.8871C18.0713 20.2247 18.607 20.2923 19.186 20.0906C19.7218 19.9042 20.5241 19.5494 21.5911 19.0263C21.619 19.0127 21.646 19.0146 21.6712 19.0335C22.9093 19.9249 23.9827 20.9829 24.8894 22.2075C24.9083 22.2327 24.911 22.2597 24.8975 22.2876C24.558 23.0098 24.2438 23.74 23.9548 24.4784C23.6225 25.3257 23.7224 26.0055 24.2537 26.5187C24.4581 26.7168 24.8408 26.9302 25.4018 27.1599C26.0168 27.4111 26.6345 27.6533 27.2558 27.8856C27.281 27.8946 27.2954 27.9126 27.2999 27.9387C27.561 29.4442 27.5664 30.9507 27.317 32.458C27.3107 32.4949 27.29 32.5129 27.2531 32.5129H27.1558C27.1279 32.5129 27.1018 32.5183 27.0757 32.5291C26.5228 32.7659 25.9699 33.0018 25.4162 33.2351C24.4815 33.6304 23.7711 34.0184 23.8062 35.071C23.8161 35.3619 23.9484 35.8031 24.2033 36.3956C24.4491 36.9655 24.703 37.5319 24.9668 38.0947C24.9804 38.1226 24.9777 38.1487 24.9596 38.1739C24.0655 39.4183 23.0012 40.4943 21.7658 41.4011C21.7406 41.42 21.7144 41.4209 21.6883 41.4038C21.0931 41.0238 20.2908 40.7708 19.6317 40.5042C18.8249 40.1792 18.0631 40.1225 17.4499 40.7735C17.2825 40.9509 17.0961 41.2903 16.8908 41.7919C16.6513 42.3753 16.2695 43.0921 16.1713 43.7062C16.165 43.7485 16.1326 43.7818 16.0912 43.789C14.5901 44.06 13.0864 44.07 11.5809 43.8187C11.5547 43.8142 11.5367 43.7998 11.5268 43.7746C11.1342 42.7364 10.7966 41.9233 10.5147 41.3371C10.1699 40.6195 9.6359 40.2746 8.91374 40.3025C8.64001 40.3134 8.26452 40.4196 7.78729 40.6213C7.15338 40.8896 6.52487 41.1706 5.90086 41.4641C5.87295 41.4767 5.84683 41.474 5.82252 41.4569C4.58621 40.5628 3.51378 39.5021 2.60524 38.2739C2.58453 38.246 2.58183 38.2162 2.59803 38.1847C2.87987 37.6409 3.09688 37.0988 3.33099 36.5342C3.7398 35.5474 4.02344 34.7667 3.25716 33.9815C3.09598 33.8167 2.84565 33.6601 2.50799 33.5133C1.76332 33.1882 1.01415 32.8929 0.260482 32.6273C0.231668 32.6174 0.210057 32.5922 0.204654 32.5615C-0.0609765 31.0605 -0.06818 29.5577 0.183944 28.0531C0.188446 28.0252 0.205555 28.0081 0.233468 28.0018C0.901597 27.8613 1.67598 27.4426 2.31169 27.1662C3.70738 26.5593 3.99012 25.7354 3.39583 24.3325C3.04735 23.5113 2.82224 22.9071 2.5224 22.4254C2.50529 22.3993 2.50619 22.3732 2.5251 22.347C3.41924 21.1018 4.48266 20.0221 5.71357 19.1082C5.73788 19.0902 5.76309 19.0875 5.79101 19.101C6.52127 19.4522 7.27043 19.7421 8.016 20.06ZM21.2642 30.2501C21.2642 26.1 17.8993 22.7351 13.7491 22.7351C9.59898 22.7351 6.23402 26.1 6.23402 30.2501C6.23402 34.4002 9.59898 37.7651 13.7491 37.7651C17.8993 37.7651 21.2642 34.4002 21.2642 30.2501Z" fill="white"/>
</g>
</svg>
