<svg width="46" height="41" viewBox="0 0 46 41" fill="none" xmlns="http://www.w3.org/2000/svg">
<g id="Group 15">
<path id="Union" opacity="0.5" fill-rule="evenodd" clip-rule="evenodd" d="M41.9035 39.381C41.8896 38.5804 41.8786 37.9536 42.4652 37.2166C43.2025 36.9098 43.9941 36.7901 44.84 36.8587C45.3362 36.8979 45.6479 36.7303 45.7684 36.2495C45.7861 36.1778 45.8095 36.0971 45.8345 36.0105C45.9767 35.5184 46.1739 34.836 45.7076 34.5502C45.5667 34.4637 45.408 34.3747 45.2432 34.2824C44.7363 33.9982 44.172 33.6819 43.8909 33.3067C43.2384 32.4365 43.7309 31.6125 44.1609 30.893C44.4981 30.3289 44.7968 29.8291 44.4751 29.4218C44.3318 29.2401 44.0278 28.9692 43.5641 28.608C43.071 28.2242 42.5347 28.5566 41.9579 28.9142C41.0878 29.4534 40.1254 30.05 39.0794 28.3328C39.0235 28.2409 38.9673 28.1348 38.9083 28.0233C38.638 27.5129 38.3084 26.8905 37.6819 27.0164C37.6245 27.0278 37.5608 27.0388 37.4928 27.0505L37.4926 27.0505C36.9367 27.1462 36.0969 27.2907 36.1182 28.1087C36.1378 28.8604 36.0639 29.6002 35.8978 30.328C35.5145 30.8382 35.0215 31.0982 34.4177 31.108C34.2887 31.1101 34.1405 31.1023 33.9833 31.0942C33.301 31.0586 32.4497 31.0142 32.259 31.7216C32.23 31.8297 32.196 31.9373 32.1623 32.0438C31.9803 32.6196 31.8084 33.1635 32.4946 33.5656C32.6248 33.6421 32.7578 33.715 32.8903 33.7877L32.8905 33.7877C33.5922 34.1724 34.2793 34.549 34.4547 35.4129C34.5366 36.0422 34.1382 36.7059 33.7908 37.2847C33.7052 37.4273 33.6227 37.5648 33.5512 37.6953C33.2392 38.2664 33.4991 38.5392 33.8982 38.9582C33.9173 38.9782 33.9366 38.9985 33.9562 39.0193C34.4514 39.5404 34.788 39.8363 35.4884 39.4065C36.0064 39.0878 36.5472 38.8158 37.1107 38.5906C38.275 38.421 38.7223 39.2413 39.1198 39.9701C39.4541 40.5832 39.7532 41.1316 40.414 40.972C40.5006 40.9511 40.5922 40.9324 40.6857 40.9132C41.2571 40.7964 41.8977 40.6654 41.907 39.9277C41.9097 39.7354 41.9066 39.5541 41.9035 39.381ZM36.0559 37.1081C36.0564 37.1081 36.0569 37.1084 36.0574 37.1089L36.0559 37.1081ZM37.4408 33.2099C37.6167 32.8998 37.86 32.6561 38.1694 32.4799C38.9621 32.073 39.9687 32.32 40.4313 33.0652C41.4629 34.7253 39.4486 36.5737 37.8915 35.3432C37.2475 34.8352 37.0966 34.1237 37.4408 33.2099Z" fill="white"/>
<g id="Vector">
<path d="M12.0921 18.6106C13.0604 23.5232 19.6501 23.7277 20.8401 18.8073C20.8897 20.6174 20.9054 22.4287 20.8885 24.2423C20.8863 24.4715 20.8401 24.6569 20.7489 24.7974C20.2738 25.53 19.506 25.1142 18.7426 25.3805C18.236 25.5581 17.9523 25.3547 17.5503 25.3243C17.1439 25.294 16.6992 25.3592 16.2139 25.5187C15.9235 25.6142 15.6161 25.3715 15.3616 25.339C14.9304 25.2839 14.4947 25.3266 14.0534 25.4682C13.7877 25.5524 13.5434 25.5131 13.3193 25.3502C13.2867 25.3266 13.2506 25.3165 13.2112 25.3187C12.8509 25.3401 12.494 25.3142 12.1416 25.2412C12.0966 25.2322 12.073 25.2041 12.0718 25.158C12.0369 24.1086 12.0685 22.9838 12.055 22.0197C12.0403 20.8815 12.0527 19.7455 12.0921 18.6106Z" fill="white"/>
<path d="M28.5647 17.9634C28.4555 18.0196 28.3373 18.0376 28.209 18.0185C28.1718 18.0128 28.1392 18.0218 28.1088 18.0443L27.6967 18.36C27.6472 18.3983 27.6156 18.387 27.6033 18.3252C27.5931 18.2735 27.61 18.232 27.6528 18.2016C27.8926 18.0319 28.0356 17.814 28.0818 17.5477C28.0896 17.5061 28.1088 17.4701 28.1414 17.442L28.4105 17.2139C28.4781 17.1555 28.4465 17.0454 28.3576 17.0319C27.8273 16.951 27.261 16.9319 26.8681 17.3218C26.6271 17.5611 26.3479 17.7488 26.0315 17.8859C25.9978 17.9005 25.9696 17.9218 25.9482 17.9499C25.8064 18.1342 25.6251 18.2735 25.4033 18.369C25.3436 18.3949 25.2907 18.3207 25.3346 18.2724L25.6915 17.8803C25.7163 17.8533 25.7276 17.8218 25.7242 17.7859C25.7005 17.5196 25.8131 17.3319 26.0597 17.2229C26.1137 17.1993 26.1081 17.1207 26.0518 17.1049C25.6037 16.9757 25.1747 17.0061 24.7649 17.196C24.7255 17.2151 24.6996 17.2443 24.6861 17.2847C24.6264 17.4679 24.5161 17.5982 24.3529 17.6758C23.925 17.8791 23.5738 18.1645 23.1617 18.4129C23.0536 18.478 22.9298 18.3544 22.9951 18.2466L23.2461 17.8342C23.2608 17.8095 23.2529 17.7769 23.2281 17.7623C23.0378 17.6499 22.5323 17.669 22.5019 17.5106C22.4963 17.4757 22.4772 17.4499 22.4445 17.4331C22.1732 17.2881 21.4537 18.1027 21.1396 18.0117C21.0788 17.9937 21.0743 17.9668 21.1272 17.9319L21.2196 17.8713C21.2511 17.8499 21.268 17.8196 21.2713 17.7814C21.2882 17.5398 21.4019 17.3656 21.6125 17.2589C21.6451 17.242 21.6643 17.2162 21.6722 17.1814C21.7059 17.0184 21.5629 16.9948 21.4323 17.0139C21.1768 17.051 20.9392 16.9926 20.7208 16.8398C19.3697 12.4958 13.4375 12.6138 12.2114 16.9521C12.1799 16.9555 12.1507 16.9645 12.1236 16.9813C12.0944 17.0005 12.0808 17.0263 12.0842 17.06C12.1045 17.3319 11.4323 17.2656 11.2229 17.2578C11.1869 17.2566 11.1554 17.2679 11.1295 17.2926C10.7568 17.642 10.3121 17.8005 9.9597 18.1836C9.86513 18.2848 9.48346 18.5713 9.4373 18.3095C9.43167 18.2758 9.43955 18.2454 9.46094 18.2185L9.79645 17.8005C9.83698 17.7499 9.80321 17.6746 9.73791 17.6724C9.6287 17.6679 9.18398 17.5578 9.30107 17.3623C9.31458 17.3387 9.30782 17.3252 9.28193 17.3218C9.10404 17.2982 8.94867 17.3409 8.81469 17.4488C8.77979 17.4769 8.74376 17.4791 8.70548 17.4566L8.61654 17.4061C8.58501 17.3881 8.55574 17.3904 8.52872 17.4139C8.41275 17.5128 7.95903 17.9465 7.88359 17.5825C7.88022 17.5668 7.88472 17.5533 7.89598 17.5409C7.90273 17.5342 7.90949 17.5274 7.91737 17.5196C7.92525 17.5117 7.91624 17.4892 7.8881 17.451C7.88022 17.4398 7.87121 17.4331 7.8622 17.4308C7.84081 17.4252 7.82505 17.4319 7.81604 17.4533L7.7361 17.6499C7.70908 17.7162 7.68094 17.7173 7.65279 17.651C7.52219 17.342 7.2092 17.4173 6.95137 17.3499C6.91197 17.3398 6.87594 17.3454 6.84216 17.369C6.74646 17.4342 6.64851 17.4465 6.54831 17.4061C6.50778 17.3892 6.46725 17.3892 6.42559 17.405L5.90994 17.5982C5.84576 17.6229 5.82437 17.6027 5.84802 17.5375C5.87729 17.4533 5.92458 17.3791 5.98988 17.3151C6.02703 17.2791 6.02028 17.2611 5.96849 17.2611H5.85477C5.81762 17.2611 5.80523 17.2432 5.81987 17.2083C5.85027 17.1308 5.82775 17.0825 5.75119 17.0623C5.30647 16.9443 4.86963 16.978 4.44068 17.1611C4.42942 17.1656 4.42266 17.1623 4.42041 17.151C4.40803 17.0971 4.34272 17.1623 4.33034 17.1769C4.15808 16.3825 3.78542 15.6982 3.21235 15.1229C2.37357 14.2835 1.53705 13.4419 0.702779 12.6003C-0.184408 11.707 -0.165269 10.8823 0.415682 9.82941C0.844639 9.05298 1.42446 7.78214 2.07071 7.32145C2.55259 6.97874 3.12903 6.8956 3.79893 7.07088C5.09256 7.41022 6.38618 7.74843 7.68206 8.08552C7.86333 8.13159 8.13917 8.15182 8.50958 8.1462C9.91242 8.12373 11.1666 7.39112 11.8692 6.2304C12.0752 5.88769 12.2903 5.31576 12.5121 4.51236C12.7451 3.66402 12.9804 2.8168 13.2157 1.96958C13.6109 0.545932 14.1356 0.0504087 15.6105 0.0436669C17.315 0.0358015 19.1367 -0.404665 19.7334 1.69316C20.2142 3.38423 20.5148 4.46293 20.633 4.92811C21.1047 6.77312 22.4929 8.07092 24.4474 8.14283C24.8246 8.15631 25.3504 8.07766 26.027 7.90574C27.0155 7.65517 28.0029 7.40123 28.9892 7.14392C30.9054 6.64278 31.3862 7.75181 32.1811 9.16422C32.7901 10.244 33.2912 10.9014 32.8037 11.9272C32.6809 12.1845 32.3882 12.5419 31.9232 12.9992C30.2063 14.6869 28.692 15.8015 28.5647 17.9634Z" fill="white"/>
<path d="M20.7208 16.8398C20.9392 16.9926 21.1768 17.051 21.4323 17.0139C21.5629 16.9948 21.7059 17.0184 21.6722 17.1814C21.6643 17.2162 21.6451 17.242 21.6125 17.2589C21.4019 17.3656 21.2882 17.5398 21.2713 17.7814C21.268 17.8196 21.2511 17.8499 21.2196 17.8713L21.1272 17.9319C21.0743 17.9668 21.0788 17.9937 21.1396 18.0117C21.4537 18.1027 22.1732 17.2881 22.4445 17.4331C22.4772 17.4499 22.4963 17.4757 22.5019 17.5106C22.5323 17.669 23.0378 17.6499 23.2281 17.7623C23.2529 17.7769 23.2608 17.8095 23.2461 17.8342L22.9951 18.2466C22.9298 18.3544 23.0536 18.478 23.1617 18.4129C23.5738 18.1645 23.925 17.8791 24.3529 17.6758C24.5161 17.5982 24.6264 17.4679 24.6861 17.2847C24.6996 17.2443 24.7255 17.2151 24.7649 17.196C25.1747 17.0061 25.6037 16.9757 26.0518 17.1049C26.1081 17.1207 26.1137 17.1993 26.0597 17.2229C25.8131 17.3319 25.7005 17.5196 25.7242 17.7859C25.7276 17.8218 25.7163 17.8533 25.6915 17.8803L25.3346 18.2724C25.2907 18.3207 25.3436 18.3949 25.4033 18.369C25.6251 18.2735 25.8064 18.1342 25.9482 17.9499C25.9696 17.9218 25.9978 17.9005 26.0315 17.8859C26.3479 17.7488 26.6271 17.5611 26.8681 17.3218C27.261 16.9319 27.8273 16.951 28.3576 17.0319C28.4465 17.0454 28.4781 17.1555 28.4105 17.2139L28.1414 17.442C28.1088 17.4701 28.0896 17.5061 28.0818 17.5477C28.0356 17.814 27.8926 18.0319 27.6528 18.2016C27.61 18.232 27.5931 18.2735 27.6033 18.3252C27.6156 18.387 27.6472 18.3983 27.6967 18.36L28.1088 18.0443C28.1392 18.0218 28.1718 18.0128 28.209 18.0185C28.3373 18.0376 28.4555 18.0196 28.5647 17.9634C28.5681 19.1174 28.9723 20.1006 29.7784 20.9152C30.6454 21.7905 31.5157 22.6624 32.3882 23.5333C33.7449 24.8872 32.4028 26.5064 31.6823 27.7211C30.9865 28.8941 30.329 29.2638 28.9971 28.9144C27.9703 28.6447 26.9435 28.3784 25.9156 28.1143C25.2119 27.9334 24.6794 27.8525 24.318 27.8739C22.5199 27.975 21.1148 29.2492 20.6476 30.9436C20.32 32.1291 19.9946 33.3156 19.6692 34.5022C19.3934 35.5056 18.6278 35.991 17.6235 35.9944C16.8827 35.9978 16.1419 35.9989 15.3999 36C14.2774 36 13.531 35.491 13.2394 34.3595C12.6663 32.1448 12.2644 30.7313 12.0324 30.1189C11.7983 29.4975 11.349 28.9795 10.6848 28.5627C9.66585 27.9233 8.567 27.7514 7.38934 28.0492C6.42897 28.293 5.46972 28.5391 4.51273 28.7885C3.75164 28.9874 3.22699 29.0705 2.93989 29.038C2.3443 28.9717 1.86918 28.6525 1.51341 28.0817C1.20492 27.5873 0.826625 26.93 0.377402 26.1086C-0.285737 24.8974 -0.0448003 24.1985 0.863779 23.2681C1.62825 22.4849 2.39609 21.704 3.16731 20.9253C4.18848 19.8938 4.57578 18.6443 4.33034 17.1769C4.34272 17.1623 4.40803 17.0971 4.42041 17.151C4.42266 17.1623 4.42942 17.1656 4.44068 17.1611C4.86963 16.978 5.30647 16.9443 5.75119 17.0623C5.82775 17.0825 5.85027 17.1308 5.81987 17.2083C5.80523 17.2432 5.81762 17.2611 5.85477 17.2611H5.96849C6.02028 17.2611 6.02703 17.2791 5.98988 17.3151C5.92458 17.3791 5.87729 17.4533 5.84802 17.5375C5.82437 17.6027 5.84576 17.6229 5.90994 17.5982L6.42559 17.405C6.46725 17.3892 6.50778 17.3892 6.54831 17.4061C6.64851 17.4465 6.74646 17.4342 6.84216 17.369C6.87594 17.3454 6.91197 17.3398 6.95137 17.3499C7.2092 17.4173 7.52219 17.342 7.65279 17.651C7.68094 17.7173 7.70908 17.7162 7.7361 17.6499L7.81604 17.4533C7.82505 17.4319 7.84081 17.4252 7.8622 17.4308C7.87121 17.4331 7.88022 17.4398 7.8881 17.451C7.91624 17.4892 7.92525 17.5117 7.91737 17.5196C7.90949 17.5274 7.90273 17.5342 7.89598 17.5409C7.88472 17.5533 7.88022 17.5668 7.88359 17.5825C7.95903 17.9465 8.41275 17.5128 8.52872 17.4139C8.55574 17.3904 8.58501 17.3881 8.61654 17.4061L8.70548 17.4566C8.74376 17.4791 8.77979 17.4769 8.81469 17.4488C8.94867 17.3409 9.10404 17.2982 9.28193 17.3218C9.30782 17.3252 9.31458 17.3387 9.30107 17.3623C9.18398 17.5578 9.6287 17.6679 9.73791 17.6724C9.80321 17.6746 9.83698 17.7499 9.79645 17.8005L9.46094 18.2185C9.43955 18.2454 9.43167 18.2758 9.4373 18.3095C9.48346 18.5713 9.86513 18.2848 9.9597 18.1836C10.3121 17.8005 10.7568 17.642 11.1295 17.2926C11.1554 17.2679 11.1869 17.2566 11.2229 17.2578C11.4323 17.2656 12.1045 17.3319 12.0842 17.06C12.0808 17.0263 12.0944 17.0005 12.1236 16.9813C12.1507 16.9645 12.1799 16.9555 12.2114 16.9521C12.1112 17.4993 12.0718 18.0522 12.0921 18.6106C12.0527 19.7455 12.0403 20.8815 12.055 22.0197C12.0685 22.9838 12.0369 24.1086 12.0718 25.158C12.073 25.2041 12.0966 25.2322 12.1416 25.2412C12.494 25.3142 12.8509 25.3401 13.2112 25.3187C13.2506 25.3165 13.2867 25.3266 13.3193 25.3502C13.5434 25.5131 13.7877 25.5524 14.0534 25.4682C14.4947 25.3266 14.9304 25.2839 15.3616 25.339C15.6161 25.3715 15.9235 25.6142 16.2139 25.5187C16.6992 25.3592 17.1439 25.294 17.5503 25.3243C17.9523 25.3547 18.236 25.5581 18.7426 25.3805C19.506 25.1142 20.2738 25.53 20.7489 24.7974C20.8401 24.6569 20.8863 24.4715 20.8885 24.2423C20.9054 22.4287 20.8897 20.6174 20.8401 18.8073C20.9235 18.1443 20.884 17.4881 20.7208 16.8398Z" fill="white"/>
<path d="M12.1034 26.5592L11.3715 22.6827V21.6152C14.3363 22.4018 20.311 23.9861 20.4911 24.031C20.6713 24.076 19.7405 25.5479 19.2527 26.2783L12.1034 26.5592Z" fill="white"/>
</g>
</g>
</svg>
