<svg width="120" height="24" viewBox="0 0 120 24" fill="none" xmlns="http://www.w3.org/2000/svg">
<g id="1c-bitrix-logo (1) 1" clip-path="url(#clip0_1016_3169)">
<g id="Group">
<path id="Vector" fill-rule="evenodd" clip-rule="evenodd" d="M47.0756 11.2986C46.1212 11.2986 45.3465 12.0935 45.3465 13.0728C45.3465 14.0543 46.1212 14.8485 47.0756 14.8485C48.0308 14.8485 48.8045 14.0543 48.8045 13.0728C48.8045 12.0935 48.0308 11.2986 47.0756 11.2986ZM117.432 9.99582C118.565 9.99582 119.394 10.6474 119.938 11.2986V8.15248C119.047 7.53242 117.974 7.28418 117.041 7.28418C114.175 7.28418 111.685 9.39152 111.685 13.017C111.685 16.4884 113.948 18.7512 117.086 18.7512C117.991 18.7512 118.987 18.6104 119.938 17.9452V14.8596C119.394 15.4341 118.536 16.0392 117.432 16.0392C115.743 16.0392 114.731 14.7536 114.731 13.1101C114.731 11.328 115.803 9.99582 117.432 9.99582ZM112.009 7.59475H108.538L105.354 12.1494V7.59475H102.397L102.398 18.441H105.354V13.776L108.416 18.441H112.115L107.995 12.8468L112.009 7.59475ZM93.6643 14.1027V7.59475H90.8125V18.441H93.7096L97.799 11.9327V18.441H100.651V7.59475H97.753L93.6643 14.1027ZM85.0947 12.4746H84.2512V9.98113H85.0947C86.3624 9.98113 86.5427 10.6775 86.5427 11.2202C86.5427 11.6848 86.4074 12.4746 85.0947 12.4746ZM85.7429 7.59475H81.2924V18.441H84.2512V14.8596H85.7429C88.7313 14.8596 89.5916 12.7239 89.5916 11.2202C89.5916 9.73218 88.7463 7.59475 85.7429 7.59475ZM72.4815 10.1968H74.8037V18.441H77.7622V10.1968H80.0851V7.59475H72.4815V10.1968ZM64.2869 14.1027V7.59475H61.4359V18.441H64.3337L68.421 11.9327V18.441H71.2734V7.59475H68.377L64.2869 14.1027ZM55.4756 16.2702H54.2087V13.9934H55.4756C56.4116 13.9934 56.9551 14.2728 56.9551 15.1257C56.9551 15.9926 56.3969 16.2702 55.4756 16.2702ZM55.7631 11.8241H54.2087V10.1968H59.0519V7.59475H51.2516L51.2512 18.441L55.7631 18.441C56.5316 18.441 59.9122 18.471 59.9122 15.0788C59.9122 11.8087 56.5626 11.8241 55.7631 11.8241ZM34.6992 13.017C34.6992 16.4884 36.9625 18.7512 40.1006 18.7512C41.0069 18.7512 42.0025 18.6104 42.9534 17.9452V14.8596C42.4086 15.4341 41.5487 16.0392 40.4477 16.0392C38.7573 16.0392 37.747 14.7536 37.747 13.1101C37.747 11.328 38.818 9.99582 40.4477 9.99582C41.579 9.99582 42.4086 10.6474 42.9534 11.2986V8.15248C42.0611 7.53242 40.9909 7.28418 40.0553 7.28418C37.1882 7.28418 34.6992 9.39152 34.6992 13.017ZM28.5074 10.089H30.1228V18.441H32.8542V7.59475H28.5074V10.089Z" fill="#231F20"/>
<path id="Vector_2" fill-rule="evenodd" clip-rule="evenodd" d="M11.6124 0C10.7473 0 9.90593 0.0999403 9.09523 0.284776V11.9334C9.09523 13.3608 10.2286 14.525 11.6191 14.525C13.0088 14.525 14.1419 13.3608 14.1419 11.9341C14.1419 10.5629 13.0985 9.43737 11.7869 9.34782V7.27343C14.2106 7.3637 16.1609 9.42269 16.1609 11.9341C16.1609 14.5024 14.1206 16.5987 11.6191 16.5987C9.11651 16.5987 7.07651 14.5024 7.07651 11.9334V0.943881C6.78977 1.0689 6.50965 1.20752 6.23512 1.35654V11.9334C6.23547 14.9778 8.6543 17.4605 11.6191 17.4605C14.5842 17.4605 17.002 14.9778 17.002 11.9341C17.002 8.94699 14.6752 6.50078 11.7869 6.40872V4.33505C15.7866 4.42782 19.02 7.80573 19.02 11.9341C19.02 16.1208 15.6952 19.5342 11.6191 19.5342C7.54186 19.5342 4.21605 16.1208 4.21605 11.9334V2.73206C1.64163 4.91821 0 8.22412 0 11.9244C0 18.5101 5.19907 23.8503 11.6128 23.8503C18.0276 23.8503 23.2252 18.5101 23.2252 11.9244C23.2252 5.33875 18.0276 0 11.6124 0Z" fill="#D91935"/>
</g>
</g>
<defs>
<clipPath id="clip0_1016_3169">
<rect width="120" height="24" fill="white"/>
</clipPath>
</defs>
</svg>
