<svg width="48" height="48" viewBox="0 0 48 48" fill="none" xmlns="http://www.w3.org/2000/svg">
<path d="M5.35826 34.0387C5.62945 33.6844 6.12099 33.2727 6.48287 32.8785C8.80582 30.3505 10.1118 27.3942 10.3999 24.0111C10.433 23.6211 10.4499 23.066 10.4499 22.3467C10.4508 20.9665 10.4525 19.5862 10.455 18.206C10.4618 14.0645 12.5593 10.0613 15.9772 7.58755C21.2011 3.80858 28.4793 4.18865 33.1667 8.59772C35.7795 11.0556 37.2321 14.0778 37.5254 17.6642C37.694 19.7279 37.455 21.8283 37.6118 23.8928C37.8618 27.1825 39.089 30.088 41.2933 32.6101C41.4568 32.7976 41.8246 33.1769 42.3959 33.747C42.9306 34.2804 43.0484 34.7446 42.984 35.4822C42.9281 36.1215 42.5501 36.6516 41.9441 36.8816C41.7365 36.9608 41.4111 37 40.9678 37C29.6895 37 18.4112 37 7.13204 37C6.64474 37 6.29219 36.9592 6.07438 36.8783C4.97435 36.4666 4.68875 34.9172 5.35826 34.0387Z" fill="#D7171F"/>
<path d="M28.8288 41.0521C29.1011 41.293 29.0166 41.531 28.798 41.7737C26.0883 44.775 21.8368 44.727 19.157 41.7192C18.8539 41.3786 19.0136 41.0013 19.4302 41.0013C22.5386 41.0004 25.6282 40.9994 28.6973 41.0004C28.7468 41.0013 28.7903 41.0183 28.8288 41.0521Z" fill="#256AC5"/>
</svg>
