<svg width="80" height="80" viewBox="0 0 80 80" fill="none" xmlns="http://www.w3.org/2000/svg">
<circle cx="40" cy="40" r="40" fill="#ECF1F6"/>
<path d="M42.6187 56.4041C41.8382 56.8452 40.0085 57.6706 40.003 55.9906C39.9999 54.887 39.9991 53.7834 40.0015 52.6791C40.0015 52.3517 40.2429 52.095 40.5444 51.9251C42.5757 50.7823 44.6046 49.6365 46.632 48.4875C48.3945 47.4884 49.5383 46.1958 49.9047 44.1769C49.9687 43.8256 50.0008 43.3153 50.0008 42.6452C50 39.7402 50.0008 36.8359 50.0015 33.9316C50.0015 33.3606 49.9625 32.9518 49.8851 32.7051C49.6086 31.8297 48.9429 31.3678 48.0539 31.1888C45.4492 30.6654 43.0656 29.8661 40.7648 28.5519C40.2319 28.2476 40.014 27.9986 40.0085 27.3984C39.9991 26.3647 39.9968 25.3303 40.0007 24.2951C40.0023 23.9585 40.0312 23.7233 40.0866 23.5896C40.2734 23.1446 40.8468 22.8879 41.3124 23.0478C41.4116 23.0816 41.5913 23.1922 41.853 23.3798C44.3038 25.1374 47.0476 26.1864 50.0844 26.5253C50.5976 26.583 51.3687 26.6045 52.3992 26.5907C53.5875 26.5753 54.5836 27.4983 54.8906 28.575C54.9633 28.8279 54.9992 29.2644 54.9992 29.8846C55.0016 34.2875 54.9985 38.6896 54.9906 43.0917C54.9852 46.6054 53.3086 49.8632 50.4164 51.9075C50.1406 52.1027 49.6992 52.374 49.0922 52.7221C46.939 53.9571 44.7812 55.1845 42.6187 56.4041Z" fill="#D7171F"/>
<path d="M28.0998 50.6671C26.3545 48.871 25.3436 46.753 25.0662 44.3129C25.0248 43.9478 25.0037 43.436 25.0029 42.7781C24.9998 38.5097 24.999 34.2406 25.0014 29.9706C25.0014 29.2751 25.042 28.791 25.1232 28.5197C25.4014 27.5905 26.2178 26.8543 27.1834 26.6406C27.3748 26.5984 27.7701 26.5753 28.3709 26.573C31.2819 26.5599 33.8827 25.8168 36.4389 24.4611C37.1343 24.0922 37.5038 24.5579 37.5007 25.205C37.4952 26.2587 37.485 27.3131 37.471 28.3667C37.4624 29.0484 37.2429 29.5433 36.5975 29.81C35.1811 30.3964 33.6944 30.8368 32.1374 31.1311C30.6952 31.404 30.0014 32.1594 30.0006 33.6288C30.0006 36.6222 30.0006 39.6149 30.0006 42.6075C30.0006 43.2792 30.0319 43.7895 30.0944 44.1377C30.3412 45.5126 30.992 46.6577 32.0467 47.5714C32.3264 47.8135 32.7561 48.1017 33.335 48.4345C34.0655 48.8541 34.7975 49.2722 35.5296 49.6895C36.4913 50.2375 37.0936 50.7478 37.378 51.7599C37.4585 52.045 37.4991 52.5108 37.4999 53.1571C37.5015 53.7796 37.5015 54.4013 37.4999 55.0231C37.4991 55.4919 37.0725 55.8792 36.6132 55.8646C36.4546 55.8592 36.2296 55.7739 35.9366 55.6087C34.0014 54.5143 32.0702 53.4153 30.1412 52.3109C29.4748 51.9305 28.7944 51.3826 28.0998 50.6671Z" fill="#D7171F"/>
<path d="M41.6046 48.4701C40.7484 48.9496 40.0015 48.5062 40.0015 47.5517C40.0007 42.6546 40.0007 37.7576 39.9999 32.8597C39.9999 32.5285 40.0366 32.2849 40.1101 32.1296C40.3343 31.6562 40.8827 31.4749 41.3812 31.687C42.7109 32.2541 43.9007 32.7352 45.4398 33.1241C45.939 33.2509 46.2828 33.3693 46.4726 33.4799C47.3234 33.978 47.5007 34.7088 47.5007 35.6802C47.5 37.9005 47.5007 40.1216 47.5015 42.3426C47.5023 43.0888 47.4726 43.5991 47.4132 43.8743C47.1296 45.1838 46.357 45.7756 45.1515 46.4642C43.9726 47.1382 42.7906 47.8068 41.6046 48.4701Z" fill="#256AC5"/>
<path d="M33.0155 34.001C32.9889 33.9902 32.9803 33.9572 32.9991 33.9349C33.3795 33.4876 33.7671 33.3362 34.3928 33.1672C35.4335 32.8851 36.4546 32.547 37.4569 32.1512C37.4843 32.1404 37.4983 32.1496 37.4983 32.1781C37.5038 33.1864 37.5038 34.1908 37.4991 35.1907C37.4975 35.4804 37.3491 35.7117 37.0272 35.5849C35.6983 35.0616 34.3608 34.5336 33.0155 34.001Z" fill="#256AC5"/>
<path d="M36.9022 38.2025C37.6624 38.503 37.4968 39.3031 37.5022 39.9263C37.5077 40.515 37.3093 41.0276 36.6475 41.0622C36.4811 41.0707 36.2624 41.0223 35.9913 40.9162C35.0624 40.5519 34.1335 40.1884 33.2045 39.8249C32.642 39.6043 32.5241 39.3146 32.5209 38.7113C32.5194 38.314 32.453 37.7545 32.6233 37.4179C32.8874 36.8937 33.4045 36.843 33.9256 37.0444C35.4428 37.6315 36.435 38.0173 36.9022 38.2025Z" fill="#256AC5"/>
<path d="M36.1882 47.2335C34.5288 46.2798 32.6842 45.6027 32.5272 43.3962C32.4741 42.6431 32.928 42.3572 33.6186 42.6277C34.5991 43.012 35.5788 43.3993 36.5577 43.7897C37.2632 44.071 37.5085 44.1148 37.503 44.878C37.4991 45.4551 37.4983 46.0315 37.5022 46.6071C37.5054 47.0721 37.3179 47.504 36.7858 47.4648C36.6366 47.4533 36.4374 47.3764 36.1882 47.2335Z" fill="#256AC5"/>
</svg>
