<svg width="34" height="40" viewBox="0 0 34 40" fill="none" xmlns="http://www.w3.org/2000/svg">
<g id="Group 14">
<path id="Vector" d="M29.6825 0.00525012C32.1314 0.00700012 33.98 1.88037 33.9951 4.28925C34.0013 5.173 34.0013 6.062 33.9969 6.95713C33.9969 6.986 33.9827 7 33.9535 7H0.0431618C0.019257 7 0.000664023 6.98162 0.000664023 6.95887C-0.000221341 6.02 -0.000221341 5.0785 0.000664023 4.13438C0.00154939 1.84362 2.00956 0 4.29468 0C12.757 0 21.2193 0.00175012 29.6825 0.00525012Z" fill="#256AC5"/>
<path id="Vector_2" d="M32.9948 10.0455C29.5881 14.8622 26.191 19.6717 22.7713 24.4687C22.6329 24.6625 22.5755 25.0634 22.5755 25.3456C22.5746 27.4485 22.5746 29.5514 22.5737 31.6544C22.5729 32.8206 22.1682 33.8332 21.3581 34.6922C20.6141 35.4807 19.3072 36.821 17.4372 38.7132C17.0143 39.141 16.6697 39.4303 16.4043 39.5794C14.5187 40.6402 12.157 39.6026 11.5723 37.4952C11.4827 37.1738 11.4383 36.621 11.4374 35.8361C11.4365 32.2705 11.4357 28.7058 11.4357 25.1411C11.4357 24.8151 11.2555 24.4901 11.0441 24.1928C7.69832 19.4726 4.35168 14.7532 1.00417 10.0348C0.993724 10.0205 1.00417 10 1.02157 10H32.9722C32.9948 10 33.0079 10.0268 32.9948 10.0455Z" fill="#D7171F"/>
</g>
</svg>
